<?xml version="1.0" standalone="no"?>
<!DOCTYPE svg PUBLIC "-//W3C//DTD SVG 1.1//EN" "http://www.w3.org/Graphics/SVG/1.1/DTD/svg11.dtd">
<svg xmlns="http://www.w3.org/2000/svg">
<defs >
<font id="Antonio" horiz-adv-x="887" ><font-face
    font-family="Antonio ExtraLight"
    units-per-em="2048"
    panose-1="0 0 0 0 0 0 0 0 0 0"
    ascent="2365"
    descent="-285"
    alphabetic="0" />
<glyph unicode=" " horiz-adv-x="469" />
<glyph unicode="!" horiz-adv-x="508" d="M221 375L154 1760H355L287 375H221ZM155 0V209H351V0H155Z" />
<glyph unicode="&quot;" horiz-adv-x="764" d="M487 1106V1760H653L553 1106H487ZM186 1106V1760H351L252 1106H186Z" />
<glyph unicode="#" horiz-adv-x="836" d="M46 0L165 658H2V753H182L235 1052H43V1147H253L365 1760H484L370 1147H573L687 1760H799L688 1147H847V1052H670L616 753H806V658H600L479 0H367L485 658H282L164 0H46ZM298 751H504L557 1046H352L298 751Z" />
<glyph unicode="$" horiz-adv-x="823" d="M387 -228V58H495V-228H387ZM353 1489V1777H460V1489H353ZM446 17Q288 17 212 118T136 446V571H299V465Q299 321 332 243T434 164Q505 164 535 209T566 374Q566 429 557 482T517 589T423 703L313 807Q213 902 170 1003T126
1218Q126 1390 206 1472T420 1555Q508 1555 572 1513T671 1368T706 1088V1000H551V1117Q551 1266 521 1337T422 1408Q351 1408 321 1352T290 1195Q290 1148 301 1104T342 1013T432 908L537 806Q643 705 689 597T735 368Q735 210 666 114T446 17Z" />
<glyph unicode="%" horiz-adv-x="2106" d="M619 0L1343 1760H1492L776 0H619ZM442 581Q330 581 268 619T182 750T158 1011V1364Q158 1526 182 1617T268 1745T442 1783Q555 1783 616 1746T702 1617T727 1364V1011Q727 844 703 751T617 619T442 581ZM442 725Q520
725 548 769T576 936V1435Q576 1554 548 1596T442 1639Q365 1639 337 1597T308 1435V936Q308 814 336 770T442 725ZM1660 -20Q1548 -20 1486 18T1400 149T1375 410V763Q1375 925 1399 1015T1486 1143T1660 1181Q1773 1181 1834 1144T1920 1016T1944 763V410Q1944
243 1920 150T1835 18T1660 -20ZM1660 124Q1738 124 1766 168T1794 335V834Q1794 953 1766 995T1660 1038Q1583 1038 1555 996T1527 834V335Q1527 213 1555 169T1660 124Z" />
<glyph unicode="&amp;" horiz-adv-x="865" d="M348 -20Q232 -20 152 62T71 334Q71 471 105 576T195 772T317 953Q255 1113 214 1241T172 1441Q172 1611 242 1697T440 1783Q541 1783 594 1742T669 1622T690 1433Q690 1333 659 1245T577 1077T472 918L640 516Q670
585 707 656T796 797L865 679Q809 601 773 519T706 357L861 0H719L622 230Q600 163 567 106T480 15T348 -20ZM367 120Q415 120 447 152T505 240T559 370L377 810Q330 749 295 671T239 509T217 348Q215 249 250 185T367 120ZM417 1061Q476 1143 516 1238T556 1450Q556
1552 536 1602T443 1653Q393 1653 367 1631T331 1575T319 1505T317 1441Q317 1384 346 1283T417 1061Z" />
<glyph unicode="&apos;" horiz-adv-x="406" d="M181 1125L121 1760H289L224 1125H181Z" />
<glyph unicode="(" horiz-adv-x="550" d="M456 -152Q364 -152 305 -137T213 -79T166 46T153 265V1365Q153 1501 166 1584T212 1710T305 1768T456 1783V1657Q411 1657 384 1652T342 1622T322 1537T317 1369V261Q317 153 322 94T341 9T383 -21T456 -27V-152Z" />
<glyph unicode=")" horiz-adv-x="550" d="M94 -153V-28Q139 -28 166 -23T208 7T228 92T233 260V1369Q233 1478 228 1537T209 1621T167 1652T94 1657V1783Q186 1783 245 1768T337 1710T384 1584T397 1365V264Q397 128 384 45T338 -81T245 -138T94 -153Z" />
<glyph unicode="*" horiz-adv-x="936" d="M398 1068L424 1346L200 1173L130 1297L374 1426L122 1547L194 1669L424 1505L398 1777H539L518 1507L742 1679L814 1556L562 1426L814 1288L742 1164L518 1342L539 1068H398Z" />
<glyph unicode="+" horiz-adv-x="742" d="M306 555V817H78V932H306V1188H433V932H665V817H433V555H306Z" />
<glyph unicode="," horiz-adv-x="444" d="M164 -348L254 0H136V190H352V9L249 -348H164Z" />
<glyph unicode="-" horiz-adv-x="696" d="M103 820V944H574V820H103Z" />
<glyph unicode="." horiz-adv-x="532" d="M173 0V173H333V0H173Z" />
<glyph unicode="/" horiz-adv-x="739" d="M79 0L526 1779H674L226 0H79Z" />
<glyph unicode="0" horiz-adv-x="837" d="M421 -21Q302 -21 240 32T156 196T133 475V1316Q133 1476 156 1579T241 1732T421 1782Q540 1782 601 1732T684 1579T705 1316V475Q705 349 694 256T654 101T568 9T421 -21ZM418 116Q459 116 483 134T521 192T538 300T543
470V1327Q543 1448 534 1516T499 1614T418 1643Q369 1643 342 1614T304 1517T294 1328V470Q294 368 299 300T317 192T354 134T418 116Z" />
<glyph unicode="1" horiz-adv-x="837" d="M405 0V1520Q381 1492 333 1468T233 1429T144 1414V1527Q197 1535 261 1565T381 1644T465 1760H569V0H405Z" />
<glyph unicode="2" horiz-adv-x="837" d="M178 0V115Q194 179 215 238T264 360T328 491L473 791Q510 869 531 933T564 1055T578 1173T582 1306Q582 1449 571 1521T533 1617T459 1642Q415 1641 387 1612T344 1511T330 1312V1065H172V1286Q172 1459 199 1569T293
1731T475 1782Q572 1781 629 1728T711 1569T737 1305Q737 1184 723 1088T678 903T601 718L466 440Q435 380 412 329T371 231T337 130H712V0H178Z" />
<glyph unicode="3" horiz-adv-x="837" d="M412 -20Q241 -20 172 100T102 471V527H265V473Q265 336 276 259T321 150T418 118Q482 118 515 152T561 265T574 476Q574 621 554 702T489 817T371 850H329V989H369Q441 989 485 1011T550 1103T571 1321Q571 1459 550
1527T493 1618T413 1641Q369 1641 337 1615T288 1520T270 1317V1283H108V1323Q108 1550 175 1665T414 1780Q587 1780 661 1664T735 1320Q735 1170 695 1062T560 918Q623 889 662 822T720 663T739 473Q739 223 662 102T412 -20Z" />
<glyph unicode="4" horiz-adv-x="837" d="M488 0V346H91V457L475 1760H638V476H790V346H638V0H488ZM226 476H488V1452L226 476Z" />
<glyph unicode="5" horiz-adv-x="837" d="M436 -20Q324 -20 264 25T181 142T158 298V473H317V277Q317 198 343 157T433 116Q490 116 519 155T548 288V864Q548 974 524 1028T438 1082Q388 1082 354 1034T319 883L181 904V1760H666V1610H330V1136Q345 1178 388 1202T483
1226Q550 1226 599 1192T677 1062T705 784V406Q705 306 694 227T654 93T573 9T436 -20Z" />
<glyph unicode="6" horiz-adv-x="837" d="M447 -20Q343 -20 281 18T186 127T144 293T133 503V1256Q133 1437 157 1553T248 1726T443 1782Q559 1782 618 1730T699 1571T721 1296V1250H560V1287Q560 1431 552 1507T517 1612T433 1641Q370 1641 341 1607T303 1488T294
1253V1021Q325 1059 366 1079T453 1100Q572 1105 637 1050T727 875T753 561V460Q753 310 729 202T640 37T447 -20ZM446 121Q506 121 537 148T581 247T593 447V557Q593 710 583 799T543 926T455 965Q411 965 377 954T322 930T294 915V492Q294 362 303 280T344 160T446
121Z" />
<glyph unicode="7" horiz-adv-x="837" d="M228 0Q247 239 280 452T355 846T438 1170Q501 1388 547 1507T594 1627H92V1760H744V1641Q743 1638 698 1508T594 1158Q555 1009 516 825T447 433T401 0H228Z" />
<glyph unicode="8" horiz-adv-x="837" d="M424 -20Q263 -20 188 81T106 407V451Q105 576 122 670T173 830T259 931Q186 984 154 1084T122 1346Q122 1574 192 1678T426 1782Q589 1782 659 1678T729 1346Q729 1187 696 1088T586 935Q637 899 668 833T715 671T730
451V416Q730 188 657 84T424 -20ZM426 117Q479 117 510 150T553 254T566 439V489Q566 686 531 776T426 867Q351 867 312 775T272 479V430Q272 263 306 190T426 117ZM424 989Q472 989 503 1024T550 1138T566 1348Q566 1459 551 1523T505 1615T424 1642Q376 1642
345 1614T299 1521T284 1344Q284 1214 299 1136T346 1024T424 989Z" />
<glyph unicode="9" horiz-adv-x="837" d="M420 -20Q311 -20 251 31T168 188T144 461V509H298V476Q299 321 308 244T347 142T434 117Q497 117 519 158T544 289T547 519V713Q521 689 480 676T393 662Q272 662 211 725T128 911T107 1217V1252Q107 1365 115 1461T152
1630T241 1742T406 1782Q510 1782 571 1743T662 1633T701 1466T710 1257V537Q710 356 692 232T612 44T420 -20ZM410 790Q448 790 476 797T522 811T547 822V1267Q547 1454 524 1546T409 1639Q345 1639 315 1599T276 1477T268 1271V1199Q268 1047 276 957T315 829T410
790Z" />
<glyph unicode=":" horiz-adv-x="537" d="M166 1048V1287H361V1048H166ZM166 300V539H361V300H166Z" />
<glyph unicode=";" horiz-adv-x="561" d="M197 -29L290 331H187V526H394V340L287 -29H197ZM183 1048V1287H377V1048H183Z" />
<glyph unicode="&lt;" horiz-adv-x="730" d="M641 281L63 677V833L641 1225V1043L183 757L641 456V281Z" />
<glyph unicode="=" horiz-adv-x="722" d="M91 594V731H639V594H91ZM91 895V1032H639V895H91Z" />
<glyph unicode="&gt;" horiz-adv-x="730" d="M85 281V464L543 749L85 1050V1225L663 829V673L85 281Z" />
<glyph unicode="?" horiz-adv-x="748" d="M236 494V810Q331 843 385 886T463 993T494 1147T501 1367Q501 1517 486 1581T411 1645Q346 1645 328 1587T310 1370V1160H158V1366Q158 1424 160 1495T181 1632T253 1740T407 1783Q500 1783 551 1749T624 1652T650 1503T654
1310Q654 1137 630 1022T546 840T376 741V494H236ZM236 0V299H377V0H236Z" />
<glyph unicode="@" horiz-adv-x="1390" d="M1194 97Q939 14 734 24T382 128T157 393T78 803Q78 994 113 1151T227 1422T438 1599T762 1661Q969 1661 1089 1565T1261 1292T1313 879Q1313 743 1290 627T1214 440T1076 370Q1012 370 966 419T906 549Q884 460 819
409T675 359Q601 360 534 406T426 549T384 802Q384 918 408 1014T483 1179T607 1285T781 1321T1002 1274V650Q1002 563 1018 517T1079 470Q1117 470 1142 515T1180 652T1193 886Q1193 1004 1181 1121T1126 1335T995 1490T753 1548Q552 1548 435 1453T267 1190T217
800Q217 568 290 420T493 200T798 132T1174 207L1194 97ZM679 461Q724 460 766 486T838 557T876 653V1203Q808 1221 743 1215T625 1168T541 1039T510 807Q510 626 557 545T679 461Z" />
<glyph unicode="A" horiz-adv-x="843" d="M39 0L318 1760H497L803 0H645L590 355H247L196 0H39ZM267 482H568L412 1464H410L267 482Z" />
<glyph unicode="B" horiz-adv-x="882" d="M160 0V1760H434Q570 1760 641 1720T738 1594T766 1365V1338Q766 1186 745 1091T648 949Q706 922 737 858T780 707T792 521V489Q790 320 762 212T666 52T474 0H160ZM325 139H474Q536 139 568 171T613 285T626 514V543Q626
723 598 801T480 879H325V139ZM325 1010H454Q501 1010 529 1018T574 1058T596 1154T602 1329V1352Q601 1470 584 1526T531 1600T434 1618H325V1010Z" />
<glyph unicode="C" horiz-adv-x="882" d="M454 -20Q325 -20 256 44T160 234T133 541V1251Q133 1364 145 1461T190 1630T289 1742T460 1782Q566 1782 628 1742T719 1630T758 1460T767 1249V1085H602V1262Q602 1449 577 1545T460 1642Q363 1642 331 1546T298 1263V541Q298
389 309 296T355 160T454 117Q547 117 574 215T602 541V697H767V542Q767 361 743 235T651 45T454 -20Z" />
<glyph unicode="D" horiz-adv-x="925" d="M160 0V1760H448Q589 1760 663 1700T764 1528T792 1265V505Q792 324 758 213T647 51T441 0H160ZM324 139H442Q505 139 546 167T607 275T627 507V1278Q627 1465 584 1545T449 1625H324V139Z" />
<glyph unicode="E" horiz-adv-x="727" d="M160 0V1760H642V1628H325V964H623V829H325V133H641V0H160Z" />
<glyph unicode="F" horiz-adv-x="709" d="M160 0V1760H641V1628H324V1012H623V878H324V0H160Z" />
<glyph unicode="G" horiz-adv-x="904" d="M425 -19Q276 -19 205 108T133 530V1250Q133 1364 145 1460T192 1629T292 1741T463 1782Q569 1782 629 1742T720 1630T758 1461T767 1250V1106H601V1366Q601 1501 575 1571T460 1642Q368 1642 333 1558T298 1264V540Q298
312 327 215T454 117Q546 117 576 214T607 539V763H458V899H767V0H666L646 111Q613 48 561 15T425 -19Z" />
<glyph unicode="H" horiz-adv-x="961" d="M160 0V1760H325V1000H636V1760H801V0H636V873H325V0H160Z" />
<glyph unicode="I" horiz-adv-x="488" d="M161 0V1760H326V0H161Z" />
<glyph unicode="J" horiz-adv-x="809" d="M375 -20Q211 -20 146 81T81 389V562H246V402Q246 326 251 261T281 157T369 117Q432 117 457 155T487 262T492 418V1760H657V422Q657 197 591 89T375 -20Z" />
<glyph unicode="K" horiz-adv-x="869" d="M160 0V1760H325V901L668 1760H830L477 891L853 0H682L327 855V0H160Z" />
<glyph unicode="L" horiz-adv-x="657" d="M160 0V1760H325V133H641V0H160Z" />
<glyph unicode="M" horiz-adv-x="1229" d="M160 0V1760H347L622 302L887 1760H1074V0H927V730L949 1425L694 27H550L286 1425L307 730V0H160Z" />
<glyph unicode="N" horiz-adv-x="992" d="M160 0V1760H278L704 444L687 1023V1760H832V0H706L303 1293L314 826V0H160Z" />
<glyph unicode="O" horiz-adv-x="906" d="M454 -20Q326 -20 256 38T160 215T133 515V1272Q133 1424 156 1539T250 1718T461 1783Q567 1783 629 1746T723 1641T763 1480T773 1272V515Q773 334 747 215T653 38T454 -20ZM454 118Q517 118 550 153T595 276T608 515V1284Q608
1472 581 1557T461 1643Q365 1643 332 1557T298 1285V515Q298 362 310 276T356 154T454 118Z" />
<glyph unicode="P" horiz-adv-x="860" d="M160 0V1760H479Q585 1760 648 1723T742 1619T782 1458T792 1251V1230Q792 1048 766 928T671 749T473 690H325V0H160ZM325 828H474Q536 828 568 865T614 990T627 1229V1263Q627 1450 600 1537T481 1625H325V828Z" />
<glyph unicode="Q" horiz-adv-x="906" d="M634 -356L415 -15L532 35L734 -292L634 -356ZM454 -20Q326 -20 256 38T160 215T133 515V1272Q133 1424 156 1539T250 1718T461 1783Q567 1783 629 1746T723 1641T763 1480T773 1272V515Q773 334 747 215T653 38T454 -20ZM454
118Q517 118 550 153T595 276T608 515V1284Q608 1472 581 1557T461 1643Q365 1643 332 1557T298 1285V515Q298 362 310 276T356 154T454 118Z" />
<glyph unicode="R" horiz-adv-x="910" d="M160 0V1760H478Q620 1760 686 1714T772 1571T792 1322Q792 1155 758 1054T630 926Q680 918 712 883T761 768T784 552T791 202Q791 180 791 158T792 114T795 73T801 35T812 0H648Q642 11 639 31T633 89T629 188T628 342T627
567Q627 682 621 742T583 825T473 854L325 863V0H160ZM324 977H474Q536 977 569 999T614 1095T627 1321V1333Q627 1458 616 1520T574 1604T481 1625H324V977Z" />
<glyph unicode="S" horiz-adv-x="803" d="M416 -20Q310 -20 247 21T153 136T111 308T100 519V698H262V519Q262 304 292 211T423 117Q492 117 523 151T562 258T570 450Q570 581 534 664T415 827L308 928Q259 974 208 1033T123 1169T88 1347Q88 1475 112 1573T204
1727T407 1783Q514 1783 575 1743T665 1630T700 1460T708 1249V1149H557V1261Q557 1408 544 1491T499 1608T408 1643Q352 1643 317 1620T267 1538T251 1372Q251 1292 269 1242T325 1151T419 1053L522 948Q621 850 678 730T736 440Q736 302 712 199T619 38T416 -20Z"
/>
<glyph unicode="T" horiz-adv-x="566" d="M210 0V1628H23V1760H544V1628H374V0H210Z" />
<glyph unicode="U" horiz-adv-x="926" d="M465 -20Q339 -20 269 31T171 187T143 452V1760H308V457Q308 348 316 272T357 156T465 116Q541 116 573 156T611 271T618 456V1760H783V452Q783 292 756 188T660 32T465 -20Z" />
<glyph unicode="V" horiz-adv-x="856" d="M353 0L45 1760H203L322 1049L441 330H443L548 1049L654 1760H811L532 0H353Z" />
<glyph unicode="W" horiz-adv-x="1320" d="M300 0L56 1760H215L389 347L604 1760H740L967 347L1109 1760H1264L1052 0H889L679 1407L455 0H300Z" />
<glyph unicode="X" horiz-adv-x="734" d="M50 0L288 923L63 1760H212L382 1121L541 1760H682L454 854L682 0H536L359 660L192 0H50Z" />
<glyph unicode="Y" horiz-adv-x="797" d="M330 0V763L16 1760H181L412 999H415L613 1760H782L495 764V0H330Z" />
<glyph unicode="Z" horiz-adv-x="652" d="M81 0V140L426 1628H96V1760H595V1642L248 133H589V0H81Z" />
<glyph unicode="[" horiz-adv-x="600" d="M160 -91V1760H537V1634H325V36H537V-91H160Z" />
<glyph unicode="\" horiz-adv-x="729" d="M499 0L88 1760H231L641 0H499Z" />
<glyph unicode="]" horiz-adv-x="600" d="M62 -91V36H275V1634H62V1760H440V-91H62Z" />
<glyph unicode="^" horiz-adv-x="957" d="M127 837L368 1760H589L830 837H667L480 1635L292 837H127Z" />
<glyph unicode="_" horiz-adv-x="748" d="M48 -189V-59H699V-189H48Z" />
<glyph unicode="`" horiz-adv-x="368" d="M237 1640L50 1983H224L318 1640H237Z" />
<glyph unicode="a" horiz-adv-x="860" d="M367 -12Q243 -12 183 90T123 379V558Q123 644 156 702T250 803T391 882T566 957V1063Q566 1173 560 1242T528 1343T440 1376Q380 1376 352 1344T315 1242T306 1055V1014H141V1055Q141 1147 149 1230T186 1378T275 1480T441
1518Q546 1518 605 1484T691 1382T724 1216T731 988V0H566V117Q559 96 536 65T470 11T367 -12ZM403 124Q460 124 505 158T566 223V834Q477 794 422 765T338 705T298 630T287 515V390Q287 247 310 186T403 124Z" />
<glyph unicode="b" horiz-adv-x="892" d="M523 -12Q464 -12 409 16T321 117V0H157V1782H321V1374Q334 1437 387 1477T498 1518Q611 1522 668 1456T745 1275T765 1020V483Q765 342 748 230T680 53T523 -12ZM468 126Q548 127 574 205T601 465V1063Q601 1158 593
1228T559 1336T474 1375Q427 1375 393 1355T340 1267T321 1061V459Q321 288 349 207T468 126Z" />
<glyph unicode="c" horiz-adv-x="824" d="M429 -18Q325 -18 264 20T174 129T136 296T127 510V1022Q127 1162 148 1274T235 1452T436 1518Q537 1518 595 1483T679 1383T713 1227T721 1029V966H556V1069Q556 1169 551 1235T521 1336T436 1370Q372 1370 342 1332T302
1225T292 1061V449Q292 340 300 269T337 164T429 130Q490 130 516 167T549 274T556 444V566H721V506Q721 391 714 295T681 129T595 21T429 -18Z" />
<glyph unicode="d" horiz-adv-x="878" d="M369 -12Q265 -12 213 53T144 229T127 481V1019Q127 1161 148 1274T230 1452T406 1518Q461 1518 505 1482T570 1395V1782H736V0H570V117Q539 45 484 17T369 -12ZM420 125Q467 125 501 145T553 232T571 438V1041Q571 1213
545 1293T427 1374Q347 1373 320 1294T292 1034V437Q292 343 300 273T336 164T420 125Z" />
<glyph unicode="e" horiz-adv-x="824" d="M430 -18Q326 -18 265 20T174 128T136 296T127 509V1020Q127 1126 137 1216T179 1375T272 1480T435 1518Q537 1518 595 1480T679 1372T713 1210T720 1009V750H292V448Q292 285 313 205T429 124Q490 124 516 162T549 272T556
443V558H716V505Q716 390 710 295T679 129T594 21T430 -18ZM291 878H556V1069Q556 1169 551 1237T521 1341T436 1376Q373 1376 342 1337T301 1228T291 1062V878Z" />
<glyph unicode="f" horiz-adv-x="620" d="M214 0V1318H77V1442H214V1513Q214 1644 263 1716T433 1788Q489 1788 529 1780T572 1769V1642Q529 1649 494 1649Q415 1649 398 1617T380 1531V1442H572V1318H380V0H214Z" />
<glyph unicode="g" horiz-adv-x="878" d="M429 -231Q342 -235 262 -209T130 -143L192 -21Q230 -49 288 -73T429 -94Q494 -92 532 -43T570 91V250Q539 177 490 154T383 131Q278 131 223 196T147 373T126 625V1020Q126 1161 153 1274T241 1454T406 1518Q460 1517
504 1492T570 1406V1500H734V109Q734 62 723 5T679 -104T586 -191T429 -231ZM444 268Q488 268 516 294T557 395T570 612V1055Q570 1218 546 1297T433 1376Q369 1376 339 1336T300 1224T291 1057V609Q291 434 321 351T444 268Z" />
<glyph unicode="h" horiz-adv-x="934" d="M156 0V1782H320V1350Q340 1415 407 1467T563 1519Q664 1519 726 1444T789 1207V0H624V1195Q624 1299 587 1334T490 1370Q449 1370 410 1353T345 1295T320 1181V0H156Z" />
<glyph unicode="i" horiz-adv-x="482" d="M158 0V1500H324V0H158ZM158 1638V1795H323V1638H158Z" />
<glyph unicode="j" horiz-adv-x="490" d="M183 -220Q146 -220 114 -217T66 -212V-95Q80 -96 96 -97T129 -99Q156 -99 165 -78T174 -29V1500H339V-19Q339 -99 317 -142T258 -203T183 -220ZM175 1638V1795H340V1638H175Z" />
<glyph unicode="k" horiz-adv-x="852" d="M157 0V1782H321V767L642 1500H808L473 757L825 0H654L321 739V0H157Z" />
<glyph unicode="l" horiz-adv-x="476" d="M158 0V1782H323V0H158Z" />
<glyph unicode="m" horiz-adv-x="1379" d="M155 0V1500H320V1349Q339 1415 401 1467T550 1519Q622 1519 675 1482T754 1367Q791 1434 858 1476T1008 1519Q1108 1519 1171 1444T1234 1208V0H1069V1216Q1069 1304 1032 1337T936 1370Q849 1370 813 1337T777 1208V0H612V1216Q612
1305 576 1337T481 1370Q403 1370 362 1326T320 1198V0H155Z" />
<glyph unicode="n" horiz-adv-x="933" d="M155 0V1500H320V1350Q340 1415 406 1467T562 1519Q663 1519 725 1444T788 1207V0H623V1215Q623 1304 583 1340T483 1376Q442 1376 405 1361T344 1310T320 1208V0H155Z" />
<glyph unicode="o" horiz-adv-x="864" d="M435 -18Q331 -18 269 20T177 129T137 296T127 510V1020Q127 1161 148 1274T235 1452T435 1518Q536 1518 597 1481T688 1376T727 1217T737 1020V510Q737 395 729 299T691 131T602 21T435 -18ZM435 124Q495 124 524 166T563
282T572 456V1057Q572 1152 563 1223T525 1335T435 1376Q371 1376 340 1336T301 1224T292 1057V456Q292 357 301 283T341 166T435 124Z" />
<glyph unicode="p" horiz-adv-x="893" d="M159 -267V1500H323V1382Q354 1456 410 1484T525 1512Q629 1512 680 1447T749 1271T767 1018V478Q767 338 745 225T662 47T487 -18Q433 -18 389 19T323 106V-267H159ZM470 126Q550 127 576 206T602 466V1062Q602 1157
595 1227T560 1336T476 1375Q429 1375 395 1354T342 1267T323 1061V460Q323 288 351 207T470 126Z" />
<glyph unicode="q" horiz-adv-x="876" d="M571 -267V105Q550 56 506 19T406 -18Q292 -18 232 47T149 226T127 479V1018Q127 1159 144 1270T213 1447T368 1512Q428 1512 484 1484T571 1382V1500H736V-267H571ZM417 125Q464 125 498 145T551 233T570 439V1041Q570
1212 542 1293T423 1374Q342 1373 317 1295T291 1035V437Q291 296 311 211T417 125Z" />
<glyph unicode="r" horiz-adv-x="615" d="M156 0V1500H321V1333Q347 1420 411 1469T576 1518Q578 1518 578 1497T579 1448T579 1399T579 1378Q530 1378 485 1366T400 1324T321 1239V0H156Z" />
<glyph unicode="s" horiz-adv-x="761" d="M412 -20Q254 -20 178 81T101 409V534H264V428Q264 283 297 205T400 127Q470 127 501 172T532 336Q532 392 522 444T482 551T388 665L279 769Q178 865 135 966T92 1180Q92 1352 172 1435T385 1518Q474 1518 538 1475T637
1330T672 1051V963H516V1079Q516 1228 486 1299T388 1370Q316 1370 286 1314T255 1157Q255 1111 266 1067T307 975T397 871L503 768Q608 667 654 559T700 330Q700 173 631 77T412 -20Z" />
<glyph unicode="t" horiz-adv-x="588" d="M419 -9Q323 -9 275 13T211 85T195 219V1371H49V1497H195V1760H360V1497H533V1371H360V218Q360 178 370 159T416 134T533 128V-9H419Z" />
<glyph unicode="u" horiz-adv-x="927" d="M385 -20Q333 -20 277 8T183 105T144 292V1500H309V304Q309 216 346 173T451 130Q529 130 571 180T613 313L611 1500H777V0H613V151Q593 85 534 33T385 -20Z" />
<glyph unicode="v" horiz-adv-x="734" d="M281 0L56 1500H205L323 679L371 256H378L420 680L528 1500H678L456 0H281Z" />
<glyph unicode="w" horiz-adv-x="1104" d="M234 0L59 1500H205L292 627L316 323H327L359 628L483 1500H532H597H625L757 658L797 323H807L828 659L904 1500H1045L870 0H710L562 1253L387 0H234Z" />
<glyph unicode="x" horiz-adv-x="691" d="M32 0L273 765L50 1500H194L353 986L500 1500H654L419 775L660 0H506L337 556L179 0H32Z" />
<glyph unicode="y" horiz-adv-x="756" d="M125 -242V-106H184Q227 -106 262 -103T305 -92Q321 -75 318 -40T308 42L59 1500H223L339 711L386 303H400L442 711L546 1500H709L467 -6Q454 -93 438 -145T384 -219T270 -242H125Z" />
<glyph unicode="z" horiz-adv-x="635" d="M78 0V120L407 1358H103V1500H581V1394L248 142H562V0H78Z" />
<glyph unicode="{" horiz-adv-x="636" d="M470 -119Q376 -119 323 -89T248 15T226 219V525Q226 629 218 683T180 755T88 774V888Q150 888 179 907T217 979T226 1137V1443Q226 1574 247 1648T322 1752T470 1783H530V1646Q468 1646 438 1630T399 1568T390 1430V1156Q390
1051 380 988T342 890T258 831Q313 808 341 773T380 675T390 507V232Q390 141 399 95T438 32T530 16V-119H470Z" />
<glyph unicode="|" horiz-adv-x="497" d="M168 -131V1798H331V-131H168Z" />
<glyph unicode="}" horiz-adv-x="636" d="M106 -119V16Q168 16 198 32T237 94T246 232V507Q246 612 256 674T294 772T378 831Q323 854 295 889T256 988T246 1156V1430Q246 1522 237 1568T198 1630T106 1646V1783H166Q261 1783 314 1753T388 1648T410 1443V1137Q410
1033 418 980T456 907T548 888V774Q486 774 457 756T419 683T410 525V219Q410 89 389 15T314 -89T166 -119H106Z" />
<glyph unicode="~" horiz-adv-x="1068" d="M238 838L111 884Q138 1005 188 1057T308 1110Q347 1110 409 1094T538 1056T660 1019T739 1003Q771 1003 789 1033T819 1146L953 1122Q945 1054 929 1003T888 917T832 865T763 847Q720 847 658 863T531 901T412 939T328
957Q290 959 271 927T238 838Z" />
<glyph unicode="&#xa0;" horiz-adv-x="469" />
<glyph unicode="&#xa1;" horiz-adv-x="508" d="M287 1125L354 -260H153L221 1125H287ZM353 1500V1291H157V1500H353Z" />
<glyph unicode="&#xa2;" horiz-adv-x="824" d="M386 1505V1762H485V1505H386ZM386 -249V6H485V-249H386ZM429 -18Q325 -18 264 20T174 129T136 296T127 510V1022Q127 1162 148 1274T235 1452T436 1518Q537 1518 595 1483T679 1383T713 1227T721 1029V966H556V1069Q556
1169 551 1235T521 1336T436 1370Q372 1370 342 1332T302 1225T292 1061V449Q292 340 300 269T337 164T429 130Q490 130 516 167T549 274T556 444V566H721V506Q721 391 714 295T681 129T595 21T429 -18Z" />
<glyph unicode="&#xa3;" horiz-adv-x="837" d="M118 0V102Q189 145 235 191T304 298T327 441T305 640Q297 684 289 727T272 815H86V928H249L211 1111Q196 1187 185 1262T174 1391Q174 1586 246 1684T476 1783Q562 1783 626 1751T727 1633T764 1391V1246H623V1401Q623
1500 609 1553T563 1626T483 1647Q437 1647 403 1629T351 1560T332 1408Q332 1361 341 1288T367 1132L406 928H709V815H431Q440 770 447 725T463 635Q491 483 486 384T443 224T335 125H780V0H118Z" />
<glyph unicode="&#xa4;" horiz-adv-x="1159" d="M274 497L125 647L216 738Q163 836 163 952Q163 1069 215 1166L125 1256L274 1406L361 1318Q458 1373 579 1373Q700 1373 797 1319L884 1406L1034 1257L944 1167Q998 1070 998 952Q998 834 944 736L1034 646L884
497L795 585Q703 533 579 533Q455 533 363 586L274 497ZM579 651Q665 651 728 692T826 802T861 954Q861 1082 785 1166T579 1251Q494 1251 431 1211T333 1103T298 952Q298 869 332 801T430 692T579 651Z" />
<glyph unicode="&#xa5;" horiz-adv-x="797" d="M62 442V534H385V725H62V817H739V725H459V534H739V442H62ZM330 0V763L16 1760H181L412 999H415L613 1760H782L495 764V0H330Z" />
<glyph unicode="&#xa6;" horiz-adv-x="481" d="M160 -102V715H321V-102H160ZM160 931V1760H321V931H160Z" />
<glyph unicode="&#xa7;" horiz-adv-x="775" d="M421 -20Q267 -19 194 75T121 381V501H275V390Q275 254 303 185T408 110Q479 105 522 147T563 302Q560 374 533 431T462 539T368 636L251 743Q193 799 154 861T115 998Q115 1052 134 1112T217 1221Q168 1288 143
1351T116 1478Q113 1583 148 1650T250 1750T408 1783Q557 1783 624 1685T691 1377V1251H541V1352Q541 1500 512 1576T410 1652Q373 1652 340 1639T286 1593T264 1498Q264 1436 278 1393T328 1305T429 1188L545 1068Q587 1023 616 978T658 883T671 778Q670 744 657
714T627 657T590 602Q651 535 678 456T710 313Q720 165 645 72T421 -20ZM513 682Q524 696 531 720T538 771Q538 832 513 881T434 988T289 1133Q264 1106 255 1079T245 1017Q248 964 285 913T383 805T513 682Z" />
<glyph unicode="&#xa8;" horiz-adv-x="740" d="M495 1640V1785H690V1640H495ZM50 1640V1785H245V1640H50Z" />
<glyph unicode="&#xa9;" horiz-adv-x="1466" d="M735 178Q595 178 479 228T277 370T145 584T98 849Q98 992 145 1113T277 1326T478 1468T735 1519Q875 1519 991 1469T1193 1327T1325 1114T1372 849Q1372 706 1326 584T1194 371T992 229T735 178ZM735 263Q859 263
959 309T1132 437T1242 624T1280 849Q1280 1008 1213 1141T1024 1354T735 1434Q611 1434 511 1388T339 1260T229 1074T190 849Q190 690 257 557T447 343T735 263ZM735 402Q631 402 573 457T514 625V1051Q514 1171 564 1236T739 1301Q840 1301 892 1251T945 1096V965H840V1055Q840
1138 817 1169T735 1201Q673 1201 650 1168T626 1068V625Q626 560 652 528T735 496Q793 496 816 525T840 625V748H949V626Q949 519 903 461T735 402Z" />
<glyph unicode="&#xaa;" horiz-adv-x="810" d="M374 554Q275 554 228 636T179 868V1012Q179 1080 206 1127T281 1208T394 1271T534 1333V1418Q534 1507 529 1562T504 1642T434 1668Q361 1668 343 1609T325 1411V1377H194V1411Q194 1484 200 1551T229 1670T300
1753T434 1783Q546 1783 594 1734T655 1589T667 1357V564H535V658Q526 632 487 593T374 554ZM403 663Q449 663 485 690T534 743V1234Q440 1192 392 1162T327 1093T310 977V877Q310 761 328 712T403 663Z" />
<glyph unicode="&#xab;" horiz-adv-x="1304" d="M1074 402L605 687V806L1074 1077V912L762 749L1074 577V402ZM547 402L78 687V806L547 1077V912L235 749L547 577V402Z" />
<glyph unicode="&#xac;" horiz-adv-x="947" d="M674 439V758H97V891H817V439H674Z" />
<glyph unicode="&#xad;" horiz-adv-x="696" d="M90 611V741H606V611H90Z" />
<glyph unicode="&#xae;" horiz-adv-x="1502" d="M538 442V1294H751Q857 1294 913 1248T969 1087V1069Q969 1002 942 963T855 907Q903 900 931 866T959 780V442H838V752Q838 809 818 831T759 856T661 860V442H538ZM662 949H734Q795 949 823 981T852 1075Q852 1154
815 1178T662 1203V949ZM738 288Q862 288 964 333T1142 458T1257 642T1297 862Q1297 1018 1227 1148T1030 1357T738 1436Q614 1436 512 1391T335 1266T220 1082T179 862Q179 707 249 576T446 367T738 288ZM738 205Q598 205 479 254T270 393T131 602T81 862Q81 1002
130 1121T269 1330T478 1469T738 1519Q878 1519 997 1470T1206 1331T1345 1122T1395 862Q1395 722 1346 603T1207 394T998 255T738 205Z" />
<glyph unicode="&#xaf;" horiz-adv-x="616" d="M50 1640V1762H566V1640H50Z" />
<glyph unicode="&#xb0;" horiz-adv-x="877" d="M438 1114Q352 1114 273 1151T143 1262T92 1448Q92 1560 142 1634T273 1745T438 1783Q525 1783 604 1746T734 1634T785 1448Q785 1337 735 1263T605 1151T438 1114ZM440 1210Q495 1210 546 1236T629 1315T661 1448Q661
1528 629 1581T546 1660T439 1686Q384 1686 333 1660T250 1581T217 1448Q217 1368 249 1315T333 1236T440 1210Z" />
<glyph unicode="&#xb1;" horiz-adv-x="854" d="M364 543V805H136V920H364V1176H490V920H722V805H490V543H364ZM171 239V366H687V239H171Z" />
<glyph unicode="&#xb2;" horiz-adv-x="857" d="M253 439V510Q253 533 271 588T317 716T377 864T437 1004T483 1108T500 1147Q523 1195 538 1276T553 1426Q553 1532 542 1584T511 1655T467 1673Q442 1673 421 1655T387 1582T374 1415V1240H249V1321Q249 1465 261
1566T322 1723T482 1778Q545 1778 583 1746T640 1659T666 1541T673 1412Q673 1305 647 1216T580 1046T497 885T421 718T377 527H655V439H253Z" />
<glyph unicode="&#xb3;" horiz-adv-x="877" d="M437 550Q319 550 271 633T223 886V922H335V885Q335 745 353 694T437 643Q503 643 525 698T548 887Q548 1035 516 1088T408 1142H377V1236H406Q456 1237 486 1251T531 1315T546 1463Q546 1557 531 1603T492 1665T436
1680Q406 1680 385 1663T351 1599T339 1460V1438H227V1462Q227 1617 273 1696T438 1776Q555 1776 606 1696T658 1462Q658 1360 631 1287T538 1188Q603 1159 631 1073T660 885Q660 716 607 633T437 550Z" />
<glyph unicode="&#xb4;" horiz-adv-x="368" d="M50 1640L144 1983H318L131 1640H50Z" />
<glyph unicode="&#xb5;" horiz-adv-x="927" d="M385 -20Q333 -20 277 8T183 105T144 292V1500H309V304Q309 216 346 173T451 130Q529 130 571 180T613 313L611 1500H777V0H613V151Q593 85 534 33T385 -20ZM144 483H309V-265H144V483Z" />
<glyph unicode="&#xb6;" horiz-adv-x="1010" d="M428 0V1168Q272 1185 194 1265T116 1455Q116 1522 135 1578T205 1675T349 1738T590 1760H850V0H714V1608H564V0H428Z" />
<glyph unicode="&#xb7;" horiz-adv-x="480" d="M159 781V965H337V781H159Z" />
<glyph unicode="&#xb8;" horiz-adv-x="467" d="M145 -602Q101 -602 50 -590V-501Q145 -501 194 -481T262 -429T281 -359Q281 -291 232 -250T121 -196L161 0H221L231 -146Q329 -193 373 -255T417 -378Q417 -437 383 -488T287 -570T145 -602Z" />
<glyph unicode="&#xb9;" horiz-adv-x="626" d="M262 434V1577Q236 1545 188 1529T99 1512V1593Q139 1599 179 1619T252 1675T307 1760H386V434H262Z" />
<glyph unicode="&#xba;" horiz-adv-x="886" d="M460 534Q349 534 296 588T228 737T213 957V1366Q213 1480 229 1570T299 1713T460 1766Q569 1766 620 1714T687 1571T703 1366V957Q703 835 689 739T624 589T460 534ZM460 647Q533 647 551 720T570 914V1396Q570
1510 551 1580T460 1651Q383 1651 364 1581T345 1396V914Q345 794 364 721T460 647Z" />
<glyph unicode="&#xbb;" horiz-adv-x="1304" d="M714 402V577L1026 749L714 912V1077L1184 806V687L714 402ZM187 402V577L499 749L187 912V1077L657 806V687L187 402Z" />
<glyph unicode="&#xbc;" horiz-adv-x="1535" d="M483 0L947 1777H1071L605 0H483ZM262 449V1594Q236 1562 189 1546T99 1529V1610Q139 1616 179 1636T253 1692T308 1777H387V449H262ZM1190 0V237H914L910 313L1181 1203H1293V326H1397V237H1293V0H1190ZM1013 326H1190V972L1013
326Z" />
<glyph unicode="&#xbd;" horiz-adv-x="1620" d="M486 0L950 1777H1074L608 0H486ZM262 449V1594Q236 1562 189 1546T99 1529V1610Q139 1616 179 1636T253 1692T308 1777H387V449H262ZM1121 0V72Q1121 121 1137 195T1198 362L1368 710Q1398 772 1410 846T1422 990Q1422
1095 1411 1148T1379 1218T1335 1236Q1310 1236 1289 1219T1255 1146T1242 978V803H1117V884Q1117 1028 1129 1130T1190 1287T1351 1342Q1435 1342 1475 1290T1529 1155T1542 975Q1542 884 1525 808T1469 656L1306 320Q1268 243 1257 181T1244 101H1523V0H1121Z"
/>
<glyph unicode="&#xbe;" horiz-adv-x="1555" d="M540 0L1005 1777H1128L662 0H540ZM353 567Q235 567 187 650T139 904V940H252V904Q252 763 270 712T355 661Q420 661 443 716T466 905Q466 1054 433 1107T325 1161H294V1255H324Q373 1255 404 1270T449 1333T464
1482Q464 1575 450 1622T410 1684T353 1700Q323 1700 301 1682T268 1617T256 1479V1456H143V1481Q143 1636 190 1715T355 1795Q473 1795 524 1716T576 1481Q576 1378 549 1305T457 1206Q522 1177 550 1091T579 903Q579 733 525 650T353 567ZM1247 0V237H971L968
313L1238 1203H1350V326H1454V237H1350V0H1247ZM1070 326H1247V972L1070 326Z" />
<glyph unicode="&#xbf;" horiz-adv-x="748" d="M550 1008V692Q455 659 401 616T323 509T292 355T285 135Q285 -15 300 -79T375 -143Q440 -143 458 -85T476 132V342H628V136Q628 78 626 7T605 -130T533 -238T379 -281Q286 -281 235 -247T162 -150T136 -1T132 192Q132
365 156 480T240 662T410 761V1008H550ZM550 1502V1203H409V1502H550Z" />
<glyph unicode="&#xc0;" horiz-adv-x="843" d="M39 0L318 1760H497L803 0H645L590 355H247L196 0H39ZM267 482H568L412 1464H410L267 482ZM396 1900L209 2243H383L477 1900H396Z" />
<glyph unicode="&#xc1;" horiz-adv-x="843" d="M39 0L318 1760H497L803 0H645L590 355H247L196 0H39ZM267 482H568L412 1464H410L267 482ZM314 1900L408 2243H582L395 1900H314Z" />
<glyph unicode="&#xc2;" horiz-adv-x="843" d="M39 0L318 1760H497L803 0H645L590 355H247L196 0H39ZM267 482H568L412 1464H410L267 482ZM188 1900L318 2165H502L632 1900H496L410 2083L324 1900H188Z" />
<glyph unicode="&#xc3;" horiz-adv-x="843" d="M39 0L318 1760H497L803 0H645L590 355H247L196 0H39ZM267 482H568L412 1464H410L267 482ZM553 1900Q509 1900 463 1920T372 1961T285 1982Q269 1982 262 1980Q246 1976 236 1962T211 1921L113 1968Q133 2036 160
2065T219 2101T284 2108Q325 2108 374 2090T468 2053T538 2035H542Q556 2037 569 2049T598 2107L708 2078L699 2049Q669 1951 637 1926T553 1900Z" />
<glyph unicode="&#xc4;" horiz-adv-x="843" d="M39 0L318 1760H497L803 0H645L590 355H247L196 0H39ZM267 482H568L412 1464H410L267 482ZM536 1900V2045H731V1900H536ZM91 1900V2045H286V1900H91Z" />
<glyph unicode="&#xc5;" horiz-adv-x="843" d="M39 0L318 1760H497L803 0H645L590 355H247L196 0H39ZM267 482H568L412 1464H410L267 482ZM411 1900Q322 1900 278 1950T233 2062Q233 2123 277 2174T411 2225Q500 2225 544 2174T588 2062Q588 2001 544 1951T411
1900ZM411 1957Q462 1957 487 1990T513 2062Q513 2102 488 2135T411 2169Q361 2169 336 2136T311 2062Q311 2023 336 1990T411 1957Z" />
<glyph unicode="&#xc6;" horiz-adv-x="1106" d="M49 0L429 1760H1021V1628H717V964H1003V829H717V133H1020V0H563V361H278L205 0H49ZM308 487H563V1630L543 1629L308 487Z" />
<glyph unicode="&#xc7;" horiz-adv-x="882" d="M454 -20Q325 -20 256 44T160 234T133 541V1251Q133 1364 145 1461T190 1630T289 1742T460 1782Q566 1782 628 1742T719 1630T758 1460T767 1249V1085H602V1262Q602 1449 577 1545T460 1642Q363 1642 331 1546T298
1263V541Q298 389 309 296T355 160T454 117Q547 117 574 215T602 541V697H767V542Q767 361 743 235T651 45T454 -20ZM395 -602Q351 -602 300 -590V-501Q395 -501 444 -481T512 -429T531 -359Q531 -291 482 -250T371 -196L411 0H471L481 -146Q579 -193 623 -255T667
-378Q667 -437 633 -488T537 -570T395 -602Z" />
<glyph unicode="&#xc8;" horiz-adv-x="727" d="M160 0V1760H642V1628H325V964H623V829H325V133H641V0H160ZM385 1900L198 2243H372L466 1900H385Z" />
<glyph unicode="&#xc9;" horiz-adv-x="727" d="M160 0V1760H642V1628H325V964H623V829H325V133H641V0H160ZM303 1900L397 2243H571L384 1900H303Z" />
<glyph unicode="&#xca;" horiz-adv-x="727" d="M160 0V1760H642V1628H325V964H623V829H325V133H641V0H160ZM177 1900L307 2165H491L621 1900H485L399 2083L313 1900H177Z" />
<glyph unicode="&#xcb;" horiz-adv-x="727" d="M160 0V1760H642V1628H325V964H623V829H325V133H641V0H160ZM525 1900V2045H720V1900H525ZM80 1900V2045H275V1900H80Z" />
<glyph unicode="&#xcc;" horiz-adv-x="488" d="M161 0V1760H326V0H161ZM230 1900L43 2243H217L311 1900H230Z" />
<glyph unicode="&#xcd;" horiz-adv-x="488" d="M161 0V1760H326V0H161ZM148 1900L242 2243H416L229 1900H148Z" />
<glyph unicode="&#xce;" horiz-adv-x="488" d="M161 0V1760H326V0H161ZM22 1900L152 2165H336L466 1900H330L244 2083L158 1900H22Z" />
<glyph unicode="&#xcf;" horiz-adv-x="488" d="M161 0V1760H326V0H161ZM369 1900V2045H564V1900H369ZM-76 1900V2045H119V1900H-76Z" />
<glyph unicode="&#xd0;" horiz-adv-x="925" d="M160 0V1760H448Q589 1760 663 1700T764 1528T792 1265V505Q792 324 758 213T647 51T441 0H160ZM324 139H442Q505 139 546 167T607 275T627 507V1278Q627 1465 584 1545T449 1625H324V139ZM34 834V925H510V834H34Z" />
<glyph unicode="&#xd1;" horiz-adv-x="992" d="M160 0V1760H278L704 444L687 1023V1760H832V0H706L303 1293L314 826V0H160ZM638 1900Q594 1900 548 1920T457 1961T370 1982Q354 1982 347 1980Q331 1976 321 1962T296 1921L198 1968Q218 2036 245 2065T304 2101T369
2108Q410 2108 459 2090T553 2053T623 2035H627Q641 2037 654 2049T683 2107L793 2078L784 2049Q754 1951 722 1926T638 1900Z" />
<glyph unicode="&#xd2;" horiz-adv-x="906" d="M454 -20Q326 -20 256 38T160 215T133 515V1272Q133 1424 156 1539T250 1718T461 1783Q567 1783 629 1746T723 1641T763 1480T773 1272V515Q773 334 747 215T653 38T454 -20ZM454 118Q517 118 550 153T595 276T608
515V1284Q608 1472 581 1557T461 1643Q365 1643 332 1557T298 1285V515Q298 362 310 276T356 154T454 118ZM439 1900L252 2243H426L520 1900H439Z" />
<glyph unicode="&#xd3;" horiz-adv-x="906" d="M454 -20Q326 -20 256 38T160 215T133 515V1272Q133 1424 156 1539T250 1718T461 1783Q567 1783 629 1746T723 1641T763 1480T773 1272V515Q773 334 747 215T653 38T454 -20ZM454 118Q517 118 550 153T595 276T608
515V1284Q608 1472 581 1557T461 1643Q365 1643 332 1557T298 1285V515Q298 362 310 276T356 154T454 118ZM357 1900L451 2243H625L438 1900H357Z" />
<glyph unicode="&#xd4;" horiz-adv-x="906" d="M454 -20Q326 -20 256 38T160 215T133 515V1272Q133 1424 156 1539T250 1718T461 1783Q567 1783 629 1746T723 1641T763 1480T773 1272V515Q773 334 747 215T653 38T454 -20ZM454 118Q517 118 550 153T595 276T608
515V1284Q608 1472 581 1557T461 1643Q365 1643 332 1557T298 1285V515Q298 362 310 276T356 154T454 118ZM231 1900L361 2165H545L675 1900H539L453 2083L367 1900H231Z" />
<glyph unicode="&#xd5;" horiz-adv-x="906" d="M454 -20Q326 -20 256 38T160 215T133 515V1272Q133 1424 156 1539T250 1718T461 1783Q567 1783 629 1746T723 1641T763 1480T773 1272V515Q773 334 747 215T653 38T454 -20ZM454 118Q517 118 550 153T595 276T608
515V1284Q608 1472 581 1557T461 1643Q365 1643 332 1557T298 1285V515Q298 362 310 276T356 154T454 118ZM595 1900Q551 1900 505 1920T414 1961T327 1982Q311 1982 304 1980Q288 1976 278 1962T253 1921L155 1968Q175 2036 202 2065T261 2101T326 2108Q367 2108
416 2090T510 2053T580 2035H584Q598 2037 611 2049T640 2107L750 2078L741 2049Q711 1951 679 1926T595 1900Z" />
<glyph unicode="&#xd6;" horiz-adv-x="906" d="M454 -20Q326 -20 256 38T160 215T133 515V1272Q133 1424 156 1539T250 1718T461 1783Q567 1783 629 1746T723 1641T763 1480T773 1272V515Q773 334 747 215T653 38T454 -20ZM454 118Q517 118 550 153T595 276T608
515V1284Q608 1472 581 1557T461 1643Q365 1643 332 1557T298 1285V515Q298 362 310 276T356 154T454 118ZM578 1900V2045H773V1900H578ZM133 1900V2045H328V1900H133Z" />
<glyph unicode="&#xd7;" horiz-adv-x="710" d="M170 388L82 478L266 662L82 846L170 936L355 751L540 936L628 846L444 662L628 478L540 388L355 574L170 388Z" />
<glyph unicode="&#xd8;" horiz-adv-x="893" d="M233 -220L163 -195L704 1942L782 1921L233 -220ZM454 -20Q326 -20 256 38T160 215T133 515V1272Q133 1424 156 1539T250 1718T461 1783Q567 1783 629 1746T723 1641T763 1480T773 1272V515Q773 334 747 215T653
38T454 -20ZM454 118Q517 118 550 153T595 276T608 515V1284Q608 1472 581 1557T461 1643Q365 1643 332 1557T298 1285V515Q298 362 310 276T356 154T454 118Z" />
<glyph unicode="&#xd9;" horiz-adv-x="926" d="M465 -20Q339 -20 269 31T171 187T143 452V1760H308V457Q308 348 316 272T357 156T465 116Q541 116 573 156T611 271T618 456V1760H783V452Q783 292 756 188T660 32T465 -20ZM449 1900L262 2243H436L530 1900H449Z" />
<glyph unicode="&#xda;" horiz-adv-x="926" d="M465 -20Q339 -20 269 31T171 187T143 452V1760H308V457Q308 348 316 272T357 156T465 116Q541 116 573 156T611 271T618 456V1760H783V452Q783 292 756 188T660 32T465 -20ZM367 1900L461 2243H635L448 1900H367Z" />
<glyph unicode="&#xdb;" horiz-adv-x="926" d="M465 -20Q339 -20 269 31T171 187T143 452V1760H308V457Q308 348 316 272T357 156T465 116Q541 116 573 156T611 271T618 456V1760H783V452Q783 292 756 188T660 32T465 -20ZM241 1900L371 2165H555L685 1900H549L463
2083L377 1900H241Z" />
<glyph unicode="&#xdc;" horiz-adv-x="926" d="M465 -20Q339 -20 269 31T171 187T143 452V1760H308V457Q308 348 316 272T357 156T465 116Q541 116 573 156T611 271T618 456V1760H783V452Q783 292 756 188T660 32T465 -20ZM588 1900V2045H783V1900H588ZM143 1900V2045H338V1900H143Z"
/>
<glyph unicode="&#xdd;" horiz-adv-x="797" d="M330 0V763L16 1760H181L412 999H415L613 1760H782L495 764V0H330ZM302 1900L396 2243H570L383 1900H302Z" />
<glyph unicode="&#xde;" horiz-adv-x="882" d="M165 0V1760H330V1525H484Q590 1525 652 1489T746 1384T786 1223T796 1016V995Q796 813 770 694T676 515T477 455H330V0H165ZM330 594H480Q542 594 574 631T619 755T632 994V1029Q632 1215 605 1302T485 1390H330V594Z" />
<glyph unicode="&#xdf;" horiz-adv-x="946" d="M153 0V1417Q153 1508 161 1576T197 1690T285 1759T452 1782Q586 1782 659 1750T762 1638T791 1417V1220Q791 1135 776 1082T725 998T623 945Q711 924 760 882T830 762T851 553V476Q851 364 843 276T804 126T709
32T531 0H427V119Q543 119 598 140T670 221T688 395V656Q688 777 635 827T436 878V1003Q545 1003 588 1040T632 1170V1492Q632 1596 597 1633T464 1670Q383 1670 350 1633T316 1492V0H153Z" />
<glyph unicode="&#xe0;" horiz-adv-x="860" d="M367 -12Q243 -12 183 90T123 379V558Q123 644 156 702T250 803T391 882T566 957V1063Q566 1173 560 1242T528 1343T440 1376Q380 1376 352 1344T315 1242T306 1055V1014H141V1055Q141 1147 149 1230T186 1378T275
1480T441 1518Q546 1518 605 1484T691 1382T724 1216T731 988V0H566V117Q559 96 536 65T470 11T367 -12ZM403 124Q460 124 505 158T566 223V834Q477 794 422 765T338 705T298 630T287 515V390Q287 247 310 186T403 124ZM416 1640L229 1983H403L497 1640H416Z" />
<glyph unicode="&#xe1;" horiz-adv-x="860" d="M367 -12Q243 -12 183 90T123 379V558Q123 644 156 702T250 803T391 882T566 957V1063Q566 1173 560 1242T528 1343T440 1376Q380 1376 352 1344T315 1242T306 1055V1014H141V1055Q141 1147 149 1230T186 1378T275
1480T441 1518Q546 1518 605 1484T691 1382T724 1216T731 988V0H566V117Q559 96 536 65T470 11T367 -12ZM403 124Q460 124 505 158T566 223V834Q477 794 422 765T338 705T298 630T287 515V390Q287 247 310 186T403 124ZM333 1640L427 1983H601L414 1640H333Z" />
<glyph unicode="&#xe2;" horiz-adv-x="860" d="M367 -12Q243 -12 183 90T123 379V558Q123 644 156 702T250 803T391 882T566 957V1063Q566 1173 560 1242T528 1343T440 1376Q380 1376 352 1344T315 1242T306 1055V1014H141V1055Q141 1147 149 1230T186 1378T275
1480T441 1518Q546 1518 605 1484T691 1382T724 1216T731 988V0H566V117Q559 96 536 65T470 11T367 -12ZM403 124Q460 124 505 158T566 223V834Q477 794 422 765T338 705T298 630T287 515V390Q287 247 310 186T403 124ZM208 1640L338 1905H522L652 1640H516L430
1823L344 1640H208Z" />
<glyph unicode="&#xe3;" horiz-adv-x="860" d="M367 -12Q243 -12 183 90T123 379V558Q123 644 156 702T250 803T391 882T566 957V1063Q566 1173 560 1242T528 1343T440 1376Q380 1376 352 1344T315 1242T306 1055V1014H141V1055Q141 1147 149 1230T186 1378T275
1480T441 1518Q546 1518 605 1484T691 1382T724 1216T731 988V0H566V117Q559 96 536 65T470 11T367 -12ZM403 124Q460 124 505 158T566 223V834Q477 794 422 765T338 705T298 630T287 515V390Q287 247 310 186T403 124ZM572 1640Q528 1640 482 1660T391 1701T304
1722Q288 1722 281 1720Q265 1716 255 1702T230 1661L132 1708Q152 1776 179 1805T238 1841T303 1848Q344 1848 393 1830T487 1793T557 1775H561Q575 1777 588 1789T617 1847L727 1818L718 1789Q688 1691 656 1666T572 1640Z" />
<glyph unicode="&#xe4;" horiz-adv-x="860" d="M367 -12Q243 -12 183 90T123 379V558Q123 644 156 702T250 803T391 882T566 957V1063Q566 1173 560 1242T528 1343T440 1376Q380 1376 352 1344T315 1242T306 1055V1014H141V1055Q141 1147 149 1230T186 1378T275
1480T441 1518Q546 1518 605 1484T691 1382T724 1216T731 988V0H566V117Q559 96 536 65T470 11T367 -12ZM403 124Q460 124 505 158T566 223V834Q477 794 422 765T338 705T298 630T287 515V390Q287 247 310 186T403 124ZM555 1640V1785H750V1640H555ZM110 1640V1785H305V1640H110Z"
/>
<glyph unicode="&#xe5;" horiz-adv-x="860" d="M367 -12Q243 -12 183 90T123 379V558Q123 644 156 702T250 803T391 882T566 957V1063Q566 1173 560 1242T528 1343T440 1376Q380 1376 352 1344T315 1242T306 1055V1014H141V1055Q141 1147 149 1230T186 1378T275
1480T441 1518Q546 1518 605 1484T691 1382T724 1216T731 988V0H566V117Q559 96 536 65T470 11T367 -12ZM403 124Q460 124 505 158T566 223V834Q477 794 422 765T338 705T298 630T287 515V390Q287 247 310 186T403 124ZM430 1640Q341 1640 297 1690T252 1802Q252
1863 296 1914T430 1965Q519 1965 563 1914T607 1802Q607 1741 563 1691T430 1640ZM430 1697Q481 1697 506 1730T532 1802Q532 1842 507 1875T430 1909Q380 1909 355 1876T330 1802Q330 1763 355 1730T430 1697Z" />
<glyph unicode="&#xe6;" horiz-adv-x="1269" d="M871 -18Q776 -18 718 14T626 106Q603 82 561 55T468 8T369 -12Q244 -12 186 90T127 379V558Q127 644 161 702T255 803T397 881T572 958V1064Q572 1175 565 1243T532 1344T443 1377Q383 1377 355 1345T319 1241T310
1055V1014H145V1055Q145 1147 153 1230T189 1378T278 1480T445 1518Q531 1518 580 1495T653 1425Q688 1470 743 1494T878 1518Q980 1518 1037 1480T1121 1372T1155 1210T1162 1009V750H734V447Q734 338 742 267T779 160T872 124Q932 124 958 162T991 271T998 442V558H1158V504Q1158
390 1152 295T1120 129T1036 20T871 -18ZM406 123Q464 123 510 157T571 224V835Q482 795 427 766T343 705T302 629T291 515V390Q291 246 314 185T406 123ZM734 878H998V1069Q998 1169 993 1237T963 1341T878 1376Q814 1376 784 1337T744 1227T734 1062V878Z" />
<glyph unicode="&#xe7;" horiz-adv-x="824" d="M429 -18Q325 -18 264 20T174 129T136 296T127 510V1022Q127 1162 148 1274T235 1452T436 1518Q537 1518 595 1483T679 1383T713 1227T721 1029V966H556V1069Q556 1169 551 1235T521 1336T436 1370Q372 1370 342
1332T302 1225T292 1061V449Q292 340 300 269T337 164T429 130Q490 130 516 167T549 274T556 444V566H721V506Q721 391 714 295T681 129T595 21T429 -18ZM366 -602Q322 -602 271 -590V-501Q366 -501 415 -481T483 -429T502 -359Q502 -291 453 -250T342 -196L382
0H442L452 -146Q550 -193 594 -255T638 -378Q638 -437 604 -488T508 -570T366 -602Z" />
<glyph unicode="&#xe8;" horiz-adv-x="824" d="M430 -18Q326 -18 265 20T174 128T136 296T127 509V1020Q127 1126 137 1216T179 1375T272 1480T435 1518Q537 1518 595 1480T679 1372T713 1210T720 1009V750H292V448Q292 285 313 205T429 124Q490 124 516 162T549
272T556 443V558H716V505Q716 390 710 295T679 129T594 21T430 -18ZM291 878H556V1069Q556 1169 551 1237T521 1341T436 1376Q373 1376 342 1337T301 1228T291 1062V878ZM398 1640L211 1983H385L479 1640H398Z" />
<glyph unicode="&#xe9;" horiz-adv-x="824" d="M430 -18Q326 -18 265 20T174 128T136 296T127 509V1020Q127 1126 137 1216T179 1375T272 1480T435 1518Q537 1518 595 1480T679 1372T713 1210T720 1009V750H292V448Q292 285 313 205T429 124Q490 124 516 162T549
272T556 443V558H716V505Q716 390 710 295T679 129T594 21T430 -18ZM291 878H556V1069Q556 1169 551 1237T521 1341T436 1376Q373 1376 342 1337T301 1228T291 1062V878ZM315 1640L409 1983H583L396 1640H315Z" />
<glyph unicode="&#xea;" horiz-adv-x="824" d="M430 -18Q326 -18 265 20T174 128T136 296T127 509V1020Q127 1126 137 1216T179 1375T272 1480T435 1518Q537 1518 595 1480T679 1372T713 1210T720 1009V750H292V448Q292 285 313 205T429 124Q490 124 516 162T549
272T556 443V558H716V505Q716 390 710 295T679 129T594 21T430 -18ZM291 878H556V1069Q556 1169 551 1237T521 1341T436 1376Q373 1376 342 1337T301 1228T291 1062V878ZM190 1640L320 1905H504L634 1640H498L412 1823L326 1640H190Z" />
<glyph unicode="&#xeb;" horiz-adv-x="824" d="M430 -18Q326 -18 265 20T174 128T136 296T127 509V1020Q127 1126 137 1216T179 1375T272 1480T435 1518Q537 1518 595 1480T679 1372T713 1210T720 1009V750H292V448Q292 285 313 205T429 124Q490 124 516 162T549
272T556 443V558H716V505Q716 390 710 295T679 129T594 21T430 -18ZM291 878H556V1069Q556 1169 551 1237T521 1341T436 1376Q373 1376 342 1337T301 1228T291 1062V878ZM537 1640V1785H732V1640H537ZM92 1640V1785H287V1640H92Z" />
<glyph unicode="&#xec;" horiz-adv-x="482" d="M158 0V1500H324V0H158ZM483 1640L296 1983H470L564 1640H483Z" />
<glyph unicode="&#xed;" horiz-adv-x="482" d="M158 0V1500H324V0H158ZM144 1640L238 1983H412L225 1640H144Z" />
<glyph unicode="&#xee;" horiz-adv-x="482" d="M158 0V1500H324V0H158ZM275 1640L405 1905H589L719 1640H583L497 1823L411 1640H275Z" />
<glyph unicode="&#xef;" horiz-adv-x="482" d="M158 0V1500H324V0H158ZM366 1640V1785H561V1640H366ZM-79 1640V1785H116V1640H-79Z" />
<glyph unicode="&#xf0;" horiz-adv-x="926" d="M439 -20Q309 -20 238 34T138 192T109 448V561Q109 758 138 879T238 1054T434 1102Q480 1101 531 1079T615 1013Q615 1015 614 1053T611 1147T606 1263T599 1367T590 1427L367 1294L313 1399L533 1530Q480 1592 413
1615T290 1639L309 1780Q421 1780 517 1741T679 1617L879 1735L934 1630L738 1514Q746 1493 752 1439T764 1313T772 1168T777 1034T779 944V509Q779 358 753 239T653 50T439 -20ZM439 121Q547 121 581 211T615 498V906Q602 914 552 939T433 964Q368 964 334 926T287
797T274 554V444Q274 314 288 244T339 147T439 121Z" />
<glyph unicode="&#xf1;" horiz-adv-x="933" d="M155 0V1500H320V1350Q340 1415 406 1467T562 1519Q663 1519 725 1444T788 1207V0H623V1215Q623 1304 583 1340T483 1376Q442 1376 405 1361T344 1310T320 1208V0H155ZM609 1640Q565 1640 519 1660T428 1701T341
1722Q325 1722 318 1720Q302 1716 292 1702T267 1661L169 1708Q189 1776 216 1805T275 1841T340 1848Q381 1848 430 1830T524 1793T594 1775H598Q612 1777 625 1789T654 1847L764 1818L755 1789Q725 1691 693 1666T609 1640Z" />
<glyph unicode="&#xf2;" horiz-adv-x="864" d="M435 -18Q331 -18 269 20T177 129T137 296T127 510V1020Q127 1161 148 1274T235 1452T435 1518Q536 1518 597 1481T688 1376T727 1217T737 1020V510Q737 395 729 299T691 131T602 21T435 -18ZM435 124Q495 124 524
166T563 282T572 456V1057Q572 1152 563 1223T525 1335T435 1376Q371 1376 340 1336T301 1224T292 1057V456Q292 357 301 283T341 166T435 124ZM418 1640L231 1983H405L499 1640H418Z" />
<glyph unicode="&#xf3;" horiz-adv-x="864" d="M435 -18Q331 -18 269 20T177 129T137 296T127 510V1020Q127 1161 148 1274T235 1452T435 1518Q536 1518 597 1481T688 1376T727 1217T737 1020V510Q737 395 729 299T691 131T602 21T435 -18ZM435 124Q495 124 524
166T563 282T572 456V1057Q572 1152 563 1223T525 1335T435 1376Q371 1376 340 1336T301 1224T292 1057V456Q292 357 301 283T341 166T435 124ZM336 1640L430 1983H604L417 1640H336Z" />
<glyph unicode="&#xf4;" horiz-adv-x="864" d="M435 -18Q331 -18 269 20T177 129T137 296T127 510V1020Q127 1161 148 1274T235 1452T435 1518Q536 1518 597 1481T688 1376T727 1217T737 1020V510Q737 395 729 299T691 131T602 21T435 -18ZM435 124Q495 124 524
166T563 282T572 456V1057Q572 1152 563 1223T525 1335T435 1376Q371 1376 340 1336T301 1224T292 1057V456Q292 357 301 283T341 166T435 124ZM210 1640L340 1905H524L654 1640H518L432 1823L346 1640H210Z" />
<glyph unicode="&#xf5;" horiz-adv-x="864" d="M435 -18Q331 -18 269 20T177 129T137 296T127 510V1020Q127 1161 148 1274T235 1452T435 1518Q536 1518 597 1481T688 1376T727 1217T737 1020V510Q737 395 729 299T691 131T602 21T435 -18ZM435 124Q495 124 524
166T563 282T572 456V1057Q572 1152 563 1223T525 1335T435 1376Q371 1376 340 1336T301 1224T292 1057V456Q292 357 301 283T341 166T435 124ZM575 1640Q531 1640 485 1660T394 1701T307 1722Q291 1722 284 1720Q268 1716 258 1702T233 1661L135 1708Q155 1776
182 1805T241 1841T306 1848Q347 1848 396 1830T490 1793T560 1775H564Q578 1777 591 1789T620 1847L730 1818L721 1789Q691 1691 659 1666T575 1640Z" />
<glyph unicode="&#xf6;" horiz-adv-x="864" d="M435 -18Q331 -18 269 20T177 129T137 296T127 510V1020Q127 1161 148 1274T235 1452T435 1518Q536 1518 597 1481T688 1376T727 1217T737 1020V510Q737 395 729 299T691 131T602 21T435 -18ZM435 124Q495 124 524
166T563 282T572 456V1057Q572 1152 563 1223T525 1335T435 1376Q371 1376 340 1336T301 1224T292 1057V456Q292 357 301 283T341 166T435 124ZM557 1640V1785H752V1640H557ZM112 1640V1785H307V1640H112Z" />
<glyph unicode="&#xf7;" horiz-adv-x="804" d="M94 698V827H710V698H94ZM332 291V524H479V291H332ZM332 987V1213H479V987H332Z" />
<glyph unicode="&#xf8;" horiz-adv-x="854" d="M277 -209L205 -196L590 1726L662 1712L277 -209ZM435 -18Q331 -18 269 20T177 129T137 296T127 510V1020Q127 1161 148 1274T235 1452T435 1518Q536 1518 597 1481T688 1376T727 1217T737 1020V510Q737 395 729
299T691 131T602 21T435 -18ZM435 124Q495 124 524 166T563 282T572 456V1057Q572 1152 563 1223T525 1335T435 1376Q371 1376 340 1336T301 1224T292 1057V456Q292 357 301 283T341 166T435 124Z" />
<glyph unicode="&#xf9;" horiz-adv-x="927" d="M385 -20Q333 -20 277 8T183 105T144 292V1500H309V304Q309 216 346 173T451 130Q529 130 571 180T613 313L611 1500H777V0H613V151Q593 85 534 33T385 -20ZM449 1640L262 1983H436L530 1640H449Z" />
<glyph unicode="&#xfa;" horiz-adv-x="927" d="M385 -20Q333 -20 277 8T183 105T144 292V1500H309V304Q309 216 346 173T451 130Q529 130 571 180T613 313L611 1500H777V0H613V151Q593 85 534 33T385 -20ZM367 1640L461 1983H635L448 1640H367Z" />
<glyph unicode="&#xfb;" horiz-adv-x="927" d="M385 -20Q333 -20 277 8T183 105T144 292V1500H309V304Q309 216 346 173T451 130Q529 130 571 180T613 313L611 1500H777V0H613V151Q593 85 534 33T385 -20ZM241 1640L371 1905H555L685 1640H549L463 1823L377 1640H241Z" />
<glyph unicode="&#xfc;" horiz-adv-x="927" d="M385 -20Q333 -20 277 8T183 105T144 292V1500H309V304Q309 216 346 173T451 130Q529 130 571 180T613 313L611 1500H777V0H613V151Q593 85 534 33T385 -20ZM589 1640V1785H784V1640H589ZM144 1640V1785H339V1640H144Z" />
<glyph unicode="&#xfd;" horiz-adv-x="756" d="M125 -242V-106H184Q227 -106 262 -103T305 -92Q321 -75 318 -40T308 42L59 1500H223L339 711L386 303H400L442 711L546 1500H709L467 -6Q454 -93 438 -145T384 -219T270 -242H125ZM282 1640L376 1983H550L363 1640H282Z" />
<glyph unicode="&#xfe;" horiz-adv-x="893" d="M156 -267V1782H322V1382Q353 1456 408 1484T523 1512Q628 1512 679 1447T748 1271T766 1018V478Q766 338 744 226T661 48T486 -17Q431 -17 387 19T322 106V-267H156ZM468 120Q549 121 574 203T600 466V1063Q600
1157 593 1227T559 1336T475 1375Q427 1375 393 1355T341 1267T322 1061V460Q322 288 349 204T468 120Z" />
<glyph unicode="&#xff;" horiz-adv-x="756" d="M125 -242V-106H184Q227 -106 262 -103T305 -92Q321 -75 318 -40T308 42L59 1500H223L339 711L386 303H400L442 711L546 1500H709L467 -6Q454 -93 438 -145T384 -219T270 -242H125ZM503 1640V1785H698V1640H503ZM58
1640V1785H253V1640H58Z" />
<glyph unicode="&#x2013;" horiz-adv-x="756" d="M120 605V741H636V605H120Z" />
<glyph unicode="&#x2014;" horiz-adv-x="1153" d="M89 610V741H1063V610H89Z" />
<glyph unicode="&#x2018;" horiz-adv-x="595" d="M161 1145V1348L277 1777H390L298 1357H442V1145H161Z" />
<glyph unicode="&#x2019;" horiz-adv-x="595" d="M233 1145L324 1563H181V1777H462V1572L345 1145H233Z" />
<glyph unicode="&#x201a;" horiz-adv-x="484" d="M162 -422L253 0H109V214H391V9L273 -422H162Z" />
<glyph unicode="&#x201c;" horiz-adv-x="1030" d="M621 1143V1347L739 1777H850L759 1356H903V1143H621ZM171 1143V1347L289 1777H401L309 1356H454V1143H171Z" />
<glyph unicode="&#x201d;" horiz-adv-x="1077" d="M688 1142L779 1562H636V1777H918V1571L800 1142H688ZM239 1142L331 1562H186V1777H468V1571L350 1142H239Z" />
<glyph unicode="&#x201e;" horiz-adv-x="1016" d="M679 -421L771 0H626V213H909V9L790 -421H679ZM230 -421L321 0H177V213H459V9L341 -421H230Z" />
<glyph unicode="&#x2022;" horiz-adv-x="861" d="M430 591Q326 591 273 651T219 828Q219 944 272 1004T430 1064Q535 1064 588 1004T642 828Q642 712 589 652T430 591Z" />
<glyph unicode="&#x2039;" horiz-adv-x="606" d="M548 402L79 687V806L548 1077V912L236 749L548 577V402Z" />
<glyph unicode="&#x203a;" horiz-adv-x="727" d="M162 402V577L474 749L162 912V1077L632 806V687L162 402Z" />
</font>
</defs>
</svg>
