<?xml version="1.0" standalone="no"?>
<!DOCTYPE svg PUBLIC "-//W3C//DTD SVG 1.1//EN" "http://www.w3.org/Graphics/SVG/1.1/DTD/svg11.dtd">
<svg xmlns="http://www.w3.org/2000/svg">
<defs >
<font id="Antonio" horiz-adv-x="887" ><font-face
    font-family="Antonio SemiBold"
    units-per-em="2048"
    panose-1="0 0 0 0 0 0 0 0 0 0"
    ascent="2365"
    descent="-285"
    alphabetic="0" />
<glyph unicode=" " horiz-adv-x="441" />
<glyph unicode="!" horiz-adv-x="522" d="M214 407L133 1760H389L309 407H214ZM141 0V240H378V0H141Z" />
<glyph unicode="&quot;" horiz-adv-x="827" d="M385 1086L355 1760H568L471 1086H385ZM346 1086L317 1760H529L432 1086H346Z" />
<glyph unicode="#" horiz-adv-x="1035" d="M126 0L223 606H81V732H244L297 1059H129V1184H318L414 1760H584L488 1184H664L760 1760H931L837 1184H976V1059H815L763 732H927V606H742L644 0H473L570 606H393L297 0H126ZM413 731H592L644 1055H467L413 731Z" />
<glyph unicode="$" horiz-adv-x="845" d="M381 -235V42H505V-235H381ZM369 1493V1760H493V1493H369ZM433 -5Q264 -5 179 97T94 432V538H314V422Q314 308 340 248T425 188Q483 188 511 226T539 362Q539 414 524 464T476 563T394 659L275 769Q181 857 133 957T85
1174Q85 1360 172 1446T421 1533Q527 1533 598 1490T706 1347T742 1079V1003H530V1105Q530 1219 506 1279T423 1340Q365 1340 337 1307T306 1188Q305 1144 317 1099T358 1011T430 927L553 814Q661 715 714 604T768 368Q768 190 687 93T433 -5Z" />
<glyph unicode="%" horiz-adv-x="2191" d="M656 0L1355 1760H1539L849 0H656ZM473 581Q356 581 286 623T183 760T151 1007V1364Q151 1516 182 1608T283 1741T473 1782Q592 1782 662 1741T764 1608T795 1364V1007Q795 854 763 760T661 624T473 581ZM473 753Q542
753 567 795T592 938V1432Q592 1531 568 1570T473 1610Q402 1610 378 1570T353 1432V938Q353 838 378 796T473 753ZM1711 -20Q1595 -20 1524 22T1421 159T1389 406V763Q1389 915 1420 1007T1521 1140T1711 1181Q1831 1181 1901 1140T2002 1007T2033 763V406Q2033
253 2002 159T1899 23T1711 -20ZM1711 152Q1780 152 1805 194T1831 337V831Q1831 930 1807 969T1711 1009Q1641 1009 1617 969T1592 831V337Q1592 237 1617 195T1711 152Z" />
<glyph unicode="&amp;" horiz-adv-x="997" d="M382 -20Q246 -20 159 74T71 354Q71 472 109 572T210 762T341 934Q279 1093 238 1227T196 1433Q196 1603 279 1692T502 1782Q606 1782 671 1741T766 1621T797 1432Q797 1337 764 1247T679 1071T566 908L712 552Q748
619 792 689T892 829L988 667Q928 595 883 512T799 345L954 0H745L674 153Q640 102 600 63T506 2T382 -20ZM417 179Q453 179 481 200T534 259T587 351L422 743Q382 687 350 629T299 512T277 393Q273 291 305 235T417 179ZM492 1102Q550 1180 587 1265T625 1437Q625
1528 604 1569T519 1610Q479 1610 456 1594T422 1551T409 1494T406 1436Q406 1391 429 1301T492 1102Z" />
<glyph unicode="&apos;" horiz-adv-x="417" d="M167 1125L107 1760H321L256 1125H167Z" />
<glyph unicode="(" horiz-adv-x="585" d="M501 -198Q396 -198 325 -180T212 -115T151 18T132 240V1361Q132 1497 150 1583T211 1716T325 1781T501 1799V1625Q456 1625 429 1617T387 1582T367 1504T362 1365V236Q362 150 367 98T386 20T428 -15T501 -24V-198Z" />
<glyph unicode=")" horiz-adv-x="585" d="M84 -198V-24Q129 -24 156 -16T198 19T218 98T223 236V1365Q223 1452 218 1503T199 1581T157 1616T84 1625V1799Q189 1799 260 1782T373 1717T434 1583T453 1361V240Q453 104 435 18T374 -115T260 -180T84 -198Z" />
<glyph unicode="*" horiz-adv-x="910" d="M369 966L401 1252L173 1074L86 1224L340 1349L81 1466L168 1615L400 1445L369 1724H541L515 1449L742 1621L829 1472L569 1349L829 1218L742 1068L515 1247L541 966H369Z" />
<glyph unicode="+" horiz-adv-x="733" d="M284 468V711H63V866H284V1106H447V866H670V711H447V468H284Z" />
<glyph unicode="," horiz-adv-x="473" d="M171 -341L243 0H118V249H389V9L287 -341H171Z" />
<glyph unicode="-" horiz-adv-x="696" d="M88 720V878H551V720H88Z" />
<glyph unicode="." horiz-adv-x="532" d="M162 0V218H358V0H162Z" />
<glyph unicode="/" horiz-adv-x="770" d="M67 0L501 1768H706L271 0H67Z" />
<glyph unicode="0" horiz-adv-x="919" d="M461 -21Q317 -21 243 38T142 208T115 475V1316Q115 1468 143 1571T245 1727T461 1780Q602 1780 675 1727T774 1571T800 1316V475Q800 358 787 266T739 110T636 13T461 -21ZM459 177Q488 177 510 185T546 222T567 310T574
470V1327Q574 1446 560 1499T520 1567T459 1582Q425 1582 399 1569T357 1502T341 1328V470Q341 368 347 310T369 223T406 186T459 177Z" />
<glyph unicode="1" horiz-adv-x="780" d="M337 0V1460Q313 1432 269 1410T176 1375T90 1362V1541Q143 1549 203 1575T316 1648T397 1760H569V0H337Z" />
<glyph unicode="2" horiz-adv-x="894" d="M168 0V101Q168 199 186 286T245 465T351 671L519 959Q539 995 553 1033T577 1115T590 1206T594 1307Q594 1422 584 1481T551 1560T491 1581Q454 1581 429 1561T391 1479T378 1291V1065H153V1182Q153 1372 175 1505T272
1709T503 1779Q623 1779 691 1715T786 1542T814 1293Q814 1208 802 1135T765 994T704 862L543 574Q497 491 467 430T419 310T394 178H785V0H168Z" />
<glyph unicode="3" horiz-adv-x="898" d="M446 -20Q255 -20 181 99T107 468V567H325V469Q325 363 333 299T369 207T452 178Q508 178 535 211T572 314T582 494Q582 620 568 695T518 803T413 836H353V1017H411Q477 1017 514 1043T566 1135T581 1318Q581 1427 567
1483T524 1560T455 1581Q412 1581 385 1557T346 1474T333 1315V1269H110V1324Q110 1556 185 1667T452 1779Q641 1779 724 1664T808 1318Q808 1175 766 1072T629 933Q696 902 736 838T794 686T812 493Q812 238 729 109T446 -20Z" />
<glyph unicode="4" horiz-adv-x="894" d="M508 0V323H85V490L474 1760H718V509H859V323H718V0H508ZM270 509H508V1405L270 509Z" />
<glyph unicode="5" horiz-adv-x="894" d="M459 -20Q339 -20 268 25T165 148T134 327V533H356V338Q356 269 375 223T459 177Q516 177 539 219T563 349V843Q563 938 543 990T461 1043Q411 1043 382 999T352 863L149 881V1760H743V1551H363V1163Q380 1198 426 1218T526
1238Q620 1238 677 1185T761 1006T787 668V630Q787 468 778 346T738 142T641 21T459 -20Z" />
<glyph unicode="6" horiz-adv-x="894" d="M476 -21Q362 -21 291 15T182 119T129 286T115 508V1241Q115 1435 148 1553T260 1726T472 1780Q585 1780 654 1737T755 1595T788 1332V1246H577V1291Q577 1412 569 1474T535 1559T457 1581Q402 1581 378 1548T348 1444T341
1257V1033Q369 1062 416 1080T520 1099Q641 1100 705 1041T794 864T819 571V497Q819 337 794 221T696 42T476 -21ZM473 180Q527 180 554 205T591 288T601 444V590Q601 706 593 775T557 876T478 907Q442 907 411 895T362 866T341 840V460Q341 362 352 300T392 209T473
180Z" />
<glyph unicode="7" horiz-adv-x="894" d="M207 0Q225 241 266 453T361 850T466 1191Q516 1355 553 1452T593 1562H92V1760H826V1592Q820 1541 768 1411T659 1085Q615 941 574 769T503 404T458 0H207Z" />
<glyph unicode="8" horiz-adv-x="894" d="M452 -20Q269 -20 183 87T94 423L93 520Q93 613 110 699T161 852T243 951Q168 1005 136 1106T103 1343Q103 1572 182 1676T452 1780Q645 1780 722 1678T799 1343Q799 1206 769 1106T662 952Q708 920 739 853T786 699T802
520V429Q802 198 719 89T452 -20ZM453 177Q507 177 532 202T563 286T570 441V540Q570 701 541 780T453 860Q397 860 361 781T325 538V436Q325 295 347 236T453 177ZM451 1018Q487 1018 514 1043T557 1135T573 1328Q573 1449 560 1506T520 1580T451 1597Q410 1597
383 1578T343 1500T330 1325Q330 1200 344 1134T386 1043T451 1018Z" />
<glyph unicode="9" horiz-adv-x="894" d="M433 -20Q323 -20 253 23T148 164T114 426V515H327V469Q327 345 336 283T373 199T450 177Q505 177 526 211T552 318T556 505V709Q531 690 489 677T393 663Q270 663 204 723T113 900T88 1189V1250Q88 1370 100 1468T148
1635T252 1742T431 1780Q545 1780 614 1745T720 1641T769 1475T782 1251V527Q782 332 751 212T643 36T433 -20ZM428 850Q463 850 490 859T535 878T556 893V1301Q556 1446 533 1512T434 1579Q380 1579 353 1551T316 1462T306 1304V1163Q306 1048 314 980T349 881T428
850Z" />
<glyph unicode=":" horiz-adv-x="517" d="M134 1043V1307H383V1043H134ZM134 270V534H383V270H134Z" />
<glyph unicode=";" horiz-adv-x="561" d="M187 -105L270 271H173V534H431V280L319 -105H187ZM169 1043V1307H418V1043H169Z" />
<glyph unicode="&lt;" horiz-adv-x="730" d="M639 253L64 631V876L639 1251V1008L222 754L639 491V253Z" />
<glyph unicode="=" horiz-adv-x="722" d="M92 565V736H647V565H92ZM92 892V1061H647V892H92Z" />
<glyph unicode="&gt;" horiz-adv-x="730" d="M88 253V496L506 749L88 1012V1251L663 874V629L88 253Z" />
<glyph unicode="?" horiz-adv-x="872" d="M255 494V810Q358 839 415 879T498 981T530 1132T536 1352Q536 1473 527 1527T458 1581Q393 1581 382 1529T370 1348V1160H143V1373Q143 1445 154 1517T197 1650T290 1746T454 1782Q561 1782 624 1749T718 1652T758 1498T768
1292Q768 1119 744 1002T653 813T458 704V494H255ZM259 0V299H459V0H259Z" />
<glyph unicode="@" horiz-adv-x="1514" d="M1231 23Q961 -69 754 -55T405 68T191 373T118 836Q118 1051 157 1224T281 1520T498 1710T817 1777Q1016 1777 1143 1673T1333 1374T1395 910Q1395 754 1367 628T1278 428T1123 354Q1061 354 1008 415T933 570Q914 463
866 400T741 337Q661 337 598 388T497 545T460 810Q460 898 474 994T524 1175T628 1312T801 1368T1059 1305V708Q1059 614 1075 560T1133 505Q1170 505 1193 550T1227 691T1238 942Q1238 1071 1222 1193T1159 1412T1027 1567T804 1625Q619 1625 508 1528T347 1252T297
833Q297 598 353 436T521 189T805 99T1207 175L1231 23ZM758 482Q801 482 834 517T886 613T905 743V1216Q824 1248 769 1232T680 1160T631 1015T616 816Q616 659 647 571T758 482Z" />
<glyph unicode="A" horiz-adv-x="915" d="M41 0L301 1760H594L875 0H657L610 327H306L263 0H41ZM330 514H583L453 1425H450L330 514Z" />
<glyph unicode="B" horiz-adv-x="945" d="M139 0V1760H483Q617 1760 693 1720T802 1593T835 1363V1318Q835 1176 804 1085T693 956Q759 931 796 870T850 723T866 536V496Q864 322 829 213T714 52T502 0H139ZM371 184H485Q542 184 573 211T618 303T632 483V578Q632
726 607 792T499 858H371V184ZM371 1035H481Q520 1035 544 1044T582 1081T600 1159T605 1296V1369Q605 1456 591 1500T547 1559T468 1574H371V1035Z" />
<glyph unicode="C" horiz-adv-x="939" d="M480 -21Q352 -21 272 40T155 219T118 505V1252Q118 1371 135 1467T193 1634T306 1741T487 1779Q588 1779 655 1745T762 1645T818 1490T835 1290V1075H609V1283Q609 1433 586 1506T487 1579Q406 1579 379 1503T351 1284V497Q351
384 362 314T401 211T481 178Q558 178 583 253T609 499V718H838V502Q838 329 804 213T692 38T480 -21Z" />
<glyph unicode="D" horiz-adv-x="977" d="M139 0V1760H497Q633 1760 711 1704T823 1544T857 1293L858 511Q858 335 822 222T704 55T489 0H139ZM371 184H469Q522 184 556 206T608 288T626 458L625 1293Q625 1446 589 1512T466 1578H371V184Z" />
<glyph unicode="E" horiz-adv-x="774" d="M139 0V1760H692V1563H371V999H675V804H371V197H699V0H139Z" />
<glyph unicode="F" horiz-adv-x="765" d="M139 0V1760H700V1562H371V1043H678V843H371V0H139Z" />
<glyph unicode="G" horiz-adv-x="964" d="M450 -17Q295 -17 207 108T118 520V1270Q118 1386 137 1480T199 1641T314 1743T493 1779Q606 1779 674 1743T779 1640T828 1477T841 1263V1132H620V1342Q620 1466 595 1522T495 1579Q414 1579 383 1513T351 1276V526Q351
339 377 259T489 178Q571 178 602 259T633 532V765H493V939H841V0H727L694 151Q668 70 603 27T450 -17Z" />
<glyph unicode="H" horiz-adv-x="1007" d="M139 0V1760H371V1024H636V1760H868V0H636V830H371V0H139Z" />
<glyph unicode="I" horiz-adv-x="515" d="M141 0V1760H374V0H141Z" />
<glyph unicode="J" horiz-adv-x="905" d="M427 -21Q258 -21 173 82T87 389V654H313V402Q313 341 319 290T347 209T421 178Q471 178 493 208T522 292T528 418V1760H761V428Q761 208 676 94T427 -21Z" />
<glyph unicode="K" horiz-adv-x="939" d="M139 0V1760H371V933L666 1760H902L589 891L925 0H682L373 834V0H139Z" />
<glyph unicode="L" horiz-adv-x="719" d="M139 0V1760H371V195H702V0H139Z" />
<glyph unicode="M" horiz-adv-x="1347" d="M139 0V1760H417L679 403L928 1760H1207V0H1005V662L1019 1296L765 3H590L326 1296L340 662V0H139Z" />
<glyph unicode="N" horiz-adv-x="1037" d="M139 0V1760H318L711 621L691 1118V1760H898V0H730L340 1160L353 709V0H139Z" />
<glyph unicode="O" horiz-adv-x="967" d="M486 -20Q352 -20 271 38T154 211T118 500V1288Q118 1440 152 1550T268 1721T490 1782Q596 1782 665 1748T775 1649T831 1493T848 1288V500Q848 327 814 212T700 38T486 -20ZM486 181Q540 181 568 212T606 313T616 498V1300Q616
1440 592 1510T490 1581Q409 1581 380 1512T351 1301V498Q351 382 361 313T400 212T486 181Z" />
<glyph unicode="P" horiz-adv-x="914" d="M139 0V1760H514Q619 1760 686 1727T790 1628T841 1470T856 1259V1228Q856 1054 828 935T726 754T518 692H371V0H139ZM371 885H483Q543 885 573 917T614 1025T625 1229V1263Q625 1422 600 1500T487 1578H371V885Z" />
<glyph unicode="Q" horiz-adv-x="967" d="M687 -279L439 -8L591 69L802 -176L687 -279ZM486 -20Q352 -20 271 38T154 211T118 500V1288Q118 1440 152 1550T268 1721T490 1782Q596 1782 665 1748T775 1649T831 1493T848 1288V500Q848 327 814 212T700 38T486 -20ZM486
181Q540 181 568 212T606 313T616 498V1300Q616 1440 592 1510T490 1581Q409 1581 380 1512T351 1301V498Q351 382 361 313T400 212T486 181Z" />
<glyph unicode="R" horiz-adv-x="961" d="M139 0V1760H539Q678 1760 745 1709T834 1556T855 1304Q855 1144 823 1052T694 930Q741 922 772 891T822 795T849 625T857 362Q857 348 857 310T857 224T859 129T863 46T870 0H638Q635 7 633 44T628 142T626 277T625 437T625
609Q625 700 615 747T574 813T479 836L371 842V0H139ZM372 1017H493Q547 1017 575 1039T614 1126T625 1315V1326Q625 1431 615 1485T576 1558T486 1578H372V1017Z" />
<glyph unicode="S" horiz-adv-x="848" d="M438 -20Q330 -20 261 17T152 123T98 288T83 503V668H306V490Q306 323 331 251T438 179Q493 179 520 205T555 288T563 439Q563 549 522 632T400 799L278 921Q227 975 181 1036T105 1175T76 1350Q76 1485 107 1582T214
1730T429 1782Q536 1782 602 1747T703 1645T751 1487T764 1281V1175H546V1296Q546 1392 538 1455T504 1551T429 1583Q382 1583 353 1561T311 1494T298 1376Q298 1312 313 1269T361 1188T441 1099L571 960Q670 855 729 733T789 455Q789 304 758 198T651 36T438 -20Z"
/>
<glyph unicode="T" horiz-adv-x="662" d="M221 0V1563H21V1760H640V1563H452V0H221Z" />
<glyph unicode="U" horiz-adv-x="979" d="M491 -21Q358 -21 278 30T161 187T125 452V1760H358V457Q358 371 364 308T399 211T491 177Q555 177 582 210T616 307T622 456V1760H854V452Q854 292 819 187T705 31T491 -21Z" />
<glyph unicode="V" horiz-adv-x="903" d="M324 0L40 1760H261L377 994L465 379H470L546 994L645 1760H863L603 0H324Z" />
<glyph unicode="W" horiz-adv-x="1348" d="M276 0L51 1760H262L403 451L588 1760H777L965 451L1087 1760H1298L1093 0H862L687 1245L504 0H276Z" />
<glyph unicode="X" horiz-adv-x="838" d="M43 0L303 937L48 1760H248L421 1200L568 1760H781L528 858L795 0H593L414 580L262 0H43Z" />
<glyph unicode="Y" horiz-adv-x="848" d="M317 0V724L16 1760H242L434 1069H438L605 1760H832L550 724V0H317Z" />
<glyph unicode="Z" horiz-adv-x="714" d="M66 0V204L430 1563H99V1760H672V1577L308 197H664V0H66Z" />
<glyph unicode="[" horiz-adv-x="685" d="M159 -70V1760H597V1581H390V110H597V-70H159Z" />
<glyph unicode="\" horiz-adv-x="791" d="M493 0L82 1760H287L697 0H493Z" />
<glyph unicode="]" horiz-adv-x="685" d="M97 -70V110H304V1581H97V1760H535V-70H97Z" />
<glyph unicode="^" horiz-adv-x="965" d="M99 837L340 1760H625L866 837H642L483 1578L324 837H99Z" />
<glyph unicode="_" horiz-adv-x="748" d="M48 -203V-38H699V-203H48Z" />
<glyph unicode="`" horiz-adv-x="428" d="M248 1640L50 2029H284L378 1640H248Z" />
<glyph unicode="a" horiz-adv-x="930" d="M373 -14Q229 -14 169 94T108 389V514Q108 622 142 691T239 806T388 886T578 962V1084Q578 1172 572 1225T543 1304T470 1329Q421 1329 397 1304T364 1225T356 1087V1028H127V1072Q127 1171 141 1253T193 1394T299 1485T476
1518Q576 1518 641 1488T743 1398T796 1250T812 1046V0H580V138Q570 103 543 68T473 9T373 -14ZM445 168Q497 168 532 203T578 274V822Q508 790 462 765T390 710T352 641T341 540V388Q341 272 363 220T445 168Z" />
<glyph unicode="b" horiz-adv-x="964" d="M579 -14Q515 -14 460 19T373 132V0H143V1777H373V1386Q393 1448 448 1483T563 1518Q678 1519 739 1458T823 1292T846 1052V451Q846 319 824 214T744 47T579 -14ZM502 172Q575 173 595 243T615 461V1070Q615 1147 608
1205T578 1295T505 1328Q462 1328 433 1308T388 1232T373 1069V457Q373 317 397 245T502 172Z" />
<glyph unicode="c" horiz-adv-x="903" d="M474 -18Q362 -18 292 18T184 123T132 288T118 503V999Q118 1155 145 1272T250 1453T478 1518Q577 1518 640 1487T740 1395T790 1252T805 1065V936H581V1085Q581 1162 575 1215T547 1297T474 1325Q422 1325 396 1296T360
1211T350 1080V426Q350 344 358 288T391 204T469 175Q519 175 543 205T574 291T581 423V582H805V462Q805 355 791 267T741 115T640 17T474 -18Z" />
<glyph unicode="d" horiz-adv-x="964" d="M382 -14Q266 -14 210 51T136 228T118 480V1065Q118 1194 144 1296T234 1458T409 1518Q470 1518 518 1486T592 1403V1777H823V0H592V131Q562 57 508 22T382 -14ZM464 172Q512 172 540 197T580 285T593 454V1055Q593 1186
570 1257T469 1328Q397 1327 374 1259T350 1051V441Q350 358 358 298T392 205T464 172Z" />
<glyph unicode="e" horiz-adv-x="908" d="M465 -18Q355 -18 287 19T182 124T132 289T118 502V1045Q118 1150 136 1237T194 1387T304 1484T475 1518Q579 1518 645 1484T746 1386T796 1234T810 1037V738H350V441Q350 313 368 242T469 171Q523 171 546 204T575 298T580
439V565H807V494Q807 376 795 281T749 120T646 18T465 -18ZM349 884H580V1076Q580 1159 574 1216T545 1303T474 1332Q418 1332 391 1298T357 1205T349 1069V884Z" />
<glyph unicode="f" horiz-adv-x="655" d="M194 0V1274H70V1442H194V1517Q194 1645 253 1715T434 1785Q494 1785 538 1776T590 1763V1610Q554 1615 523 1615Q463 1615 444 1590T424 1518V1442H590V1274H424V0H194Z" />
<glyph unicode="g" horiz-adv-x="954" d="M456 -227Q344 -230 260 -204T111 -127L193 25Q241 -7 302 -29T439 -50Q512 -49 551 2T590 139V272Q562 198 510 172T389 145Q283 145 225 204T143 365T119 597V1049Q119 1184 145 1290T233 1458T404 1518Q473 1517 521
1483T590 1380V1500H820V159Q820 84 803 16T744 -106T633 -192T456 -227ZM479 324Q517 324 541 347T578 430T590 601V1076Q590 1197 566 1263T470 1329Q417 1329 391 1297T358 1208T350 1078V599Q350 466 374 395T479 324Z" />
<glyph unicode="h" horiz-adv-x="990" d="M141 0V1777H371V1336Q391 1408 454 1463T607 1519Q728 1519 793 1436T858 1190V0H628V1169Q628 1253 597 1289T512 1325Q471 1325 439 1304T389 1242T371 1138V0H141Z" />
<glyph unicode="i" horiz-adv-x="518" d="M144 0V1500H374V0H144ZM143 1638V1844H374V1638H143Z" />
<glyph unicode="j" horiz-adv-x="535" d="M209 -205Q157 -205 120 -201T61 -192V-31Q72 -32 85 -33T114 -34Q146 -34 157 -14T169 35V1500H399V45Q399 -44 374 -99T305 -179T209 -205ZM168 1638V1844H399V1638H168Z" />
<glyph unicode="k" horiz-adv-x="923" d="M143 0V1777H373V800L652 1500H885L580 760L902 0H666L373 723V0H143Z" />
<glyph unicode="l" horiz-adv-x="515" d="M141 0V1777H370V0H141Z" />
<glyph unicode="m" horiz-adv-x="1461" d="M138 0V1500H368V1341Q389 1416 448 1467T605 1519Q680 1519 735 1484T821 1367Q858 1436 922 1477T1075 1519Q1205 1519 1267 1429T1329 1169V0H1099V1174Q1099 1257 1069 1291T987 1325Q917 1325 883 1288T849 1165V0H618V1176Q618
1250 591 1287T509 1325Q437 1325 403 1276T368 1150V0H138Z" />
<glyph unicode="n" horiz-adv-x="990" d="M138 0V1500H368V1336Q388 1408 453 1463T610 1519Q730 1519 793 1436T857 1190V0H627V1182Q627 1256 594 1292T507 1329Q466 1329 434 1309T385 1251T368 1155V0H138Z" />
<glyph unicode="o" horiz-adv-x="937" d="M470 -18Q363 -18 295 17T188 118T134 277T118 488V1031Q118 1172 149 1282T257 1455T470 1518Q573 1518 641 1482T748 1381T803 1226T819 1031V488Q819 373 805 280T753 120T647 18T470 -18ZM470 171Q521 171 546 203T579
294T588 428V1075Q588 1152 579 1209T545 1297T470 1329Q419 1329 393 1298T359 1209T350 1075V428Q350 352 358 294T393 204T470 171Z" />
<glyph unicode="p" horiz-adv-x="964" d="M141 -279V1500H371V1371Q400 1445 460 1479T582 1514Q693 1514 749 1452T825 1281T845 1038V493Q845 350 825 234T741 50T552 -18Q493 -18 445 16T371 96V-279H141ZM498 172Q569 173 591 243T614 455V1069Q614 1144 607
1202T577 1294T501 1328Q461 1328 432 1309T387 1234T371 1069V446Q371 311 395 242T498 172Z" />
<glyph unicode="q" horiz-adv-x="961" d="M590 -279V103Q569 54 520 18T412 -18Q291 -18 228 47T141 225T118 480V1038Q118 1172 140 1280T219 1451T384 1514Q446 1514 503 1484T590 1384V1500H820V-279H590ZM459 172Q503 172 532 193T575 270T589 432V1055Q589
1195 564 1261T463 1328Q390 1327 370 1258T349 1050V437Q349 320 366 246T459 172Z" />
<glyph unicode="r" horiz-adv-x="665" d="M141 0V1500H372V1333Q398 1420 462 1469T627 1518Q629 1518 629 1489T630 1421T630 1353T630 1323Q583 1323 533 1312T440 1276T372 1207V0H141Z" />
<glyph unicode="s" horiz-adv-x="828" d="M433 -20Q264 -20 179 82T94 417V523H314V407Q314 293 340 233T425 173Q483 173 511 211T539 347Q539 399 524 449T476 548T394 644L275 754Q181 842 133 942T85 1159Q85 1344 172 1431T421 1518Q527 1518 598 1475T706
1332T742 1064V988H530V1090Q530 1204 506 1264T423 1325Q365 1325 337 1292T306 1173Q305 1129 317 1084T358 996T430 912L553 799Q661 700 714 589T768 353Q768 175 687 78T433 -20Z" />
<glyph unicode="t" horiz-adv-x="614" d="M405 -9Q309 -9 260 14T192 90T174 226V1311H43V1480H174V1760H404V1480H560V1311H404V255Q404 218 414 200T459 176T563 170V-9H405Z" />
<glyph unicode="u" horiz-adv-x="982" d="M387 -20Q311 -20 253 16T163 128T130 324V1500H360V354Q360 268 387 222T481 175Q553 175 584 228T616 356V1500H846V0H616V154Q591 82 536 31T387 -20Z" />
<glyph unicode="v" horiz-adv-x="807" d="M265 0L48 1500H261L370 671L407 314H420L452 672L547 1500H759L541 0H265Z" />
<glyph unicode="w" horiz-adv-x="1204" d="M238 0L52 1500H246L324 749L351 448H359L395 750L501 1500H564H661H704L814 768L856 448H863L889 768L962 1500H1153L968 0H761L610 1154L437 0H238Z" />
<glyph unicode="x" horiz-adv-x="788" d="M29 0L287 777L46 1500H249L406 1040L542 1500H748L501 761L760 0H546L385 485L239 0H29Z" />
<glyph unicode="y" horiz-adv-x="816" d="M98 -257V-90H175Q219 -90 250 -85T288 -59Q298 -45 296 -11T288 59L45 1500H266L369 725L412 320H431L469 725L563 1500H783L530 -44Q518 -120 500 -167T443 -236T333 -257H98Z" />
<glyph unicode="z" horiz-adv-x="698" d="M72 0V173L402 1302H97V1500H638V1338L308 195H622V0H72Z" />
<glyph unicode="{" horiz-adv-x="716" d="M560 -179Q446 -179 379 -149T282 -45T252 159V469Q252 561 244 609T207 675T113 693V910Q177 910 206 928T244 994T252 1134V1444Q252 1575 281 1648T378 1752T560 1782H620V1601Q559 1601 530 1589T491 1540T481 1431V1155Q481
1026 469 957T423 856T318 801Q388 781 422 748T469 646T481 447V172Q481 100 490 64T529 15T620 2V-179H560Z" />
<glyph unicode="|" horiz-adv-x="537" d="M165 -107V1848H381V-107H165Z" />
<glyph unicode="}" horiz-adv-x="716" d="M100 -179V2Q161 2 190 14T229 63T239 172V447Q239 577 250 646T297 748T402 801Q332 823 297 855T251 957T239 1155V1431Q239 1503 230 1539T191 1588T100 1601V1782H160Q273 1782 340 1752T437 1649T467 1444V1134Q467
1043 475 995T513 928T606 910V693Q543 693 514 675T476 609T467 469V159Q467 29 438 -45T341 -149T160 -179H100Z" />
<glyph unicode="~" horiz-adv-x="1117" d="M265 827L106 906Q144 1024 203 1086T344 1149Q383 1149 439 1135T554 1103T662 1071T735 1057Q756 1059 782 1085T826 1170L1000 1128Q989 1086 967 1034T914 933T846 854T765 823Q722 823 669 837T560 871T452 905T360
920Q328 920 307 897T265 827Z" />
<glyph unicode="&#xa0;" horiz-adv-x="441" />
<glyph unicode="&#xa1;" horiz-adv-x="527" d="M314 1103L395 -250H139L219 1103H314ZM387 1510V1270H150V1510H387Z" />
<glyph unicode="&#xa2;" horiz-adv-x="840" d="M408 1512V1767H521V1510L408 1512ZM408 -250V5H521V-250H408ZM474 -18Q362 -18 292 18T184 123T132 288T118 503V999Q118 1155 145 1272T250 1453T478 1518Q577 1518 640 1487T740 1395T790 1252T805 1065V936H581V1085Q581
1162 575 1215T547 1297T474 1325Q422 1325 396 1296T360 1211T350 1080V426Q350 344 358 288T391 204T469 175Q519 175 543 205T574 291T581 423V582H805V462Q805 355 791 267T741 115T640 17T474 -18Z" />
<glyph unicode="&#xa3;" horiz-adv-x="947" d="M103 0V169Q153 194 198 232T274 326T319 455T318 625Q313 667 305 711T288 798H86V959H251L205 1138Q182 1225 170 1285T158 1397Q158 1593 249 1687T526 1782Q641 1782 715 1739T824 1609T860 1385V1246H657V1393Q657
1455 646 1500T607 1571T525 1597Q480 1597 447 1583T395 1529T376 1409Q376 1360 387 1304T420 1165L471 959H787V798H514Q523 752 530 707T543 617Q556 508 541 424T484 280T377 190H857V0H103Z" />
<glyph unicode="&#xa4;" horiz-adv-x="1159" d="M274 509L125 659L216 750Q163 848 163 964Q163 1081 215 1178L125 1268L274 1418L361 1330Q458 1385 579 1385Q700 1385 797 1331L884 1418L1034 1269L944 1179Q998 1082 998 964Q998 846 944 748L1034 658L884
509L795 597Q703 545 579 545Q455 545 363 598L274 509ZM579 719Q649 719 700 752T780 842T808 966Q808 1070 747 1139T579 1208Q510 1208 459 1175T379 1087T351 964Q351 896 379 841T458 752T579 719Z" />
<glyph unicode="&#xa5;" horiz-adv-x="843" d="M83 359V491H356V656H83V786H762V656H519V491H762V359H83ZM317 0V724L16 1760H242L434 1069H437L605 1760H832L550 724V0H317Z" />
<glyph unicode="&#xa6;" horiz-adv-x="504" d="M135 -122V704H369V-122H135ZM135 930V1760H369V930H135Z" />
<glyph unicode="&#xa7;" horiz-adv-x="865" d="M452 -20Q292 -20 199 68T105 348V416H345V350Q345 256 370 211T462 165Q513 165 537 197T562 290Q562 343 540 382T481 456T397 527L254 643Q192 692 148 756T103 915Q103 988 139 1055T245 1166Q179 1225 141 1305T103
1464Q103 1564 146 1634T266 1743T443 1782Q595 1782 684 1693T773 1417V1349H547V1416Q547 1520 515 1558T438 1597Q402 1597 378 1582T341 1538T328 1475Q328 1442 343 1410T390 1344T473 1269L628 1144Q687 1098 725 1050T782 949T799 839Q796 787 771 744T709
666T634 603Q720 527 755 447T791 286Q791 144 699 62T452 -20ZM525 705Q551 730 569 761T587 826Q587 864 565 902T496 978T375 1057Q343 1030 326 999T309 935Q309 899 333 865T406 792T525 705Z" />
<glyph unicode="&#xa8;" horiz-adv-x="836" d="M534 1640V1838H786V1640H534ZM50 1640V1838H302V1640H50Z" />
<glyph unicode="&#xa9;" horiz-adv-x="1466" d="M738 205Q598 205 479 254T270 393T131 602T81 862Q81 1002 130 1121T269 1330T478 1469T738 1519Q878 1519 997 1470T1206 1331T1345 1122T1395 862Q1395 722 1346 603T1207 394T998 255T738 205ZM738 334Q858
334 952 377T1112 494T1212 664T1246 862Q1246 1000 1186 1120T1012 1315T738 1390Q617 1390 523 1347T364 1229T264 1059T229 861Q229 724 289 603T463 408T738 334ZM732 424Q628 424 571 481T514 636V1072Q514 1180 563 1242T736 1305Q837 1305 890 1259T943
1099V966H801V1071Q801 1130 783 1147T737 1164Q707 1164 688 1148T669 1084V633Q669 593 689 576T737 559Q765 559 783 574T801 633V782H947V631Q947 531 901 478T732 424Z" />
<glyph unicode="&#xaa;" horiz-adv-x="927" d="M398 557Q283 557 236 643T186 877V979Q186 1066 213 1121T290 1213T409 1278T562 1340V1397Q562 1468 560 1520T539 1601T475 1630Q418 1630 401 1586T384 1439V1390H202V1425Q202 1504 213 1569T254 1682T339 1755T480
1781Q587 1781 644 1737T725 1609T748 1400V568H564V672Q554 638 511 598T398 557ZM456 704Q498 704 526 732T562 789V1219Q486 1185 445 1159T388 1097T372 995V881Q372 787 390 746T456 704Z" />
<glyph unicode="&#xab;" horiz-adv-x="1304" d="M1113 353L629 638V859L1113 1130V898L801 749L1113 591V353ZM568 353L85 638V859L568 1130V898L256 749L568 591V353Z" />
<glyph unicode="&#xac;" horiz-adv-x="947" d="M602 439V774H97V979H807V439H602Z" />
<glyph unicode="&#xad;" horiz-adv-x="696" d="M90 546V741H606V546H90Z" />
<glyph unicode="&#xae;" horiz-adv-x="1502" d="M551 430V1282H795Q900 1282 931 1230T963 1077V1049Q963 984 948 945T868 888Q924 881 939 845T954 756V430H803V762Q803 787 796 803T768 827T707 835V430H551ZM708 953H761Q799 953 808 981T817 1060Q817 1122
798 1140T708 1159V953ZM751 334Q871 334 965 377T1125 495T1225 664T1259 863Q1259 1000 1199 1120T1026 1315T751 1390Q631 1390 537 1347T377 1229T277 1060T243 861Q243 724 303 604T477 409T751 334ZM751 205Q611 205 492 254T283 393T144 602T94 862Q94 1002
143 1121T282 1330T491 1469T751 1519Q891 1519 1010 1470T1219 1331T1358 1122T1408 862Q1408 722 1359 603T1220 394T1011 255T751 205Z" />
<glyph unicode="&#xaf;" horiz-adv-x="633" d="M50 1661V1820H583V1661H50Z" />
<glyph unicode="&#xb0;" horiz-adv-x="915" d="M457 1108Q361 1108 281 1146T152 1259T104 1443Q104 1553 152 1627T281 1740T458 1779Q554 1779 634 1741T762 1628T811 1443Q811 1335 763 1260T634 1147T457 1108ZM459 1254Q506 1254 545 1276T609 1341T633 1443Q633
1503 609 1545T545 1610T457 1633Q411 1633 371 1611T307 1546T283 1443Q283 1384 307 1342T371 1277T459 1254Z" />
<glyph unicode="&#xb1;" horiz-adv-x="854" d="M346 499V742H124V897H346V1137H508V897H733V742H508V499H346ZM161 156V319H677V156H161Z" />
<glyph unicode="&#xb2;" horiz-adv-x="840" d="M209 521V586Q209 622 224 676T265 794T321 922T381 1044T435 1142T471 1199Q496 1241 511 1310T526 1445Q526 1525 516 1567T489 1624T449 1639Q426 1639 408 1624T379 1565T368 1436V1275H206L205 1352Q205 1488
221 1583T292 1729T459 1779Q524 1779 567 1751T636 1675T673 1565T685 1437Q685 1337 660 1255T597 1101T516 958T438 813T384 650H670V521H209Z" />
<glyph unicode="&#xb3;" horiz-adv-x="863" d="M429 584Q293 584 237 666T181 912V976H341V912Q341 804 357 761T434 717Q494 717 511 766T529 926Q529 1046 502 1099T399 1152H370V1276H397Q445 1277 473 1292T515 1349T528 1469Q528 1541 516 1578T483 1630T435
1644Q404 1644 385 1628T356 1574T347 1466V1440H186L185 1470Q186 1625 243 1702T436 1779Q570 1779 631 1701T693 1470Q693 1375 666 1308T573 1217Q644 1187 670 1109T696 925Q696 756 634 670T429 584Z" />
<glyph unicode="&#xb4;" horiz-adv-x="428" d="M50 1640L144 2029H378L180 1640H50Z" />
<glyph unicode="&#xb5;" horiz-adv-x="982" d="M387 -20Q311 -20 253 16T163 128T130 324V1500H360V354Q360 268 387 222T481 175Q553 175 584 228T616 356V1500H846V0H616V154Q591 82 536 31T387 -20ZM130 483H360V-265H130V483Z" />
<glyph unicode="&#xb6;" horiz-adv-x="1087" d="M430 0V1115Q266 1133 185 1214T103 1448Q103 1543 133 1604T228 1698T391 1746T627 1760H942V0H757V1555H614V0H430Z" />
<glyph unicode="&#xb7;" horiz-adv-x="480" d="M141 761V985H354V761H141Z" />
<glyph unicode="&#xb8;" horiz-adv-x="512" d="M180 -626Q115 -626 50 -604V-501Q145 -501 194 -481T262 -429T281 -359Q281 -291 232 -250T121 -196L161 0H235L249 -143Q356 -184 409 -250T462 -390Q462 -451 428 -505T331 -592T180 -626Z" />
<glyph unicode="&#xb9;" horiz-adv-x="627" d="M247 519V1545Q216 1519 171 1505T84 1491V1604Q124 1608 168 1628T249 1682T299 1760H424V519H247Z" />
<glyph unicode="&#xba;" horiz-adv-x="862" d="M437 553Q323 553 261 602T175 743T151 958V1391Q151 1504 175 1592T262 1730T437 1781Q551 1781 611 1731T695 1593T718 1391V958Q718 837 696 746T612 604T437 553ZM437 704Q492 703 511 759T531 910V1426Q531
1519 514 1574T437 1630Q374 1630 356 1575T338 1426V910Q338 817 357 761T437 704Z" />
<glyph unicode="&#xbb;" horiz-adv-x="1304" d="M707 353V591L1019 749L707 898V1130L1191 859V638L707 353ZM163 353V591L475 749L163 898V1130L646 859V638L163 353Z" />
<glyph unicode="&#xbc;" horiz-adv-x="1535" d="M449 0L936 1763H1093L605 0H449ZM242 529V1524Q215 1498 174 1485T93 1471V1576Q129 1581 169 1600T243 1651T290 1727H403V529H242ZM1190 0V208H906V308L1146 1113H1330V325H1411V208H1330V0H1190ZM1037 325H1190V901L1037
325Z" />
<glyph unicode="&#xbd;" horiz-adv-x="1620" d="M454 0L942 1763H1099L611 0H454ZM242 529V1524Q215 1498 174 1485T93 1471V1576Q129 1581 169 1600T243 1651T290 1727H403V529H242ZM1080 0V62Q1080 106 1093 184T1152 341L1332 653Q1356 695 1370 762T1385 893Q1385
971 1375 1012T1349 1068T1309 1083Q1288 1083 1270 1068T1242 1010T1231 884V728H1077L1076 802Q1076 934 1091 1026T1159 1166T1320 1215Q1404 1215 1451 1168T1517 1045T1536 884Q1536 802 1520 732T1468 600L1314 330Q1288 283 1271 231T1245 121H1522V0H1080Z"
/>
<glyph unicode="&#xbe;" horiz-adv-x="1555" d="M470 0L958 1763H1114L626 0H470ZM330 604Q208 604 156 682T104 918V976H248V918Q248 812 263 770T335 728Q390 728 407 775T425 929Q425 1047 399 1097T303 1148H277V1269H301Q343 1270 370 1283T411 1335T424
1450Q424 1521 413 1558T381 1608T335 1621Q306 1621 288 1606T262 1552T253 1447V1422H108V1451Q108 1599 160 1671T335 1744Q456 1744 511 1670T567 1451Q567 1359 543 1295T457 1208Q522 1179 546 1104T570 928Q570 767 514 686T330 604ZM1199 0V208H914V308L1155
1113H1339V325H1420V208H1339V0H1199ZM1046 325H1199V901L1046 325Z" />
<glyph unicode="&#xbf;" horiz-adv-x="933" d="M666 1006V690Q563 661 506 621T423 519T391 368T385 148Q385 27 394 -27T463 -81Q528 -81 539 -29T551 152V340H778V127Q778 55 767 -17T724 -150T631 -246T467 -282Q360 -282 297 -249T203 -152T163 2T153 208Q153
381 177 498T268 687T463 796V1006H666ZM662 1500V1201H462V1500H662Z" />
<glyph unicode="&#xc0;" horiz-adv-x="915" d="M41 0L301 1760H594L875 0H657L610 327H306L263 0H41ZM330 514H583L453 1425H450L330 514ZM434 1900L236 2289H470L564 1900H434Z" />
<glyph unicode="&#xc1;" horiz-adv-x="915" d="M41 0L301 1760H594L875 0H657L610 327H306L263 0H41ZM330 514H583L453 1425H450L330 514ZM315 1900L409 2289H643L445 1900H315Z" />
<glyph unicode="&#xc2;" horiz-adv-x="915" d="M41 0L301 1760H594L875 0H657L610 327H306L263 0H41ZM330 514H583L453 1425H450L330 514ZM149 1900L318 2211H579L746 1900H534L448 2118L362 1900H149Z" />
<glyph unicode="&#xc3;" horiz-adv-x="915" d="M41 0L301 1760H594L875 0H657L610 327H306L263 0H41ZM330 514H583L453 1425H450L330 514ZM598 1900Q554 1900 505 1920T409 1961T319 1982Q303 1982 296 1980Q280 1976 270 1962T245 1921L126 1971Q146 2039 173
2075T236 2125T311 2139Q352 2139 405 2121T505 2084T578 2065H582Q596 2067 609 2079T638 2136L769 2108L760 2067Q736 1965 698 1933T598 1900Z" />
<glyph unicode="&#xc4;" horiz-adv-x="915" d="M41 0L301 1760H594L875 0H657L610 327H306L263 0H41ZM330 514H583L453 1425H450L330 514ZM564 1900V2098H816V1900H564ZM80 1900V2098H332V1900H80Z" />
<glyph unicode="&#xc5;" horiz-adv-x="915" d="M41 0L301 1760H594L875 0H657L610 327H306L263 0H41ZM330 514H583L453 1425H450L330 514ZM448 1900Q346 1900 290 1959T234 2103Q234 2186 290 2245T448 2305Q551 2305 606 2246T662 2103Q662 2020 607 1960T448
1900ZM448 1981Q505 1981 533 2019T562 2103Q562 2150 534 2187T448 2225Q393 2225 365 2188T336 2103Q336 2058 364 2020T448 1981Z" />
<glyph unicode="&#xc6;" horiz-adv-x="1207" d="M60 0L397 1760H1125V1563H833V999H1108V801H833V197H1132V0H600V327H344L284 0H60ZM374 503H600V1565L570 1564L374 503Z" />
<glyph unicode="&#xc7;" horiz-adv-x="939" d="M480 -21Q352 -21 272 40T155 219T118 505V1252Q118 1371 135 1467T193 1634T306 1741T487 1779Q588 1779 655 1745T762 1645T818 1490T835 1290V1075H609V1283Q609 1433 586 1506T487 1579Q406 1579 379 1503T351
1284V497Q351 384 362 314T401 211T481 178Q558 178 583 253T609 499V718H838V502Q838 329 804 213T692 38T480 -21ZM450 -626Q385 -626 320 -604V-501Q415 -501 464 -481T532 -429T551 -359Q551 -291 502 -250T391 -196L431 0H505L519 -143Q626 -184 679 -250T732
-390Q732 -451 698 -505T601 -592T450 -626Z" />
<glyph unicode="&#xc8;" horiz-adv-x="774" d="M139 0V1760H692V1563H371V999H675V804H371V197H699V0H139ZM397 1900L199 2289H433L527 1900H397Z" />
<glyph unicode="&#xc9;" horiz-adv-x="774" d="M139 0V1760H692V1563H371V999H675V804H371V197H699V0H139ZM277 1900L371 2289H605L407 1900H277Z" />
<glyph unicode="&#xca;" horiz-adv-x="774" d="M139 0V1760H692V1563H371V999H675V804H371V197H699V0H139ZM111 1900L280 2211H541L708 1900H496L410 2118L324 1900H111Z" />
<glyph unicode="&#xcb;" horiz-adv-x="774" d="M139 0V1760H692V1563H371V999H675V804H371V197H699V0H139ZM527 1900V2098H779V1900H527ZM43 1900V2098H295V1900H43Z" />
<glyph unicode="&#xcc;" horiz-adv-x="515" d="M141 0V1760H374V0H141ZM244 1900L46 2289H280L374 1900H244Z" />
<glyph unicode="&#xcd;" horiz-adv-x="515" d="M141 0V1760H374V0H141ZM125 1900L219 2289H453L255 1900H125Z" />
<glyph unicode="&#xce;" horiz-adv-x="515" d="M141 0V1760H374V0H141ZM-41 1900L128 2211H389L556 1900H344L258 2118L172 1900H-41Z" />
<glyph unicode="&#xcf;" horiz-adv-x="515" d="M141 0V1760H374V0H141ZM374 1900V2098H626V1900H374ZM-110 1900V2098H142V1900H-110Z" />
<glyph unicode="&#xd0;" horiz-adv-x="977" d="M139 0V1760H497Q633 1760 711 1704T823 1544T857 1293L858 511Q858 335 822 222T704 55T489 0H139ZM371 184H469Q522 184 556 206T608 288T626 458L625 1293Q625 1446 589 1512T466 1578H371V184ZM24 823V936H545V823H24Z" />
<glyph unicode="&#xd1;" horiz-adv-x="1037" d="M139 0V1760H318L711 621L691 1118V1760H898V0H730L340 1160L353 709V0H139ZM669 1900Q625 1900 576 1920T480 1961T390 1982Q374 1982 367 1980Q351 1976 341 1962T316 1921L197 1971Q217 2039 244 2075T307 2125T382
2139Q423 2139 476 2121T576 2084T649 2065H653Q667 2067 680 2079T709 2136L840 2108L831 2067Q807 1965 769 1933T669 1900Z" />
<glyph unicode="&#xd2;" horiz-adv-x="967" d="M486 -20Q352 -20 271 38T154 211T118 500V1288Q118 1440 152 1550T268 1721T490 1782Q596 1782 665 1748T775 1649T831 1493T848 1288V500Q848 327 814 212T700 38T486 -20ZM486 181Q540 181 568 212T606 313T616
498V1300Q616 1440 592 1510T490 1581Q409 1581 380 1512T351 1301V498Q351 382 361 313T400 212T486 181ZM470 1900L272 2289H506L600 1900H470Z" />
<glyph unicode="&#xd3;" horiz-adv-x="967" d="M486 -20Q352 -20 271 38T154 211T118 500V1288Q118 1440 152 1550T268 1721T490 1782Q596 1782 665 1748T775 1649T831 1493T848 1288V500Q848 327 814 212T700 38T486 -20ZM486 181Q540 181 568 212T606 313T616
498V1300Q616 1440 592 1510T490 1581Q409 1581 380 1512T351 1301V498Q351 382 361 313T400 212T486 181ZM350 1900L444 2289H678L480 1900H350Z" />
<glyph unicode="&#xd4;" horiz-adv-x="967" d="M486 -20Q352 -20 271 38T154 211T118 500V1288Q118 1440 152 1550T268 1721T490 1782Q596 1782 665 1748T775 1649T831 1493T848 1288V500Q848 327 814 212T700 38T486 -20ZM486 181Q540 181 568 212T606 313T616
498V1300Q616 1440 592 1510T490 1581Q409 1581 380 1512T351 1301V498Q351 382 361 313T400 212T486 181ZM184 1900L353 2211H614L781 1900H569L483 2118L397 1900H184Z" />
<glyph unicode="&#xd5;" horiz-adv-x="967" d="M486 -20Q352 -20 271 38T154 211T118 500V1288Q118 1440 152 1550T268 1721T490 1782Q596 1782 665 1748T775 1649T831 1493T848 1288V500Q848 327 814 212T700 38T486 -20ZM486 181Q540 181 568 212T606 313T616
498V1300Q616 1440 592 1510T490 1581Q409 1581 380 1512T351 1301V498Q351 382 361 313T400 212T486 181ZM634 1900Q590 1900 541 1920T445 1961T355 1982Q339 1982 332 1980Q316 1976 306 1962T281 1921L162 1971Q182 2039 209 2075T272 2125T347 2139Q388 2139
441 2121T541 2084T614 2065H618Q632 2067 645 2079T674 2136L805 2108L796 2067Q772 1965 734 1933T634 1900Z" />
<glyph unicode="&#xd6;" horiz-adv-x="967" d="M486 -20Q352 -20 271 38T154 211T118 500V1288Q118 1440 152 1550T268 1721T490 1782Q596 1782 665 1748T775 1649T831 1493T848 1288V500Q848 327 814 212T700 38T486 -20ZM486 181Q540 181 568 212T606 313T616
498V1300Q616 1440 592 1510T490 1581Q409 1581 380 1512T351 1301V498Q351 382 361 313T400 212T486 181ZM600 1900V2098H852V1900H600ZM116 1900V2098H368V1900H116Z" />
<glyph unicode="&#xd7;" horiz-adv-x="710" d="M189 349L63 478L227 642L63 807L189 936L355 771L521 936L647 807L483 642L647 478L521 349L355 514L189 349Z" />
<glyph unicode="&#xd8;" horiz-adv-x="900" d="M182 -206L83 -166L811 1906L918 1870L182 -206ZM486 -20Q352 -20 271 38T154 211T118 500V1288Q118 1440 152 1550T268 1721T490 1782Q596 1782 665 1748T775 1649T831 1493T848 1288V500Q848 327 814 212T700 38T486
-20ZM486 181Q540 181 568 212T606 313T616 498V1300Q616 1440 592 1510T490 1581Q409 1581 380 1512T351 1301V498Q351 382 361 313T400 212T486 181Z" />
<glyph unicode="&#xd9;" horiz-adv-x="979" d="M491 -21Q358 -21 278 30T161 187T125 452V1760H358V457Q358 371 364 308T399 211T491 177Q555 177 582 210T616 307T622 456V1760H854V452Q854 292 819 187T705 31T491 -21ZM476 1900L278 2289H512L606 1900H476Z" />
<glyph unicode="&#xda;" horiz-adv-x="979" d="M491 -21Q358 -21 278 30T161 187T125 452V1760H358V457Q358 371 364 308T399 211T491 177Q555 177 582 210T616 307T622 456V1760H854V452Q854 292 819 187T705 31T491 -21ZM356 1900L450 2289H684L486 1900H356Z" />
<glyph unicode="&#xdb;" horiz-adv-x="979" d="M491 -21Q358 -21 278 30T161 187T125 452V1760H358V457Q358 371 364 308T399 211T491 177Q555 177 582 210T616 307T622 456V1760H854V452Q854 292 819 187T705 31T491 -21ZM190 1900L359 2211H620L787 1900H575L489
2118L403 1900H190Z" />
<glyph unicode="&#xdc;" horiz-adv-x="979" d="M491 -21Q358 -21 278 30T161 187T125 452V1760H358V457Q358 371 364 308T399 211T491 177Q555 177 582 210T616 307T622 456V1760H854V452Q854 292 819 187T705 31T491 -21ZM606 1900V2098H858V1900H606ZM122 1900V2098H374V1900H122Z"
/>
<glyph unicode="&#xdd;" horiz-adv-x="848" d="M317 0V724L16 1760H242L434 1069H438L605 1760H832L550 724V0H317ZM291 1900L385 2289H619L421 1900H291Z" />
<glyph unicode="&#xde;" horiz-adv-x="950" d="M155 0V1760H387V1499H530Q636 1499 703 1464T806 1362T858 1200T873 984V959Q873 785 845 664T742 479T533 416H387V0H155ZM387 609H500Q560 609 590 643T630 754T641 960V988Q641 1150 617 1233T503 1316H387V609Z" />
<glyph unicode="&#xdf;" horiz-adv-x="1002" d="M140 0V1417Q140 1508 155 1576T209 1689T315 1757T489 1780Q622 1780 703 1747T821 1634T858 1417V1220Q858 1140 843 1086T793 999T697 945Q782 925 830 879T898 753T918 553V476Q918 364 906 276T857 126T752
32T570 0H466V186Q559 186 607 201T674 262T692 395V656Q692 764 646 803T475 843V1024Q566 1024 599 1058T633 1170V1457Q633 1538 604 1569T498 1600Q431 1600 401 1569T370 1457V0H140Z" />
<glyph unicode="&#xe0;" horiz-adv-x="930" d="M373 -14Q229 -14 169 94T108 389V514Q108 622 142 691T239 806T388 886T578 962V1084Q578 1172 572 1225T543 1304T470 1329Q421 1329 397 1304T364 1225T356 1087V1028H127V1072Q127 1171 141 1253T193 1394T299
1485T476 1518Q576 1518 641 1488T743 1398T796 1250T812 1046V0H580V138Q570 103 543 68T473 9T373 -14ZM445 168Q497 168 532 203T578 274V822Q508 790 462 765T390 710T352 641T341 540V388Q341 272 363 220T445 168ZM451 1640L253 2029H487L581 1640H451Z"
/>
<glyph unicode="&#xe1;" horiz-adv-x="930" d="M373 -14Q229 -14 169 94T108 389V514Q108 622 142 691T239 806T388 886T578 962V1084Q578 1172 572 1225T543 1304T470 1329Q421 1329 397 1304T364 1225T356 1087V1028H127V1072Q127 1171 141 1253T193 1394T299
1485T476 1518Q576 1518 641 1488T743 1398T796 1250T812 1046V0H580V138Q570 103 543 68T473 9T373 -14ZM445 168Q497 168 532 203T578 274V822Q508 790 462 765T390 710T352 641T341 540V388Q341 272 363 220T445 168ZM332 1640L426 2029H660L462 1640H332Z"
/>
<glyph unicode="&#xe2;" horiz-adv-x="930" d="M373 -14Q229 -14 169 94T108 389V514Q108 622 142 691T239 806T388 886T578 962V1084Q578 1172 572 1225T543 1304T470 1329Q421 1329 397 1304T364 1225T356 1087V1028H127V1072Q127 1171 141 1253T193 1394T299
1485T476 1518Q576 1518 641 1488T743 1398T796 1250T812 1046V0H580V138Q570 103 543 68T473 9T373 -14ZM445 168Q497 168 532 203T578 274V822Q508 790 462 765T390 710T352 641T341 540V388Q341 272 363 220T445 168ZM166 1640L335 1951H596L763 1640H551L465
1858L379 1640H166Z" />
<glyph unicode="&#xe3;" horiz-adv-x="930" d="M373 -14Q229 -14 169 94T108 389V514Q108 622 142 691T239 806T388 886T578 962V1084Q578 1172 572 1225T543 1304T470 1329Q421 1329 397 1304T364 1225T356 1087V1028H127V1072Q127 1171 141 1253T193 1394T299
1485T476 1518Q576 1518 641 1488T743 1398T796 1250T812 1046V0H580V138Q570 103 543 68T473 9T373 -14ZM445 168Q497 168 532 203T578 274V822Q508 790 462 765T390 710T352 641T341 540V388Q341 272 363 220T445 168ZM615 1640Q571 1640 522 1660T426 1701T336
1722Q320 1722 313 1720Q297 1716 287 1702T262 1661L143 1711Q163 1779 190 1815T253 1865T328 1879Q369 1879 422 1861T522 1824T595 1805H599Q613 1807 626 1819T655 1876L786 1848L777 1807Q753 1705 715 1673T615 1640Z" />
<glyph unicode="&#xe4;" horiz-adv-x="930" d="M373 -14Q229 -14 169 94T108 389V514Q108 622 142 691T239 806T388 886T578 962V1084Q578 1172 572 1225T543 1304T470 1329Q421 1329 397 1304T364 1225T356 1087V1028H127V1072Q127 1171 141 1253T193 1394T299
1485T476 1518Q576 1518 641 1488T743 1398T796 1250T812 1046V0H580V138Q570 103 543 68T473 9T373 -14ZM445 168Q497 168 532 203T578 274V822Q508 790 462 765T390 710T352 641T341 540V388Q341 272 363 220T445 168ZM581 1640V1838H833V1640H581ZM97 1640V1838H349V1640H97Z"
/>
<glyph unicode="&#xe5;" horiz-adv-x="930" d="M373 -14Q229 -14 169 94T108 389V514Q108 622 142 691T239 806T388 886T578 962V1084Q578 1172 572 1225T543 1304T470 1329Q421 1329 397 1304T364 1225T356 1087V1028H127V1072Q127 1171 141 1253T193 1394T299
1485T476 1518Q576 1518 641 1488T743 1398T796 1250T812 1046V0H580V138Q570 103 543 68T473 9T373 -14ZM445 168Q497 168 532 203T578 274V822Q508 790 462 765T390 710T352 641T341 540V388Q341 272 363 220T445 168ZM465 1640Q363 1640 307 1699T251 1843Q251
1926 307 1985T465 2045Q568 2045 623 1986T679 1843Q679 1760 624 1700T465 1640ZM465 1721Q522 1721 550 1759T579 1843Q579 1890 551 1927T465 1965Q410 1965 382 1928T353 1843Q353 1798 381 1760T465 1721Z" />
<glyph unicode="&#xe6;" horiz-adv-x="1392" d="M950 -18Q851 -18 787 19T690 120Q667 88 625 57T530 6T418 -14Q268 -14 193 94T118 397V524Q119 630 153 697T250 808T399 889T589 965V1062Q589 1148 583 1207T553 1298T479 1329Q432 1329 408 1305T375 1228T366
1090V1028H138V1072Q138 1171 152 1253T203 1394T309 1485T486 1518Q571 1518 624 1492T707 1414Q744 1465 803 1491T947 1518Q1051 1518 1116 1484T1218 1386T1267 1234T1281 1037V734H820V463Q820 365 829 300T863 203T941 171Q995 171 1018 209T1047 312T1052
456V565H1279V501Q1279 384 1269 289T1226 125T1127 19T950 -18ZM455 171Q507 171 542 206T588 277V814Q517 782 471 757T399 704T362 635T351 534V392Q351 275 373 223T455 171ZM820 896H1052V1076Q1052 1159 1046 1216T1017 1303T945 1332Q889 1332 862 1298T828
1203T820 1059V896Z" />
<glyph unicode="&#xe7;" horiz-adv-x="903" d="M474 -18Q362 -18 292 18T184 123T132 288T118 503V999Q118 1155 145 1272T250 1453T478 1518Q577 1518 640 1487T740 1395T790 1252T805 1065V936H581V1085Q581 1162 575 1215T547 1297T474 1325Q422 1325 396 1296T360
1211T350 1080V426Q350 344 358 288T391 204T469 175Q519 175 543 205T574 291T581 423V582H805V462Q805 355 791 267T741 115T640 17T474 -18ZM432 -626Q367 -626 302 -604V-501Q397 -501 446 -481T514 -429T533 -359Q533 -291 484 -250T373 -196L413 0H487L501
-143Q608 -184 661 -250T714 -390Q714 -451 680 -505T583 -592T432 -626Z" />
<glyph unicode="&#xe8;" horiz-adv-x="908" d="M465 -18Q355 -18 287 19T182 124T132 289T118 502V1045Q118 1150 136 1237T194 1387T304 1484T475 1518Q579 1518 645 1484T746 1386T796 1234T810 1037V738H350V441Q350 313 368 242T469 171Q523 171 546 204T575
298T580 439V565H807V494Q807 376 795 281T749 120T646 18T465 -18ZM349 884H580V1076Q580 1159 574 1216T545 1303T474 1332Q418 1332 391 1298T357 1205T349 1069V884ZM441 1640L243 2029H477L571 1640H441Z" />
<glyph unicode="&#xe9;" horiz-adv-x="908" d="M465 -18Q355 -18 287 19T182 124T132 289T118 502V1045Q118 1150 136 1237T194 1387T304 1484T475 1518Q579 1518 645 1484T746 1386T796 1234T810 1037V738H350V441Q350 313 368 242T469 171Q523 171 546 204T575
298T580 439V565H807V494Q807 376 795 281T749 120T646 18T465 -18ZM349 884H580V1076Q580 1159 574 1216T545 1303T474 1332Q418 1332 391 1298T357 1205T349 1069V884ZM321 1640L415 2029H649L451 1640H321Z" />
<glyph unicode="&#xea;" horiz-adv-x="908" d="M465 -18Q355 -18 287 19T182 124T132 289T118 502V1045Q118 1150 136 1237T194 1387T304 1484T475 1518Q579 1518 645 1484T746 1386T796 1234T810 1037V738H350V441Q350 313 368 242T469 171Q523 171 546 204T575
298T580 439V565H807V494Q807 376 795 281T749 120T646 18T465 -18ZM349 884H580V1076Q580 1159 574 1216T545 1303T474 1332Q418 1332 391 1298T357 1205T349 1069V884ZM155 1640L324 1951H585L752 1640H540L454 1858L368 1640H155Z" />
<glyph unicode="&#xeb;" horiz-adv-x="908" d="M465 -18Q355 -18 287 19T182 124T132 289T118 502V1045Q118 1150 136 1237T194 1387T304 1484T475 1518Q579 1518 645 1484T746 1386T796 1234T810 1037V738H350V441Q350 313 368 242T469 171Q523 171 546 204T575
298T580 439V565H807V494Q807 376 795 281T749 120T646 18T465 -18ZM349 884H580V1076Q580 1159 574 1216T545 1303T474 1332Q418 1332 391 1298T357 1205T349 1069V884ZM571 1640V1838H823V1640H571ZM87 1640V1838H339V1640H87Z" />
<glyph unicode="&#xec;" horiz-adv-x="518" d="M144 0V1500H374V0H144ZM501 1640L303 2029H537L631 1640H501Z" />
<glyph unicode="&#xed;" horiz-adv-x="518" d="M144 0V1500H374V0H144ZM126 1640L220 2029H454L256 1640H126Z" />
<glyph unicode="&#xee;" horiz-adv-x="518" d="M144 0V1500H374V0H144ZM216 1640L385 1951H646L813 1640H601L515 1858L429 1640H216Z" />
<glyph unicode="&#xef;" horiz-adv-x="518" d="M144 0V1500H374V0H144ZM375 1640V1838H627V1640H375ZM-109 1640V1838H143V1640H-109Z" />
<glyph unicode="&#xf0;" horiz-adv-x="987" d="M474 -20Q330 -20 249 35T134 200T100 471V577Q100 760 132 876T239 1048T439 1100Q493 1099 536 1082T609 1032Q609 1040 607 1073T602 1153T593 1248T581 1336T565 1395L351 1273L290 1399L490 1514Q444 1566 387
1594T277 1633L373 1780Q462 1772 543 1734T685 1622L884 1735L946 1609L761 1504Q777 1474 790 1413T813 1275T832 1122T843 982T847 887V521Q847 353 819 232T710 46T474 -20ZM472 181Q558 181 587 250T616 471V821Q607 851 567 877T466 904Q413 904 384 874T344
776T333 593V437Q333 337 345 281T387 203T472 181Z" />
<glyph unicode="&#xf1;" horiz-adv-x="990" d="M138 0V1500H368V1336Q388 1408 453 1463T610 1519Q730 1519 793 1436T857 1190V0H627V1182Q627 1256 594 1292T507 1329Q466 1329 434 1309T385 1251T368 1155V0H138ZM645 1640Q601 1640 552 1660T456 1701T366
1722Q350 1722 343 1720Q327 1716 317 1702T292 1661L173 1711Q193 1779 220 1815T283 1865T358 1879Q399 1879 452 1861T552 1824T625 1805H629Q643 1807 656 1819T685 1876L816 1848L807 1807Q783 1705 745 1673T645 1640Z" />
<glyph unicode="&#xf2;" horiz-adv-x="937" d="M470 -18Q363 -18 295 17T188 118T134 277T118 488V1031Q118 1172 149 1282T257 1455T470 1518Q573 1518 641 1482T748 1381T803 1226T819 1031V488Q819 373 805 280T753 120T647 18T470 -18ZM470 171Q521 171 546
203T579 294T588 428V1075Q588 1152 579 1209T545 1297T470 1329Q419 1329 393 1298T359 1209T350 1075V428Q350 352 358 294T393 204T470 171ZM455 1640L257 2029H491L585 1640H455Z" />
<glyph unicode="&#xf3;" horiz-adv-x="937" d="M470 -18Q363 -18 295 17T188 118T134 277T118 488V1031Q118 1172 149 1282T257 1455T470 1518Q573 1518 641 1482T748 1381T803 1226T819 1031V488Q819 373 805 280T753 120T647 18T470 -18ZM470 171Q521 171 546
203T579 294T588 428V1075Q588 1152 579 1209T545 1297T470 1329Q419 1329 393 1298T359 1209T350 1075V428Q350 352 358 294T393 204T470 171ZM335 1640L429 2029H663L465 1640H335Z" />
<glyph unicode="&#xf4;" horiz-adv-x="937" d="M470 -18Q363 -18 295 17T188 118T134 277T118 488V1031Q118 1172 149 1282T257 1455T470 1518Q573 1518 641 1482T748 1381T803 1226T819 1031V488Q819 373 805 280T753 120T647 18T470 -18ZM470 171Q521 171 546
203T579 294T588 428V1075Q588 1152 579 1209T545 1297T470 1329Q419 1329 393 1298T359 1209T350 1075V428Q350 352 358 294T393 204T470 171ZM169 1640L338 1951H599L766 1640H554L468 1858L382 1640H169Z" />
<glyph unicode="&#xf5;" horiz-adv-x="937" d="M470 -18Q363 -18 295 17T188 118T134 277T118 488V1031Q118 1172 149 1282T257 1455T470 1518Q573 1518 641 1482T748 1381T803 1226T819 1031V488Q819 373 805 280T753 120T647 18T470 -18ZM470 171Q521 171 546
203T579 294T588 428V1075Q588 1152 579 1209T545 1297T470 1329Q419 1329 393 1298T359 1209T350 1075V428Q350 352 358 294T393 204T470 171ZM619 1640Q575 1640 526 1660T430 1701T340 1722Q324 1722 317 1720Q301 1716 291 1702T266 1661L147 1711Q167 1779
194 1815T257 1865T332 1879Q373 1879 426 1861T526 1824T599 1805H603Q617 1807 630 1819T659 1876L790 1848L781 1807Q757 1705 719 1673T619 1640Z" />
<glyph unicode="&#xf6;" horiz-adv-x="937" d="M470 -18Q363 -18 295 17T188 118T134 277T118 488V1031Q118 1172 149 1282T257 1455T470 1518Q573 1518 641 1482T748 1381T803 1226T819 1031V488Q819 373 805 280T753 120T647 18T470 -18ZM470 171Q521 171 546
203T579 294T588 428V1075Q588 1152 579 1209T545 1297T470 1329Q419 1329 393 1298T359 1209T350 1075V428Q350 352 358 294T393 204T470 171ZM585 1640V1838H837V1640H585ZM101 1640V1838H353V1640H101Z" />
<glyph unicode="&#xf7;" horiz-adv-x="804" d="M94 657V851H710V657H94ZM282 214V512H522V214H282ZM282 999V1297H522V999H282Z" />
<glyph unicode="&#xf8;" horiz-adv-x="879" d="M269 -173L169 -145L678 1672L779 1644L269 -173ZM470 -18Q363 -18 295 17T188 118T134 277T118 488V1031Q118 1172 149 1282T257 1455T470 1518Q573 1518 641 1482T748 1381T803 1226T819 1031V488Q819 373 805
280T753 120T647 18T470 -18ZM470 171Q521 171 546 203T579 294T588 428V1075Q588 1152 579 1209T545 1297T470 1329Q419 1329 393 1298T359 1209T350 1075V428Q350 352 358 294T393 204T470 171Z" />
<glyph unicode="&#xf9;" horiz-adv-x="982" d="M387 -20Q311 -20 253 16T163 128T130 324V1500H360V354Q360 268 387 222T481 175Q553 175 584 228T616 356V1500H846V0H616V154Q591 82 536 31T387 -20ZM477 1640L279 2029H513L607 1640H477Z" />
<glyph unicode="&#xfa;" horiz-adv-x="982" d="M387 -20Q311 -20 253 16T163 128T130 324V1500H360V354Q360 268 387 222T481 175Q553 175 584 228T616 356V1500H846V0H616V154Q591 82 536 31T387 -20ZM358 1640L452 2029H686L488 1640H358Z" />
<glyph unicode="&#xfb;" horiz-adv-x="982" d="M387 -20Q311 -20 253 16T163 128T130 324V1500H360V354Q360 268 387 222T481 175Q553 175 584 228T616 356V1500H846V0H616V154Q591 82 536 31T387 -20ZM192 1640L361 1951H622L789 1640H577L491 1858L405 1640H192Z" />
<glyph unicode="&#xfc;" horiz-adv-x="982" d="M387 -20Q311 -20 253 16T163 128T130 324V1500H360V354Q360 268 387 222T481 175Q553 175 584 228T616 356V1500H846V0H616V154Q591 82 536 31T387 -20ZM607 1640V1838H859V1640H607ZM123 1640V1838H375V1640H123Z" />
<glyph unicode="&#xfd;" horiz-adv-x="816" d="M98 -257V-90H175Q219 -90 250 -85T288 -59Q298 -45 296 -11T288 59L45 1500H266L369 725L412 320H431L469 725L563 1500H783L530 -44Q518 -120 500 -167T443 -236T333 -257H98ZM275 1640L369 2029H603L405 1640H275Z" />
<glyph unicode="&#xfe;" horiz-adv-x="964" d="M141 -279V1777H372V1371Q402 1445 460 1479T581 1514Q693 1514 749 1452T824 1281T844 1038V493Q844 350 823 234T740 50T551 -18Q492 -18 445 16T372 96V-279H141ZM499 173Q570 174 591 244T613 456V1067Q613 1142
607 1200T577 1293T502 1327Q462 1327 433 1307T388 1232T372 1067V447Q372 312 395 243T499 173Z" />
<glyph unicode="&#xff;" horiz-adv-x="816" d="M98 -257V-90H175Q219 -90 250 -85T288 -59Q298 -45 296 -11T288 59L45 1500H266L369 725L412 320H431L469 725L563 1500H783L530 -44Q518 -120 500 -167T443 -236T333 -257H98ZM781 1640V1838H1033V1640H781ZM297
1640V1838H549V1640H297Z" />
<glyph unicode="&#x2013;" horiz-adv-x="756" d="M120 533V741H636V533H120Z" />
<glyph unicode="&#x2014;" horiz-adv-x="1153" d="M60 545V741H1092V545H60Z" />
<glyph unicode="&#x2018;" horiz-adv-x="589" d="M134 1084V1331L263 1766H402L309 1340H459V1084H134Z" />
<glyph unicode="&#x2019;" horiz-adv-x="589" d="M204 1084L297 1509H147V1766H473V1518L343 1084H204Z" />
<glyph unicode="&#x201a;" horiz-adv-x="484" d="M146 -358L229 0H90V243H404V9L292 -358H146Z" />
<glyph unicode="&#x201c;" horiz-adv-x="1030" d="M611 1132V1368L724 1766H870L787 1377H925V1132H611ZM151 1132V1368L263 1766H409L327 1377H465V1132H151Z" />
<glyph unicode="&#x201d;" horiz-adv-x="1077" d="M681 1132L764 1521H626V1766H940V1530L827 1132H681ZM221 1132L304 1521H165V1766H480V1530L367 1132H221Z" />
<glyph unicode="&#x201e;" horiz-adv-x="1016" d="M676 -389L758 0H620V245H934V9L822 -389H676ZM216 -389L298 0H160V245H473V9L361 -389H216Z" />
<glyph unicode="&#x2022;" horiz-adv-x="861" d="M430 470Q310 470 247 541T184 741Q184 870 247 941T430 1012Q550 1012 613 941T677 741Q677 612 614 541T430 470Z" />
<glyph unicode="&#x2039;" horiz-adv-x="606" d="M548 353L65 638V859L548 1130V898L236 749L548 591V353Z" />
<glyph unicode="&#x203a;" horiz-adv-x="727" d="M147 353V591L459 749L147 898V1130L631 859V638L147 353Z" />
</font>
</defs>
</svg>
