<?xml version="1.0" standalone="no"?>
<!DOCTYPE svg PUBLIC "-//W3C//DTD SVG 1.1//EN" "http://www.w3.org/Graphics/SVG/1.1/DTD/svg11.dtd">
<svg xmlns="http://www.w3.org/2000/svg">
<defs >
<font id="Antonio" horiz-adv-x="887" ><font-face
    font-family="Antonio Thin"
    units-per-em="2048"
    panose-1="0 0 0 0 0 0 0 0 0 0"
    ascent="2365"
    descent="-285"
    alphabetic="0" />
<glyph unicode=" " horiz-adv-x="460" />
<glyph unicode="!" horiz-adv-x="501" d="M220 368L157 1760H345L280 368H220ZM156 0V202H342V0H156Z" />
<glyph unicode="&quot;" horiz-adv-x="771" d="M487 1125V1760H644L551 1125H487ZM196 1125V1760H352L260 1125H196Z" />
<glyph unicode="#" horiz-adv-x="829" d="M22 0L154 670H-12V767H174L228 1041H31V1138H247L370 1760H482L357 1138H573L698 1760H801L678 1138H841V1041H658L604 767H798V670H585L452 0H350L480 670H264L133 0H22ZM282 765H502L555 1035H336L282 765Z" />
<glyph unicode="$" horiz-adv-x="830" d="M396 -221V67H503V-221H396ZM354 1490V1783H461V1490H354ZM454 28Q297 28 224 129T150 455V584H299V481Q299 329 334 247T441 164Q514 164 545 211T577 382Q577 438 570 491T533 599T436 718L325 823Q222 920 182 1020T141
1234Q141 1402 219 1484T423 1566Q507 1566 569 1524T666 1379T701 1099V1005H561V1126Q561 1284 529 1356T426 1429Q350 1429 321 1365T291 1198Q291 1152 301 1110T341 1020T434 912L539 809Q645 706 688 600T731 373Q731 220 665 124T454 28Z" />
<glyph unicode="%" horiz-adv-x="2078" d="M607 0L1337 1760H1477L755 0H607ZM429 581Q318 581 259 618T177 748T155 1012V1364Q155 1528 177 1619T259 1746T429 1783Q541 1783 600 1747T681 1619T704 1364V1012Q704 842 682 749T601 618T429 581ZM429 718Q509
718 537 763T566 936V1436Q566 1560 538 1603T429 1646Q350 1646 321 1603T292 1436V936Q292 808 321 763T429 718ZM1649 -20Q1537 -20 1478 17T1396 147T1374 411V763Q1374 927 1396 1017T1478 1144T1649 1181Q1760 1181 1819 1145T1901 1018T1923 763V411Q1923
241 1901 148T1820 17T1649 -20ZM1649 117Q1729 117 1757 162T1786 335V835Q1786 959 1757 1002T1649 1045Q1570 1045 1541 1002T1512 835V335Q1512 207 1541 162T1649 117Z" />
<glyph unicode="&amp;" horiz-adv-x="830" d="M338 -20Q226 -20 149 60T72 333Q72 473 104 578T191 775T311 959Q249 1119 208 1246T166 1443Q166 1613 233 1698T424 1783Q524 1783 575 1742T644 1622T662 1434Q662 1333 632 1247T552 1082T448 925L620 516Q649
585 684 656T771 797L832 690Q777 611 744 529T682 368L837 0H710L607 253Q589 182 558 120T473 19T338 -20ZM354 105Q405 105 438 140T497 236T552 376L365 826Q316 763 279 679T221 504T200 334Q200 237 236 171T354 105ZM399 1057Q458 1140 498 1236T539 1456Q539
1560 520 1613T425 1667Q373 1667 346 1644T309 1584T297 1511T295 1445Q295 1385 325 1283T399 1057Z" />
<glyph unicode="&apos;" horiz-adv-x="404" d="M184 1125L124 1760H282L217 1125H184Z" />
<glyph unicode="(" horiz-adv-x="546" d="M448 -117Q359 -117 303 -103T215 -47T172 77T160 295V1370Q160 1506 172 1588T215 1713T302 1769T448 1783V1669Q403 1669 376 1665T334 1635T314 1549T309 1374V291Q309 177 314 116T333 30T375 1T448 -4V-117Z" />
<glyph unicode=")" horiz-adv-x="546" d="M98 -119V-6Q143 -6 170 -2T212 28T232 114T237 289V1374Q237 1488 232 1549T213 1635T171 1664T98 1669V1783Q187 1783 243 1769T331 1713T374 1589T386 1370V293Q386 157 374 75T331 -49T244 -105T98 -119Z" />
<glyph unicode="*" horiz-adv-x="960" d="M414 1086L438 1362L216 1190L149 1308L391 1438L141 1560L209 1676L438 1513L414 1783H547L527 1514L751 1686L819 1570L569 1438L819 1298L751 1181L527 1358L547 1086H414Z" />
<glyph unicode="+" horiz-adv-x="766" d="M322 576V842H92V948H322V1208H440V948H674V842H440V576H322Z" />
<glyph unicode="," horiz-adv-x="437" d="M162 -350L258 0H143V173H343V9L239 -350H162Z" />
<glyph unicode="-" horiz-adv-x="696" d="M109 842V958H587V842H109Z" />
<glyph unicode="." horiz-adv-x="532" d="M174 0V164H328V0H174Z" />
<glyph unicode="/" horiz-adv-x="743" d="M88 0L538 1783H673L222 0H88Z" />
<glyph unicode="0" horiz-adv-x="830" d="M417 -21Q308 -21 247 30T161 192T136 475V1316Q136 1479 161 1582T247 1734T417 1783Q528 1783 588 1734T672 1582T695 1316V475Q695 345 683 251T640 97T555 8T417 -21ZM414 102Q459 102 485 123T525 189T542 303T546
470V1327Q546 1443 538 1515T502 1622T414 1657Q358 1657 330 1623T293 1516T284 1328V470Q284 373 288 304T306 190T346 124T414 102Z" />
<glyph unicode="1" horiz-adv-x="830" d="M409 0V1534Q385 1506 338 1482T240 1443T151 1428V1521Q204 1529 267 1560T386 1643T469 1760H558V0H409Z" />
<glyph unicode="2" horiz-adv-x="830" d="M179 0V121Q202 172 225 222T271 324T318 425L456 729Q499 822 523 893T560 1028T575 1157T579 1305Q579 1453 568 1528T528 1630T450 1656Q406 1655 376 1623T332 1517T317 1319V1065H176V1323Q176 1490 206 1591T301
1739T467 1783Q556 1782 611 1732T692 1579T718 1310Q718 1176 702 1071T654 871T572 669L447 395Q426 350 405 304T363 213T321 121H694V0H179Z" />
<glyph unicode="3" horiz-adv-x="830" d="M406 -20Q238 -20 169 102T100 474V517H250V474Q250 329 262 249T310 136T412 104Q478 104 513 138T562 254T576 472Q576 622 554 705T484 821T362 854H323V982H360Q434 982 481 1003T550 1096T573 1322Q573 1466 550
1537T489 1631T404 1655Q360 1655 327 1629T274 1531T255 1318V1287H106V1321Q106 1547 172 1663T407 1780Q576 1780 649 1664T723 1321Q723 1169 683 1060T548 914Q611 886 650 818T707 657T726 468Q726 220 650 100T406 -20Z" />
<glyph unicode="4" horiz-adv-x="830" d="M485 0V352H95V449L476 1760H620V468H774V352H620V0H485ZM217 468H485V1468L217 468Z" />
<glyph unicode="5" horiz-adv-x="830" d="M430 -20Q320 -20 263 24T185 140T164 291V459H307V263Q307 179 334 141T426 102Q483 102 514 139T545 274V869Q545 983 520 1037T433 1091Q383 1091 348 1042T312 888L188 910V1760H648V1624H323V1126Q337 1171 380 1197T476
1224Q534 1224 581 1195T657 1080T686 828V321Q686 244 674 181T632 73T554 4T430 -20Z" />
<glyph unicode="6" horiz-adv-x="830" d="M442 -20Q340 -20 279 20T187 132T146 299T136 506V1264Q136 1442 159 1557T247 1727T440 1783Q559 1783 616 1728T691 1563T711 1284V1252H559V1283Q559 1429 552 1509T518 1622T433 1655Q367 1655 336 1622T294 1502T284
1255V1013Q316 1057 357 1078T441 1102Q559 1108 625 1055T718 881T745 559V442Q745 294 720 191T629 34T442 -20ZM442 107Q503 107 536 134T582 234T595 446V547Q595 709 584 803T543 937T453 978Q406 978 372 966T316 942T284 926V504Q284 365 292 278T334 149T442
107Z" />
<glyph unicode="7" horiz-adv-x="830" d="M236 0Q255 238 287 451T357 845T434 1165Q500 1395 549 1519T598 1643H95V1760H728V1653Q727 1660 684 1531T582 1175Q544 1025 506 838T437 439T391 0H236Z" />
<glyph unicode="8" horiz-adv-x="830" d="M421 -20Q265 -20 192 80T111 403V434Q111 570 127 666T177 826T265 927Q193 978 161 1078T128 1347Q128 1574 198 1678T424 1783Q578 1783 647 1679T717 1347Q717 1181 683 1083T571 931Q624 893 656 829T703 667T718
434V413Q718 186 646 83T421 -20ZM423 103Q475 103 507 138T555 247T570 439V482Q570 685 534 777T423 869Q341 869 301 774T261 470V428Q261 257 299 180T423 103ZM421 982Q473 982 505 1020T552 1141T568 1353Q568 1458 553 1524T505 1622T421 1653Q371 1653
339 1622T292 1523T277 1348Q277 1220 292 1139T339 1020T421 982Z" />
<glyph unicode="9" horiz-adv-x="830" d="M418 -20Q309 -20 251 34T172 197T150 473V508H292V483Q293 320 302 239T341 130T431 103Q495 103 517 146T542 282T544 523V712Q518 687 478 675T394 662Q273 662 212 726T130 916T109 1226V1252Q109 1363 116 1459T152
1628T239 1742T402 1783Q504 1783 563 1742T650 1629T686 1460T694 1254V542Q694 364 679 239T605 47T418 -20ZM408 776Q446 776 472 781T516 792T544 803V1255Q544 1452 522 1552T403 1653Q336 1653 306 1609T267 1476T259 1257V1208Q259 1047 268 952T308 817T408
776Z" />
<glyph unicode=":" horiz-adv-x="555" d="M179 1048V1279H362V1048H179ZM179 312V543H362V312H179Z" />
<glyph unicode=";" horiz-adv-x="561" d="M200 0L296 350H181V523H381V359L277 0H200ZM179 1048V1279H362V1048H179Z" />
<glyph unicode="&lt;" horiz-adv-x="730" d="M642 288L63 688V823L642 1219V1051L174 758L642 448V288Z" />
<glyph unicode="=" horiz-adv-x="722" d="M94 601V729H628V601H94ZM94 896V1025H628V896H94Z" />
<glyph unicode="&gt;" horiz-adv-x="730" d="M84 288V456L552 749L84 1059V1219L663 818V684L84 288Z" />
<glyph unicode="?" horiz-adv-x="708" d="M228 494V810Q321 844 374 888T452 995T484 1149T491 1369Q491 1526 474 1593T396 1661Q331 1661 311 1601T290 1375V1160H158V1365Q158 1419 158 1490T173 1628T240 1739T392 1783Q482 1783 530 1749T597 1652T620 1504T623
1314Q623 1141 599 1027T517 846T353 750V494H228ZM227 0V299H353V0H227Z" />
<glyph unicode="@" horiz-adv-x="1340" d="M1161 121Q924 45 724 54T374 150T143 399T60 790Q60 973 94 1124T206 1385T415 1556T739 1616Q947 1616 1065 1524T1231 1263T1280 867Q1280 737 1258 627T1185 449T1051 382Q987 382 943 426T886 548Q863 466 795 420T647
374Q577 375 510 418T400 555T357 801Q357 928 386 1023T469 1180T600 1271T771 1298T975 1257V641Q975 557 991 513T1052 468Q1090 468 1116 510T1157 640T1171 864Q1171 978 1160 1093T1108 1303T977 1456T732 1514Q527 1514 408 1422T239 1165T188 787Q188 559
267 417T482 210T789 150T1143 221L1161 121ZM649 467Q693 465 736 487T812 547T856 628V1188Q796 1199 730 1197T607 1161T513 1044T477 806Q477 620 529 545T649 467Z" />
<glyph unicode="A" horiz-adv-x="818" d="M35 0L318 1760H470L783 0H639L581 362H229L176 0H35ZM248 473H561L399 1476H397L248 473Z" />
<glyph unicode="B" horiz-adv-x="868" d="M166 0V1760H423Q560 1760 630 1720T725 1594T751 1366V1343Q751 1188 732 1092T638 947Q695 920 724 855T764 703T775 518V487Q773 320 747 212T656 52T468 0H166ZM315 128H473Q535 128 568 161T613 280T626 520V536Q625
723 597 803T476 884H315V128ZM315 1004H449Q497 1004 527 1012T573 1053T595 1152T602 1335V1349Q601 1473 584 1532T528 1610T427 1629H315V1004Z" />
<glyph unicode="C" horiz-adv-x="868" d="M448 -20Q319 -20 252 45T160 238T136 550V1251Q136 1363 147 1460T190 1629T285 1742T454 1783Q561 1783 621 1742T709 1626T744 1453T751 1239V1087H600V1257Q600 1453 575 1555T453 1658Q353 1658 319 1557T285 1258V552Q285
390 297 291T344 147T447 102Q545 102 572 205T600 551V692H750V552Q750 368 728 240T641 46T448 -20Z" />
<glyph unicode="D" horiz-adv-x="914" d="M166 0V1760H437Q580 1760 653 1699T752 1524T778 1258V504Q778 321 745 211T635 50T431 0H166ZM314 128H437Q502 128 544 158T608 272T629 519V1274Q629 1469 584 1552T446 1636H314V128Z" />
<glyph unicode="E" horiz-adv-x="716" d="M166 0V1760H631V1644H315V956H612V835H315V118H628V0H166Z" />
<glyph unicode="F" horiz-adv-x="695" d="M166 0V1760H628V1644H314V1005H611V886H314V0H166Z" />
<glyph unicode="G" horiz-adv-x="890" d="M419 -20Q272 -20 204 108T136 532V1245Q136 1358 147 1455T190 1626T286 1741T456 1783Q560 1783 619 1742T706 1628T741 1457T749 1247V1100H597V1372Q597 1509 570 1583T451 1658Q357 1658 321 1569T285 1261V543Q285
305 315 204T445 102Q540 102 570 203T601 541V763H450V890H749V0H651L635 102Q600 43 551 12T419 -20Z" />
<glyph unicode="H" horiz-adv-x="952" d="M166 0V1760H315V998H637V1760H786V0H637V886H315V0H166Z" />
<glyph unicode="I" horiz-adv-x="485" d="M168 0V1760H317V0H168Z" />
<glyph unicode="J" horiz-adv-x="784" d="M361 -20Q198 -20 138 80T78 389V540H229V402Q229 322 233 254T264 144T355 102Q421 102 447 142T477 254T481 418V1760H630V420Q630 194 569 87T361 -20Z" />
<glyph unicode="K" horiz-adv-x="854" d="M166 0V1760H315V893L670 1760H814L452 891L837 0H683L317 860V0H166Z" />
<glyph unicode="L" horiz-adv-x="643" d="M166 0V1760H315V118H627V0H166Z" />
<glyph unicode="M" horiz-adv-x="1204" d="M166 0V1760H333L610 282L877 1760H1044V0H909V754L932 1463L681 38H539L279 1463L302 754V0H166Z" />
<glyph unicode="N" horiz-adv-x="983" d="M166 0V1760H270L702 399L687 1005V1760H817V0H701L296 1326L306 850V0H166Z" />
<glyph unicode="O" horiz-adv-x="891" d="M447 -20Q320 -20 253 38T161 215T136 519V1268Q136 1420 157 1536T245 1717T454 1783Q560 1783 621 1746T710 1639T747 1476T755 1268V519Q755 335 731 216T641 38T447 -20ZM447 102Q511 102 545 139T593 267T606 519V1280Q606
1479 578 1568T454 1658Q354 1658 320 1568T285 1281V519Q285 358 298 267T346 139T447 102Z" />
<glyph unicode="P" horiz-adv-x="847" d="M166 0V1760H472Q578 1760 640 1723T731 1617T769 1455T778 1249V1231Q778 1047 753 927T659 748T463 689H315V0H166ZM315 815H473Q535 815 568 853T615 981T628 1229V1263Q629 1456 601 1546T480 1636H315V815Z" />
<glyph unicode="Q" horiz-adv-x="891" d="M622 -389L409 -17L518 27L720 -337L622 -389ZM447 -20Q320 -20 253 38T161 215T136 519V1268Q136 1420 157 1536T245 1717T454 1783Q560 1783 621 1746T710 1639T747 1476T755 1268V519Q755 335 731 216T641 38T447 -20ZM447
102Q511 102 545 139T593 267T606 519V1280Q606 1479 578 1568T454 1658Q354 1658 320 1568T285 1281V519Q285 358 298 267T346 139T447 102Z" />
<glyph unicode="R" horiz-adv-x="899" d="M166 0V1760H465Q607 1760 673 1715T758 1574T778 1326Q778 1157 743 1054T616 925Q667 917 699 881T747 762T770 534T777 164Q777 140 777 122T778 88T781 60T788 32T799 0H651Q645 12 641 28T635 77T631 167T630 320T629
557Q629 678 624 741T586 828T473 858L315 868V0H166ZM314 968H470Q534 968 568 990T616 1088T629 1322V1335Q629 1465 618 1529T574 1614T481 1636H314V968Z" />
<glyph unicode="S" horiz-adv-x="794" d="M411 -20Q306 -20 245 22T153 139T114 312T105 523V705H251V526Q251 300 283 201T420 102Q493 102 524 138T564 251T572 452Q572 588 539 671T419 834L315 930Q267 974 215 1032T127 1167T91 1346Q91 1473 113 1571T202
1726T402 1783Q510 1783 570 1742T656 1626T689 1454T695 1242V1143H562V1253Q562 1415 548 1502T499 1624T404 1658Q346 1658 310 1635T257 1551T240 1371Q240 1287 259 1236T317 1142T414 1042L511 946Q611 848 667 729T724 436Q724 302 701 199T611 38T411 -20Z"
/>
<glyph unicode="T" horiz-adv-x="542" d="M207 0V1644H23V1760H520V1644H355V0H207Z" />
<glyph unicode="U" horiz-adv-x="915" d="M459 -20Q335 -20 268 31T174 187T148 452V1760H297V457Q297 343 305 264T347 143T460 102Q539 102 572 143T611 263T618 456V1760H767V452Q767 292 742 188T651 32T459 -20Z" />
<glyph unicode="V" horiz-adv-x="846" d="M360 0L47 1760H190L310 1062L436 318H437L549 1062L656 1760H799L515 0H360Z" />
<glyph unicode="W" horiz-adv-x="1312" d="M306 0L57 1760H203L387 322L607 1760H731L966 322L1114 1760H1255L1042 0H895L677 1448L443 0H306Z" />
<glyph unicode="X" horiz-adv-x="710" d="M52 0L285 919L67 1760H204L373 1101L535 1760H659L437 853L656 0H523L347 680L176 0H52Z" />
<glyph unicode="Y" horiz-adv-x="786" d="M334 0V772L16 1760H166L407 982H410L616 1760H770L483 773V0H334Z" />
<glyph unicode="Z" horiz-adv-x="638" d="M85 0V125L424 1644H94V1760H576V1658L235 118H570V0H85Z" />
<glyph unicode="[" horiz-adv-x="589" d="M166 -80V1760H529V1646H315V35H529V-80H166Z" />
<glyph unicode="\" horiz-adv-x="726" d="M505 0L94 1760H222L632 0H505Z" />
<glyph unicode="]" horiz-adv-x="589" d="M60 -80V35H274V1646H60V1760H423V-80H60Z" />
<glyph unicode="^" horiz-adv-x="972" d="M142 837L383 1760H589L830 837H681L487 1648L293 837H142Z" />
<glyph unicode="_" horiz-adv-x="748" d="M48 -185V-64H699V-185H48Z" />
<glyph unicode="`" horiz-adv-x="354" d="M235 1640L50 1972H210L304 1640H235Z" />
<glyph unicode="a" horiz-adv-x="844" d="M366 -11Q247 -11 187 89T127 377V569Q127 649 160 705T253 803T392 881T563 956V1058Q563 1173 557 1245T524 1352T433 1387Q371 1387 342 1354T304 1246T295 1048V1011H145V1051Q145 1141 151 1225T184 1375T269 1479T433
1518Q539 1518 596 1483T678 1379T707 1209T712 976V0H563V112Q557 94 534 65T470 12T366 -11ZM393 113Q452 113 499 146T563 211V837Q470 795 413 765T326 704T286 627T275 509V390Q275 240 298 177T393 113Z" />
<glyph unicode="b" horiz-adv-x="874" d="M510 -11Q452 -11 396 16T309 114V0H160V1783H309V1372Q320 1434 372 1475T480 1518Q594 1523 651 1456T727 1272T746 1012V490Q746 347 730 234T664 55T510 -11ZM460 115Q542 116 569 196T597 466V1061Q597 1160 589
1233T554 1346T467 1386Q419 1386 384 1366T329 1276T309 1059V460Q309 281 337 198T460 115Z" />
<glyph unicode="c" horiz-adv-x="803" d="M418 -18Q316 -18 257 21T171 131T136 298T128 511V1028Q128 1164 147 1275T230 1452T425 1518Q527 1518 583 1482T664 1380T694 1222T700 1020V973H549V1065Q549 1170 544 1240T514 1345T426 1381Q359 1381 328 1341T287
1229T277 1057V455Q277 339 285 265T323 155T419 119Q482 119 509 158T542 270T549 449V562H700V517Q700 400 695 302T666 133T583 22T418 -18Z" />
<glyph unicode="d" horiz-adv-x="855" d="M365 -11Q264 -11 213 53T145 229T128 481V1008Q128 1153 148 1268T229 1451T405 1518Q458 1518 501 1481T564 1393V1783H714V0H564V114Q533 42 477 16T365 -11ZM409 114Q456 114 491 133T545 220T565 434V1037Q565 1219
538 1302T416 1385Q334 1384 306 1303T278 1030V436Q278 340 286 268T322 155T409 114Z" />
<glyph unicode="e" horiz-adv-x="802" d="M421 -18Q318 -18 259 20T171 130T136 298T128 511V1014Q128 1120 137 1211T175 1372T264 1479T425 1518Q526 1518 582 1479T662 1369T692 1205T698 1002V752H277V450Q277 278 299 196T419 113Q481 113 508 152T542 266T549
444V556H694V507Q694 393 690 298T661 131T581 21T421 -18ZM277 877H549V1068Q549 1171 545 1242T515 1350T426 1387Q361 1387 329 1347T287 1233T277 1060V877Z" />
<glyph unicode="f" horiz-adv-x="608" d="M219 0V1329H79V1442H219V1512Q219 1644 265 1716T433 1789Q487 1789 526 1781T568 1771V1650Q523 1657 487 1657Q404 1657 387 1623T369 1534V1442H568V1329H369V0H219Z" />
<glyph unicode="g" horiz-adv-x="858" d="M423 -232Q341 -236 262 -210T134 -147L191 -32Q227 -59 284 -83T427 -105Q490 -102 527 -54T565 80V245Q533 172 485 150T381 127Q277 127 222 193T148 374T128 632V1013Q128 1156 155 1271T243 1453T406 1518Q456 1517
499 1494T565 1412V1500H714V97Q714 57 704 3T663 -103T575 -191T423 -232ZM436 255Q481 255 509 282T551 387T565 614V1050Q565 1223 541 1305T424 1387Q358 1387 327 1345T286 1227T277 1052V611Q277 426 309 341T436 255Z" />
<glyph unicode="h" horiz-adv-x="921" d="M160 0V1783H309V1353Q329 1417 397 1468T553 1519Q649 1519 711 1446T773 1211V0H623V1201Q623 1310 584 1345T485 1381Q444 1381 403 1365T336 1307T309 1191V0H160Z" />
<glyph unicode="i" horiz-adv-x="474" d="M162 0V1500H312V0H162ZM162 1638V1783H311V1638H162Z" />
<glyph unicode="j" horiz-adv-x="479" d="M176 -223Q144 -223 114 -221T68 -216V-110Q83 -111 99 -112T133 -114Q159 -114 167 -93T176 -44V1500H325V-34Q325 -112 304 -152T248 -208T176 -223ZM176 1638V1783H325V1638H176Z" />
<glyph unicode="k" horiz-adv-x="835" d="M160 0V1783H309V760L640 1500H789L448 756L807 0H651L309 742V0H160Z" />
<glyph unicode="l" horiz-adv-x="465" d="M162 0V1783H312V0H162Z" />
<glyph unicode="m" horiz-adv-x="1360" d="M160 0V1500H309V1351Q328 1415 390 1467T538 1519Q609 1519 661 1482T739 1367Q775 1434 843 1476T993 1519Q1086 1519 1149 1448T1212 1217V0H1062V1226Q1062 1315 1024 1348T925 1381Q833 1381 797 1348T760 1217V0H611V1226Q611
1318 573 1349T475 1381Q396 1381 353 1338T309 1209V0H160Z" />
<glyph unicode="n" horiz-adv-x="920" d="M160 0V1500H309V1353Q329 1417 396 1468T551 1519Q648 1519 710 1446T772 1211V0H623V1223Q623 1315 581 1351T478 1387Q437 1387 398 1373T334 1323T309 1220V0H160Z" />
<glyph unicode="o" horiz-adv-x="845" d="M426 -18Q322 -18 262 21T173 131T136 300T128 515V1018Q128 1159 146 1272T228 1452T426 1518Q527 1518 586 1480T673 1374T709 1215T717 1018V515Q717 400 710 303T676 134T590 22T426 -18ZM426 113Q488 113 518 157T558
279T568 463V1053Q568 1152 559 1227T519 1344T426 1387Q359 1387 327 1345T286 1227T277 1053V463Q277 358 286 280T328 157T426 113Z" />
<glyph unicode="p" horiz-adv-x="876" d="M163 -265V1500H312V1385Q343 1458 398 1484T511 1511Q614 1511 664 1446T731 1269T748 1013V475Q748 335 726 223T644 47T472 -18Q419 -18 376 19T312 108V-265H163ZM464 115Q546 116 572 197T599 468V1061Q599 1160
592 1233T557 1346T470 1386Q422 1386 387 1365T332 1275T312 1059V463Q312 282 341 199T464 115Z" />
<glyph unicode="q" horiz-adv-x="853" d="M565 -265V106Q544 56 501 19T404 -18Q291 -18 232 47T150 226T128 479V1013Q128 1156 144 1268T210 1446T364 1511Q423 1511 478 1483T565 1381V1500H715V-265H565ZM406 114Q454 114 489 134T544 224T564 441V1037Q564
1216 536 1300T412 1385Q330 1384 303 1303T276 1031V437Q276 290 297 202T406 114Z" />
<glyph unicode="r" horiz-adv-x="605" d="M160 0V1500H309V1333Q335 1420 399 1469T564 1518Q566 1518 566 1499T567 1455T567 1410T567 1391Q518 1391 474 1379T390 1335T309 1246V0H160Z" />
<glyph unicode="s" horiz-adv-x="744" d="M406 -20Q249 -20 176 81T102 407V536H251V433Q251 281 286 199T393 116Q466 116 497 163T529 334Q529 390 522 443T485 551T388 670L277 775Q174 872 134 972T93 1186Q93 1354 171 1436T375 1518Q459 1518 521 1476T618
1331T653 1051V957H513V1078Q513 1236 481 1308T378 1381Q302 1381 273 1317T243 1150Q243 1104 253 1062T293 972T386 864L491 761Q597 658 640 552T683 325Q683 172 617 76T406 -20Z" />
<glyph unicode="t" horiz-adv-x="585" d="M423 -9Q327 -9 280 12T217 83T201 217V1384H51V1500H201V1760H351V1500H528V1384H351V209Q351 169 360 150T407 124T527 118V-9H423Z" />
<glyph unicode="u" horiz-adv-x="914" d="M385 -20Q338 -20 283 6T188 99T148 285V1500H297V292Q297 204 337 162T444 119Q523 119 567 168T612 303L610 1500H761V0H612V150Q594 86 533 33T385 -20Z" />
<glyph unicode="v" horiz-adv-x="718" d="M287 0L58 1500H194L312 690L363 241H369L414 691L524 1500H660L436 0H287Z" />
<glyph unicode="w" horiz-adv-x="1080" d="M236 0L60 1500H197L287 613L311 302H323L353 614L479 1500H526H580H606L743 646L783 302H793L813 648L888 1500H1020L846 0H698L551 1283L378 0H236Z" />
<glyph unicode="x" horiz-adv-x="668" d="M33 0L270 762L51 1500H181L341 973L490 1500H632L400 779L636 0H497L326 574L165 0H33Z" />
<glyph unicode="y" horiz-adv-x="745" d="M133 -238V-110H188Q230 -110 266 -108T311 -99Q328 -82 325 -46T314 38L64 1500H214L333 707L381 299H394L437 707L544 1500H693L454 3Q440 -87 424 -140T371 -215T257 -238H133Z" />
<glyph unicode="z" horiz-adv-x="621" d="M80 0V108L409 1371H105V1500H568V1407L234 130H548V0H80Z" />
<glyph unicode="{" horiz-adv-x="628" d="M450 -81Q361 -81 311 -51T242 54T222 258V553Q222 660 213 715T175 790T84 810V891Q145 891 174 910T213 985T222 1148V1443Q222 1574 241 1648T311 1752T450 1783H510V1658Q448 1658 418 1641T379 1575T370 1430V1164Q370
1069 361 1009T326 911T251 850Q300 827 325 790T360 693T370 537V271Q370 175 379 126T418 60T510 43V-81H450Z" />
<glyph unicode="|" horiz-adv-x="481" d="M166 -134V1783H315V-134H166Z" />
<glyph unicode="}" horiz-adv-x="628" d="M118 -81V43Q180 43 210 60T249 126T258 271V537Q258 632 267 692T302 790T377 850Q328 874 303 911T268 1008T258 1164V1430Q258 1526 249 1575T210 1641T118 1658V1783H178Q268 1783 317 1753T386 1648T406 1443V1148Q406
1041 415 986T453 911T544 891V810Q483 810 454 791T415 716T406 553V258Q406 128 387 54T318 -50T178 -81H118Z" />
<glyph unicode="~" horiz-adv-x="1049" d="M229 840L111 875Q134 1000 181 1050T295 1101Q334 1101 398 1084T532 1044T659 1004T740 986Q775 986 791 1017T815 1140L938 1123Q932 1049 918 998T881 914T829 868T762 853Q719 853 655 870T522 909T398 950T317
970Q277 973 259 937T229 840Z" />
<glyph unicode="&#xa0;" horiz-adv-x="460" />
<glyph unicode="&#xa1;" horiz-adv-x="501" d="M281 1132L344 -260H156L221 1132H281ZM345 1500V1298H159V1500H345Z" />
<glyph unicode="&#xa2;" horiz-adv-x="803" d="M380 1503V1760H473V1503H380ZM380 -249V6H473V-249H380ZM418 -18Q316 -18 257 21T171 131T136 298T128 511V1028Q128 1164 147 1275T230 1452T425 1518Q527 1518 583 1482T664 1380T694 1222T700 1020V973H549V1065Q549
1170 544 1240T514 1345T426 1381Q359 1381 328 1341T287 1229T277 1057V455Q277 339 285 265T323 155T419 119Q482 119 509 158T542 270T549 449V562H700V517Q700 400 695 302T666 133T583 22T418 -18Z" />
<glyph unicode="&#xa3;" horiz-adv-x="830" d="M118 0V86Q200 137 248 186T315 296T330 441T305 647Q298 690 291 732T275 817H88V920H256L220 1097Q205 1171 194 1252T182 1386Q182 1579 250 1681T475 1783Q552 1783 615 1754T717 1641T756 1392V1246H627V1404Q627
1515 610 1569T561 1640T483 1658Q436 1658 401 1639T346 1566T326 1409Q326 1363 336 1282T361 1120L398 920H700V817H418Q426 774 433 731T448 643Q477 477 474 374T436 210T329 110H778V0H118Z" />
<glyph unicode="&#xa4;" horiz-adv-x="1159" d="M274 492L125 642L216 733Q163 831 163 947Q163 1064 215 1161L125 1251L274 1401L361 1313Q458 1368 579 1368Q700 1368 797 1314L884 1401L1034 1252L944 1162Q998 1065 998 947Q998 829 944 731L1034 641L884
492L795 580Q703 528 579 528Q455 528 363 581L274 492ZM579 631Q670 631 736 674T839 789T876 949Q876 1084 796 1173T579 1262Q489 1262 423 1220T320 1106T283 947Q283 860 319 788T422 674T579 631Z" />
<glyph unicode="&#xa5;" horiz-adv-x="786" d="M57 462V544H392V741H57V824H733V741H445V544H733V462H57ZM334 0V772L16 1760H166L407 982H410L616 1760H770L483 773V0H334Z" />
<glyph unicode="&#xa6;" horiz-adv-x="480" d="M166 -84V724H314V-84H166ZM166 931V1760H314V931H166Z" />
<glyph unicode="&#xa7;" horiz-adv-x="764" d="M419 -20Q262 -18 196 77T129 397V526H266V409Q266 257 296 185T397 104Q471 97 520 139T564 310Q561 386 528 450T444 571T340 682L254 768Q198 824 162 885T126 1015Q126 1062 138 1121T208 1236Q166 1305 148
1361T127 1475Q123 1586 157 1653T255 1752T407 1783Q560 1783 620 1683T680 1360V1220H547V1327Q547 1483 523 1570T415 1658Q379 1658 345 1648T287 1604T263 1500Q262 1429 277 1383T330 1288T433 1160L516 1060Q550 1019 577 975T621 879T637 766Q637 740 631
713T614 657T591 600Q638 540 664 464T696 325Q711 172 641 76T419 -20ZM512 681Q516 693 517 715T519 759Q519 824 495 874T417 988T270 1152Q250 1123 245 1098T241 1040Q244 979 286 922T390 805T512 681Z" />
<glyph unicode="&#xa8;" horiz-adv-x="712" d="M480 1640V1773H662V1640H480ZM50 1640V1773H232V1640H50Z" />
<glyph unicode="&#xa9;" horiz-adv-x="1466" d="M733 168Q593 168 478 219T279 362T150 577T104 844Q104 988 149 1110T278 1325T477 1468T733 1519Q873 1519 988 1468T1187 1325T1316 1111T1362 844Q1362 700 1317 577T1188 362T989 219T733 168ZM733 236Q855
236 957 283T1133 413T1248 606T1289 844Q1289 1013 1218 1150T1022 1369T733 1451Q611 1451 509 1404T333 1274T218 1081T177 844Q177 675 248 537T444 318T733 236ZM736 393Q632 393 571 448T509 624V1036Q509 1166 562 1232T740 1299Q841 1299 894 1246T947
1097V961H850V1044Q850 1130 826 1167T734 1205Q661 1205 639 1165T616 1057V629Q616 559 642 520T734 480Q802 480 826 515T850 629V741H951V627Q951 515 905 454T736 393Z" />
<glyph unicode="&#xaa;" horiz-adv-x="765" d="M362 553Q266 553 219 634T171 866V1019Q171 1083 198 1128T272 1207T384 1270T521 1331V1423Q521 1516 516 1571T489 1652T417 1677Q341 1677 323 1614T305 1404V1374H185V1407Q185 1479 190 1546T217 1667T285
1752T416 1783Q530 1783 576 1733T632 1585T641 1347V563H521V655Q513 630 475 592T362 553ZM384 653Q431 653 469 680T521 732V1237Q422 1193 372 1163T306 1092T289 973V876Q289 755 307 704T384 653Z" />
<glyph unicode="&#xab;" horiz-adv-x="1304" d="M1065 414L599 699V794L1065 1065V915L753 749L1065 574V414ZM542 414L76 699V794L542 1065V915L230 749L542 574V414Z" />
<glyph unicode="&#xac;" horiz-adv-x="947" d="M701 439V743H97V858H826V439H701Z" />
<glyph unicode="&#xad;" horiz-adv-x="696" d="M90 626V741H606V626H90Z" />
<glyph unicode="&#xae;" horiz-adv-x="1502" d="M527 446V1298H740Q845 1298 911 1253T978 1092V1075Q978 1006 945 967T858 910Q898 903 932 872T967 787V446H849V748Q849 818 824 841T753 864T647 864V446H527ZM648 951H726Q790 951 826 983T863 1076Q863 1159
820 1184T648 1210V951ZM733 271Q855 271 960 316T1143 443T1265 631T1309 862Q1309 1027 1233 1161T1027 1374T733 1453Q611 1453 506 1408T323 1281T201 1093T157 862Q157 698 233 564T439 350T733 271ZM733 205Q593 205 474 254T265 393T126 602T76 862Q76 1002
125 1121T264 1330T473 1469T733 1519Q873 1519 992 1470T1201 1331T1340 1122T1390 862Q1390 722 1341 603T1202 394T993 255T733 205Z" />
<glyph unicode="&#xaf;" horiz-adv-x="616" d="M50 1640V1755H566V1640H50Z" />
<glyph unicode="&#xb0;" horiz-adv-x="863" d="M431 1114Q345 1114 267 1151T138 1262T88 1448Q88 1560 138 1634T267 1745T431 1783Q517 1783 596 1746T725 1634T775 1448Q775 1337 725 1263T596 1151T431 1114ZM432 1201Q490 1201 543 1228T629 1310T663 1448Q663
1532 629 1586T543 1668T432 1695Q374 1695 321 1668T235 1587T201 1449Q201 1365 235 1310T322 1228T432 1201Z" />
<glyph unicode="&#xb1;" horiz-adv-x="854" d="M368 554V820H138V926H368V1185H486V926H720V820H486V554H368ZM173 259V377H689V259H173Z" />
<glyph unicode="&#xb2;" horiz-adv-x="861" d="M264 420V492Q264 512 282 567T330 697T391 850T451 994T495 1100T507 1135Q530 1184 545 1268T560 1422Q560 1534 548 1589T516 1662T471 1681Q446 1681 424 1663T389 1587T375 1410V1232H259L260 1314Q260 1459
271 1562T329 1722T488 1778Q550 1778 586 1745T641 1656T664 1535T670 1406Q670 1298 643 1207T576 1033T493 868T418 695T375 498H651V420H264Z" />
<glyph unicode="&#xb3;" horiz-adv-x="880" d="M438 542Q325 542 279 625T233 880V909H333V879Q333 731 351 679T438 626Q505 626 529 682T553 878Q553 1033 519 1086T410 1140H379V1227H408Q458 1227 489 1241T535 1306T550 1462Q550 1561 535 1609T494 1673T436
1689Q407 1689 385 1672T350 1605T337 1459V1437H237V1460Q237 1615 281 1695T438 1775Q551 1775 600 1695T649 1460Q649 1357 622 1282T530 1181Q593 1153 622 1064T651 876Q651 706 600 624T438 542Z" />
<glyph unicode="&#xb4;" horiz-adv-x="354" d="M50 1640L144 1972H304L119 1640H50Z" />
<glyph unicode="&#xb5;" horiz-adv-x="914" d="M385 -20Q338 -20 283 6T188 99T148 285V1500H297V292Q297 204 337 162T444 119Q523 119 567 168T612 303L610 1500H761V0H612V150Q594 86 533 33T385 -20ZM148 483H297V-265H148V483Z" />
<glyph unicode="&#xb6;" horiz-adv-x="989" d="M430 0V1180Q276 1197 200 1278T123 1454Q123 1513 138 1568T200 1666T338 1735T580 1760H823V0H703V1620H550V0H430Z" />
<glyph unicode="&#xb7;" horiz-adv-x="480" d="M163 786V961H333V786H163Z" />
<glyph unicode="&#xb8;" horiz-adv-x="456" d="M137 -596Q97 -596 50 -587V-501Q145 -501 194 -481T262 -429T281 -359Q281 -291 232 -250T121 -196L161 0H218L227 -147Q323 -195 364 -256T406 -376Q406 -434 372 -484T276 -565T137 -596Z" />
<glyph unicode="&#xb9;" horiz-adv-x="626" d="M266 414V1585Q241 1551 193 1534T103 1517V1591Q143 1597 181 1617T253 1673T309 1760H377V414H266Z" />
<glyph unicode="&#xba;" horiz-adv-x="908" d="M477 527Q366 527 316 582T252 733T239 954V1358Q239 1472 253 1563T319 1707T477 1760Q584 1760 633 1707T696 1563T710 1358V954Q710 832 699 735T638 583T477 527ZM477 631Q553 631 571 709T590 913V1387Q590
1506 571 1579T477 1653Q396 1653 377 1580T358 1387V913Q358 786 376 709T477 631Z" />
<glyph unicode="&#xbb;" horiz-adv-x="1304" d="M716 414V574L1028 749L716 915V1065L1182 794V699L716 414ZM193 414V574L505 749L193 915V1065L659 794V699L193 414Z" />
<glyph unicode="&#xbc;" horiz-adv-x="1535" d="M489 0L948 1783H1068L607 0H489ZM267 424V1605Q241 1571 192 1554T100 1537V1612Q141 1619 181 1639T255 1696T312 1783H383V424H267ZM1190 0V244H916L911 314L1189 1224H1284V326H1393V244H1284V0H1190ZM1007
326H1190V989L1007 326Z" />
<glyph unicode="&#xbd;" horiz-adv-x="1620" d="M489 0L948 1783H1068L607 0H489ZM267 424V1605Q241 1571 192 1554T100 1537V1612Q141 1619 181 1639T255 1696T312 1783H383V424H267ZM1131 0V74Q1131 128 1149 199T1210 365L1377 724Q1409 792 1420 867T1431
1013Q1431 1125 1419 1180T1387 1254T1341 1273Q1316 1273 1294 1255T1258 1178T1244 1001V821H1127V904Q1127 1050 1138 1155T1197 1316T1358 1372Q1442 1372 1481 1320T1531 1182T1543 997Q1543 904 1526 826T1470 669L1305 315Q1263 227 1253 163T1243 98H1523V0H1131Z"
/>
<glyph unicode="&#xbe;" horiz-adv-x="1555" d="M568 0L1027 1783H1147L686 0H568ZM358 551Q241 551 194 635T147 893V924H252V893Q252 744 271 691T359 638Q427 638 451 694T475 892Q475 1048 441 1102T329 1157H298V1244H329Q380 1244 411 1259T458 1326T473
1482Q473 1581 458 1630T416 1695T357 1711Q327 1711 304 1693T269 1626T256 1480V1457H151V1481Q151 1638 196 1719T359 1800Q476 1800 527 1720T578 1481Q578 1376 550 1300T456 1199Q521 1170 550 1081T580 890Q580 718 527 635T358 551ZM1269 0V244H995L990
314L1268 1224H1363V326H1472V244H1363V0H1269ZM1086 326H1269V989L1086 326Z" />
<glyph unicode="&#xbf;" horiz-adv-x="708" d="M521 1008V692Q428 658 375 614T297 507T265 353T258 133Q258 -24 275 -91T353 -159Q418 -159 438 -99T459 127V342H591V137Q591 83 591 12T576 -126T509 -237T357 -281Q267 -281 219 -247T152 -150T129 -2T126 188Q126
361 150 475T232 656T396 752V1008H521ZM522 1502V1203H396V1502H522Z" />
<glyph unicode="&#xc0;" horiz-adv-x="818" d="M35 0L318 1760H470L783 0H639L581 362H229L176 0H35ZM248 473H561L399 1476H397L248 473ZM386 1900L201 2232H361L455 1900H386Z" />
<glyph unicode="&#xc1;" horiz-adv-x="818" d="M35 0L318 1760H470L783 0H639L581 362H229L176 0H35ZM248 473H561L399 1476H397L248 473ZM311 1900L405 2232H565L380 1900H311Z" />
<glyph unicode="&#xc2;" horiz-adv-x="818" d="M35 0L318 1760H470L783 0H639L581 362H229L176 0H35ZM248 473H561L399 1476H397L248 473ZM194 1900L315 2154H481L601 1900H484L398 2075L312 1900H194Z" />
<glyph unicode="&#xc3;" horiz-adv-x="818" d="M35 0L318 1760H470L783 0H639L581 362H229L176 0H35ZM248 473H561L399 1476H397L248 473ZM539 1900Q495 1900 450 1920T360 1961T273 1982Q257 1982 250 1980Q234 1976 224 1962T199 1921L106 1967Q126 2035 153
2062T211 2095T274 2100Q315 2100 363 2082T455 2046T524 2028H528Q542 2030 555 2042T584 2100L689 2071L680 2045Q649 1948 618 1924T539 1900Z" />
<glyph unicode="&#xc4;" horiz-adv-x="818" d="M35 0L318 1760H470L783 0H639L581 362H229L176 0H35ZM248 473H561L399 1476H397L248 473ZM522 1900V2033H704V1900H522ZM92 1900V2033H274V1900H92Z" />
<glyph unicode="&#xc5;" horiz-adv-x="818" d="M35 0L318 1760H470L783 0H639L581 362H229L176 0H35ZM248 473H561L399 1476H397L248 473ZM398 1900Q313 1900 271 1948T229 2052Q229 2108 271 2157T398 2206Q484 2206 525 2157T567 2052Q567 1997 526 1949T398
1900ZM398 1951Q448 1951 473 1983T498 2053Q498 2091 473 2123T398 2155Q350 2155 326 2123T301 2053Q301 2015 325 1983T398 1951Z" />
<glyph unicode="&#xc6;" horiz-adv-x="1074" d="M43 0L433 1760H989V1644H684V956H970V836H684V118H986V0H551V370H259L183 0H43ZM288 483H551V1646L533 1645L288 483Z" />
<glyph unicode="&#xc7;" horiz-adv-x="868" d="M448 -20Q319 -20 252 45T160 238T136 550V1251Q136 1363 147 1460T190 1629T285 1742T454 1783Q561 1783 621 1742T709 1626T744 1453T751 1239V1087H600V1257Q600 1453 575 1555T453 1658Q353 1658 319 1557T285
1258V552Q285 390 297 291T344 147T447 102Q545 102 572 205T600 551V692H750V552Q750 368 728 240T641 46T448 -20ZM383 -596Q343 -596 296 -587V-501Q391 -501 440 -481T508 -429T527 -359Q527 -291 478 -250T367 -196L407 0H464L473 -147Q569 -195 610 -256T652
-376Q652 -434 618 -484T522 -565T383 -596Z" />
<glyph unicode="&#xc8;" horiz-adv-x="716" d="M166 0V1760H631V1644H315V956H612V835H315V118H628V0H166ZM386 1900L201 2232H361L455 1900H386Z" />
<glyph unicode="&#xc9;" horiz-adv-x="716" d="M166 0V1760H631V1644H315V956H612V835H315V118H628V0H166ZM311 1900L405 2232H565L380 1900H311Z" />
<glyph unicode="&#xca;" horiz-adv-x="716" d="M166 0V1760H631V1644H315V956H612V835H315V118H628V0H166ZM194 1900L315 2154H481L601 1900H484L398 2075L312 1900H194Z" />
<glyph unicode="&#xcb;" horiz-adv-x="716" d="M166 0V1760H631V1644H315V956H612V835H315V118H628V0H166ZM522 1900V2033H704V1900H522ZM92 1900V2033H274V1900H92Z" />
<glyph unicode="&#xcc;" horiz-adv-x="485" d="M168 0V1760H317V0H168ZM231 1900L46 2232H206L300 1900H231Z" />
<glyph unicode="&#xcd;" horiz-adv-x="485" d="M168 0V1760H317V0H168ZM156 1900L250 2232H410L225 1900H156Z" />
<glyph unicode="&#xce;" horiz-adv-x="485" d="M168 0V1760H317V0H168ZM39 1900L160 2154H326L446 1900H329L243 2075L157 1900H39Z" />
<glyph unicode="&#xcf;" horiz-adv-x="485" d="M168 0V1760H317V0H168ZM367 1900V2033H549V1900H367ZM-63 1900V2033H119V1900H-63Z" />
<glyph unicode="&#xd0;" horiz-adv-x="914" d="M166 0V1760H437Q580 1760 653 1699T752 1524T778 1258V504Q778 321 745 211T635 50T431 0H166ZM314 128H437Q502 128 544 158T608 272T629 519V1274Q629 1469 584 1552T446 1636H314V128ZM33 839V920H500V839H33Z" />
<glyph unicode="&#xd1;" horiz-adv-x="983" d="M166 0V1760H270L702 399L687 1005V1760H817V0H701L296 1326L306 850V0H166ZM633 1900Q589 1900 544 1920T454 1961T367 1982Q351 1982 344 1980Q328 1976 318 1962T293 1921L200 1967Q220 2035 247 2062T305 2095T368
2100Q409 2100 457 2082T549 2046T618 2028H622Q636 2030 649 2042T678 2100L783 2071L774 2045Q743 1948 712 1924T633 1900Z" />
<glyph unicode="&#xd2;" horiz-adv-x="891" d="M447 -20Q320 -20 253 38T161 215T136 519V1268Q136 1420 157 1536T245 1717T454 1783Q560 1783 621 1746T710 1639T747 1476T755 1268V519Q755 335 731 216T641 38T447 -20ZM447 102Q511 102 545 139T593 267T606
519V1280Q606 1479 578 1568T454 1658Q354 1658 320 1568T285 1281V519Q285 358 298 267T346 139T447 102ZM434 1900L249 2232H409L503 1900H434Z" />
<glyph unicode="&#xd3;" horiz-adv-x="891" d="M447 -20Q320 -20 253 38T161 215T136 519V1268Q136 1420 157 1536T245 1717T454 1783Q560 1783 621 1746T710 1639T747 1476T755 1268V519Q755 335 731 216T641 38T447 -20ZM447 102Q511 102 545 139T593 267T606
519V1280Q606 1479 578 1568T454 1658Q354 1658 320 1568T285 1281V519Q285 358 298 267T346 139T447 102ZM359 1900L453 2232H613L428 1900H359Z" />
<glyph unicode="&#xd4;" horiz-adv-x="891" d="M447 -20Q320 -20 253 38T161 215T136 519V1268Q136 1420 157 1536T245 1717T454 1783Q560 1783 621 1746T710 1639T747 1476T755 1268V519Q755 335 731 216T641 38T447 -20ZM447 102Q511 102 545 139T593 267T606
519V1280Q606 1479 578 1568T454 1658Q354 1658 320 1568T285 1281V519Q285 358 298 267T346 139T447 102ZM242 1900L363 2154H529L649 1900H532L446 2075L360 1900H242Z" />
<glyph unicode="&#xd5;" horiz-adv-x="891" d="M447 -20Q320 -20 253 38T161 215T136 519V1268Q136 1420 157 1536T245 1717T454 1783Q560 1783 621 1746T710 1639T747 1476T755 1268V519Q755 335 731 216T641 38T447 -20ZM447 102Q511 102 545 139T593 267T606
519V1280Q606 1479 578 1568T454 1658Q354 1658 320 1568T285 1281V519Q285 358 298 267T346 139T447 102ZM587 1900Q543 1900 498 1920T408 1961T321 1982Q305 1982 298 1980Q282 1976 272 1962T247 1921L154 1967Q174 2035 201 2062T259 2095T322 2100Q363 2100
411 2082T503 2046T572 2028H576Q590 2030 603 2042T632 2100L737 2071L728 2045Q697 1948 666 1924T587 1900Z" />
<glyph unicode="&#xd6;" horiz-adv-x="891" d="M447 -20Q320 -20 253 38T161 215T136 519V1268Q136 1420 157 1536T245 1717T454 1783Q560 1783 621 1746T710 1639T747 1476T755 1268V519Q755 335 731 216T641 38T447 -20ZM447 102Q511 102 545 139T593 267T606
519V1280Q606 1479 578 1568T454 1658Q354 1658 320 1568T285 1281V519Q285 358 298 267T346 139T447 102ZM570 1900V2033H752V1900H570ZM140 1900V2033H322V1900H140Z" />
<glyph unicode="&#xd7;" horiz-adv-x="710" d="M168 394L84 478L272 665L84 852L168 936L355 748L542 936L626 852L438 665L626 478L542 394L355 582L168 394Z" />
<glyph unicode="&#xd8;" horiz-adv-x="891" d="M256 -225L197 -206L666 1956L733 1941L256 -225ZM447 -20Q320 -20 253 38T161 215T136 519V1268Q136 1420 157 1536T245 1717T454 1783Q560 1783 621 1746T710 1639T747 1476T755 1268V519Q755 335 731 216T641
38T447 -20ZM447 102Q511 102 545 139T593 267T606 519V1280Q606 1479 578 1568T454 1658Q354 1658 320 1568T285 1281V519Q285 358 298 267T346 139T447 102Z" />
<glyph unicode="&#xd9;" horiz-adv-x="915" d="M459 -20Q335 -20 268 31T174 187T148 452V1760H297V457Q297 343 305 264T347 143T460 102Q539 102 572 143T611 263T618 456V1760H767V452Q767 292 742 188T651 32T459 -20ZM446 1900L261 2232H421L515 1900H446Z" />
<glyph unicode="&#xda;" horiz-adv-x="915" d="M459 -20Q335 -20 268 31T174 187T148 452V1760H297V457Q297 343 305 264T347 143T460 102Q539 102 572 143T611 263T618 456V1760H767V452Q767 292 742 188T651 32T459 -20ZM371 1900L465 2232H625L440 1900H371Z" />
<glyph unicode="&#xdb;" horiz-adv-x="915" d="M459 -20Q335 -20 268 31T174 187T148 452V1760H297V457Q297 343 305 264T347 143T460 102Q539 102 572 143T611 263T618 456V1760H767V452Q767 292 742 188T651 32T459 -20ZM254 1900L375 2154H541L661 1900H544L458
2075L372 1900H254Z" />
<glyph unicode="&#xdc;" horiz-adv-x="915" d="M459 -20Q335 -20 268 31T174 187T148 452V1760H297V457Q297 343 305 264T347 143T460 102Q539 102 572 143T611 263T618 456V1760H767V452Q767 292 742 188T651 32T459 -20ZM582 1900V2033H764V1900H582ZM152 1900V2033H334V1900H152Z"
/>
<glyph unicode="&#xdd;" horiz-adv-x="786" d="M334 0V772L16 1760H166L407 982H410L616 1760H770L483 773V0H334ZM306 1900L400 2232H560L375 1900H306Z" />
<glyph unicode="&#xde;" horiz-adv-x="865" d="M166 0V1760H315V1535H472Q578 1535 639 1498T730 1393T768 1232T777 1027V1007Q777 824 752 705T659 527T463 468H315V0H166ZM315 594H474Q536 594 569 631T616 759T629 1006V1042Q629 1234 601 1322T480 1411H315V594Z" />
<glyph unicode="&#xdf;" horiz-adv-x="933" d="M157 0V1417Q157 1508 163 1576T194 1691T279 1760T444 1783Q578 1783 649 1751T748 1639T775 1417V1220Q775 1134 760 1081T709 998T606 945Q694 924 744 883T814 764T835 553V476Q835 364 828 276T791 126T699
32T522 0H418V100Q539 100 596 124T670 211T687 395V656Q687 780 633 834T427 889V997Q540 997 586 1035T632 1170V1500Q632 1610 596 1648T457 1687Q372 1687 338 1649T304 1500V0H157Z" />
<glyph unicode="&#xe0;" horiz-adv-x="844" d="M366 -11Q247 -11 187 89T127 377V569Q127 649 160 705T253 803T392 881T563 956V1058Q563 1173 557 1245T524 1352T433 1387Q371 1387 342 1354T304 1246T295 1048V1011H145V1051Q145 1141 151 1225T184 1375T269
1479T433 1518Q539 1518 596 1483T678 1379T707 1209T712 976V0H563V112Q557 94 534 65T470 12T366 -11ZM393 113Q452 113 499 146T563 211V837Q470 795 413 765T326 704T286 627T275 509V390Q275 240 298 177T393 113ZM410 1640L225 1972H385L479 1640H410Z" />
<glyph unicode="&#xe1;" horiz-adv-x="844" d="M366 -11Q247 -11 187 89T127 377V569Q127 649 160 705T253 803T392 881T563 956V1058Q563 1173 557 1245T524 1352T433 1387Q371 1387 342 1354T304 1246T295 1048V1011H145V1051Q145 1141 151 1225T184 1375T269
1479T433 1518Q539 1518 596 1483T678 1379T707 1209T712 976V0H563V112Q557 94 534 65T470 12T366 -11ZM393 113Q452 113 499 146T563 211V837Q470 795 413 765T326 704T286 627T275 509V390Q275 240 298 177T393 113ZM335 1640L429 1972H589L404 1640H335Z" />
<glyph unicode="&#xe2;" horiz-adv-x="844" d="M366 -11Q247 -11 187 89T127 377V569Q127 649 160 705T253 803T392 881T563 956V1058Q563 1173 557 1245T524 1352T433 1387Q371 1387 342 1354T304 1246T295 1048V1011H145V1051Q145 1141 151 1225T184 1375T269
1479T433 1518Q539 1518 596 1483T678 1379T707 1209T712 976V0H563V112Q557 94 534 65T470 12T366 -11ZM393 113Q452 113 499 146T563 211V837Q470 795 413 765T326 704T286 627T275 509V390Q275 240 298 177T393 113ZM218 1640L339 1894H505L625 1640H508L422
1815L336 1640H218Z" />
<glyph unicode="&#xe3;" horiz-adv-x="844" d="M366 -11Q247 -11 187 89T127 377V569Q127 649 160 705T253 803T392 881T563 956V1058Q563 1173 557 1245T524 1352T433 1387Q371 1387 342 1354T304 1246T295 1048V1011H145V1051Q145 1141 151 1225T184 1375T269
1479T433 1518Q539 1518 596 1483T678 1379T707 1209T712 976V0H563V112Q557 94 534 65T470 12T366 -11ZM393 113Q452 113 499 146T563 211V837Q470 795 413 765T326 704T286 627T275 509V390Q275 240 298 177T393 113ZM563 1640Q519 1640 474 1660T384 1701T297
1722Q281 1722 274 1720Q258 1716 248 1702T223 1661L130 1707Q150 1775 177 1802T235 1835T298 1840Q339 1840 387 1822T479 1786T548 1768H552Q566 1770 579 1782T608 1840L713 1811L704 1785Q673 1688 642 1664T563 1640Z" />
<glyph unicode="&#xe4;" horiz-adv-x="844" d="M366 -11Q247 -11 187 89T127 377V569Q127 649 160 705T253 803T392 881T563 956V1058Q563 1173 557 1245T524 1352T433 1387Q371 1387 342 1354T304 1246T295 1048V1011H145V1051Q145 1141 151 1225T184 1375T269
1479T433 1518Q539 1518 596 1483T678 1379T707 1209T712 976V0H563V112Q557 94 534 65T470 12T366 -11ZM393 113Q452 113 499 146T563 211V837Q470 795 413 765T326 704T286 627T275 509V390Q275 240 298 177T393 113ZM546 1640V1773H728V1640H546ZM116 1640V1773H298V1640H116Z"
/>
<glyph unicode="&#xe5;" horiz-adv-x="844" d="M366 -11Q247 -11 187 89T127 377V569Q127 649 160 705T253 803T392 881T563 956V1058Q563 1173 557 1245T524 1352T433 1387Q371 1387 342 1354T304 1246T295 1048V1011H145V1051Q145 1141 151 1225T184 1375T269
1479T433 1518Q539 1518 596 1483T678 1379T707 1209T712 976V0H563V112Q557 94 534 65T470 12T366 -11ZM393 113Q452 113 499 146T563 211V837Q470 795 413 765T326 704T286 627T275 509V390Q275 240 298 177T393 113ZM422 1640Q337 1640 295 1688T253 1792Q253
1848 295 1897T422 1946Q508 1946 549 1897T591 1792Q591 1737 550 1689T422 1640ZM422 1691Q472 1691 497 1723T522 1793Q522 1831 497 1863T422 1895Q374 1895 350 1863T325 1793Q325 1755 349 1723T422 1691Z" />
<glyph unicode="&#xe6;" horiz-adv-x="1236" d="M851 -18Q756 -18 699 13T609 103Q586 81 544 54T452 8T355 -11Q237 -11 182 89T127 375V566Q127 647 161 703T255 801T395 879T566 956V1065Q566 1181 559 1252T525 1355T433 1388Q370 1388 341 1354T304 1244T295
1047V1011H145V1051Q145 1141 151 1225T184 1375T269 1479T433 1518Q520 1518 568 1495T638 1427Q673 1471 727 1494T860 1518Q961 1518 1016 1479T1096 1369T1126 1205T1132 1002V754H712V443Q712 332 720 259T758 149T854 113Q915 113 942 151T976 262T983 439V556H1128V505Q1128
391 1123 296T1094 130T1012 21T851 -18ZM393 112Q452 112 500 146T566 211V840Q473 798 416 768T328 705T286 628T275 511V390Q275 239 298 176T393 112ZM712 874H983V1068Q983 1171 979 1242T949 1350T860 1387Q795 1387 764 1347T722 1233T712 1063V874Z" />
<glyph unicode="&#xe7;" horiz-adv-x="803" d="M418 -18Q316 -18 257 21T171 131T136 298T128 511V1028Q128 1164 147 1275T230 1452T425 1518Q527 1518 583 1482T664 1380T694 1222T700 1020V973H549V1065Q549 1170 544 1240T514 1345T426 1381Q359 1381 328
1341T287 1229T277 1057V455Q277 339 285 265T323 155T419 119Q482 119 509 158T542 270T549 449V562H700V517Q700 400 695 302T666 133T583 22T418 -18ZM351 -596Q311 -596 264 -587V-501Q359 -501 408 -481T476 -429T495 -359Q495 -291 446 -250T335 -196L375
0H432L441 -147Q537 -195 578 -256T620 -376Q620 -434 586 -484T490 -565T351 -596Z" />
<glyph unicode="&#xe8;" horiz-adv-x="802" d="M421 -18Q318 -18 259 20T171 130T136 298T128 511V1014Q128 1120 137 1211T175 1372T264 1479T425 1518Q526 1518 582 1479T662 1369T692 1205T698 1002V752H277V450Q277 278 299 196T419 113Q481 113 508 152T542
266T549 444V556H694V507Q694 393 690 298T661 131T581 21T421 -18ZM277 877H549V1068Q549 1171 545 1242T515 1350T426 1387Q361 1387 329 1347T287 1233T277 1060V877ZM389 1640L204 1972H364L458 1640H389Z" />
<glyph unicode="&#xe9;" horiz-adv-x="802" d="M421 -18Q318 -18 259 20T171 130T136 298T128 511V1014Q128 1120 137 1211T175 1372T264 1479T425 1518Q526 1518 582 1479T662 1369T692 1205T698 1002V752H277V450Q277 278 299 196T419 113Q481 113 508 152T542
266T549 444V556H694V507Q694 393 690 298T661 131T581 21T421 -18ZM277 877H549V1068Q549 1171 545 1242T515 1350T426 1387Q361 1387 329 1347T287 1233T277 1060V877ZM314 1640L408 1972H568L383 1640H314Z" />
<glyph unicode="&#xea;" horiz-adv-x="802" d="M421 -18Q318 -18 259 20T171 130T136 298T128 511V1014Q128 1120 137 1211T175 1372T264 1479T425 1518Q526 1518 582 1479T662 1369T692 1205T698 1002V752H277V450Q277 278 299 196T419 113Q481 113 508 152T542
266T549 444V556H694V507Q694 393 690 298T661 131T581 21T421 -18ZM277 877H549V1068Q549 1171 545 1242T515 1350T426 1387Q361 1387 329 1347T287 1233T277 1060V877ZM197 1640L318 1894H484L604 1640H487L401 1815L315 1640H197Z" />
<glyph unicode="&#xeb;" horiz-adv-x="802" d="M421 -18Q318 -18 259 20T171 130T136 298T128 511V1014Q128 1120 137 1211T175 1372T264 1479T425 1518Q526 1518 582 1479T662 1369T692 1205T698 1002V752H277V450Q277 278 299 196T419 113Q481 113 508 152T542
266T549 444V556H694V507Q694 393 690 298T661 131T581 21T421 -18ZM277 877H549V1068Q549 1171 545 1242T515 1350T426 1387Q361 1387 329 1347T287 1233T277 1060V877ZM525 1640V1773H707V1640H525ZM95 1640V1773H277V1640H95Z" />
<glyph unicode="&#xec;" horiz-adv-x="474" d="M162 0V1500H312V0H162ZM481 1640L296 1972H456L550 1640H481Z" />
<glyph unicode="&#xed;" horiz-adv-x="474" d="M162 0V1500H312V0H162ZM150 1640L244 1972H404L219 1640H150Z" />
<glyph unicode="&#xee;" horiz-adv-x="474" d="M162 0V1500H312V0H162ZM289 1640L410 1894H576L696 1640H579L493 1815L407 1640H289Z" />
<glyph unicode="&#xef;" horiz-adv-x="474" d="M162 0V1500H312V0H162ZM617 1640V1773H799V1640H617ZM187 1640V1773H369V1640H187Z" />
<glyph unicode="&#xf0;" horiz-adv-x="910" d="M431 -20Q304 -20 235 33T138 190T111 442V557Q111 758 139 880T237 1055T433 1103Q477 1102 530 1079T616 1009Q616 1009 615 1048T613 1146T609 1266T603 1374T596 1434L371 1299L318 1399L543 1534Q489 1598 420
1620T293 1640V1780Q411 1782 511 1743T678 1616L878 1735L931 1635L732 1516Q738 1498 743 1447T752 1326T758 1185T762 1053T763 958V506Q763 359 737 240T640 51T431 -20ZM431 107Q544 107 579 202T614 505V926Q600 929 548 953T425 978Q357 978 322 938T273
802T260 545V446Q260 308 275 235T327 134T431 107Z" />
<glyph unicode="&#xf1;" horiz-adv-x="920" d="M160 0V1500H309V1353Q329 1417 396 1468T551 1519Q648 1519 710 1446T772 1211V0H623V1223Q623 1315 581 1351T478 1387Q437 1387 398 1373T334 1323T309 1220V0H160ZM601 1640Q557 1640 512 1660T422 1701T335
1722Q319 1722 312 1720Q296 1716 286 1702T261 1661L168 1707Q188 1775 215 1802T273 1835T336 1840Q377 1840 425 1822T517 1786T586 1768H590Q604 1770 617 1782T646 1840L751 1811L742 1785Q711 1688 680 1664T601 1640Z" />
<glyph unicode="&#xf2;" horiz-adv-x="845" d="M426 -18Q322 -18 262 21T173 131T136 300T128 515V1018Q128 1159 146 1272T228 1452T426 1518Q527 1518 586 1480T673 1374T709 1215T717 1018V515Q717 400 710 303T676 134T590 22T426 -18ZM426 113Q488 113 518
157T558 279T568 463V1053Q568 1152 559 1227T519 1344T426 1387Q359 1387 327 1345T286 1227T277 1053V463Q277 358 286 280T328 157T426 113ZM411 1640L226 1972H386L480 1640H411Z" />
<glyph unicode="&#xf3;" horiz-adv-x="845" d="M426 -18Q322 -18 262 21T173 131T136 300T128 515V1018Q128 1159 146 1272T228 1452T426 1518Q527 1518 586 1480T673 1374T709 1215T717 1018V515Q717 400 710 303T676 134T590 22T426 -18ZM426 113Q488 113 518
157T558 279T568 463V1053Q568 1152 559 1227T519 1344T426 1387Q359 1387 327 1345T286 1227T277 1053V463Q277 358 286 280T328 157T426 113ZM336 1640L430 1972H590L405 1640H336Z" />
<glyph unicode="&#xf4;" horiz-adv-x="845" d="M426 -18Q322 -18 262 21T173 131T136 300T128 515V1018Q128 1159 146 1272T228 1452T426 1518Q527 1518 586 1480T673 1374T709 1215T717 1018V515Q717 400 710 303T676 134T590 22T426 -18ZM426 113Q488 113 518
157T558 279T568 463V1053Q568 1152 559 1227T519 1344T426 1387Q359 1387 327 1345T286 1227T277 1053V463Q277 358 286 280T328 157T426 113ZM219 1640L340 1894H506L626 1640H509L423 1815L337 1640H219Z" />
<glyph unicode="&#xf5;" horiz-adv-x="845" d="M426 -18Q322 -18 262 21T173 131T136 300T128 515V1018Q128 1159 146 1272T228 1452T426 1518Q527 1518 586 1480T673 1374T709 1215T717 1018V515Q717 400 710 303T676 134T590 22T426 -18ZM426 113Q488 113 518
157T558 279T568 463V1053Q568 1152 559 1227T519 1344T426 1387Q359 1387 327 1345T286 1227T277 1053V463Q277 358 286 280T328 157T426 113ZM564 1640Q520 1640 475 1660T385 1701T298 1722Q282 1722 275 1720Q259 1716 249 1702T224 1661L131 1707Q151 1775
178 1802T236 1835T299 1840Q340 1840 388 1822T480 1786T549 1768H553Q567 1770 580 1782T609 1840L714 1811L705 1785Q674 1688 643 1664T564 1640Z" />
<glyph unicode="&#xf6;" horiz-adv-x="845" d="M426 -18Q322 -18 262 21T173 131T136 300T128 515V1018Q128 1159 146 1272T228 1452T426 1518Q527 1518 586 1480T673 1374T709 1215T717 1018V515Q717 400 710 303T676 134T590 22T426 -18ZM426 113Q488 113 518
157T558 279T568 463V1053Q568 1152 559 1227T519 1344T426 1387Q359 1387 327 1345T286 1227T277 1053V463Q277 358 286 280T328 157T426 113ZM547 1640V1773H729V1640H547ZM117 1640V1773H299V1640H117Z" />
<glyph unicode="&#xf7;" horiz-adv-x="804" d="M94 708V823H710V708H94ZM343 327V535H471V327H343ZM343 976V1174H471V976H343Z" />
<glyph unicode="&#xf8;" horiz-adv-x="845" d="M284 -223L223 -215L561 1746L622 1738L284 -223ZM426 -18Q322 -18 262 21T173 131T136 300T128 515V1018Q128 1159 146 1272T228 1452T426 1518Q527 1518 586 1480T673 1374T709 1215T717 1018V515Q717 400 710
303T676 134T590 22T426 -18ZM426 113Q488 113 518 157T558 279T568 463V1053Q568 1152 559 1227T519 1344T426 1387Q359 1387 327 1345T286 1227T277 1053V463Q277 358 286 280T328 157T426 113Z" />
<glyph unicode="&#xf9;" horiz-adv-x="914" d="M385 -20Q338 -20 283 6T188 99T148 285V1500H297V292Q297 204 337 162T444 119Q523 119 567 168T612 303L610 1500H761V0H612V150Q594 86 533 33T385 -20ZM445 1640L260 1972H420L514 1640H445Z" />
<glyph unicode="&#xfa;" horiz-adv-x="914" d="M385 -20Q338 -20 283 6T188 99T148 285V1500H297V292Q297 204 337 162T444 119Q523 119 567 168T612 303L610 1500H761V0H612V150Q594 86 533 33T385 -20ZM370 1640L464 1972H624L439 1640H370Z" />
<glyph unicode="&#xfb;" horiz-adv-x="914" d="M385 -20Q338 -20 283 6T188 99T148 285V1500H297V292Q297 204 337 162T444 119Q523 119 567 168T612 303L610 1500H761V0H612V150Q594 86 533 33T385 -20ZM253 1640L374 1894H540L660 1640H543L457 1815L371 1640H253Z" />
<glyph unicode="&#xfc;" horiz-adv-x="914" d="M385 -20Q338 -20 283 6T188 99T148 285V1500H297V292Q297 204 337 162T444 119Q523 119 567 168T612 303L610 1500H761V0H612V150Q594 86 533 33T385 -20ZM581 1640V1773H763V1640H581ZM151 1640V1773H333V1640H151Z" />
<glyph unicode="&#xfd;" horiz-adv-x="745" d="M133 -238V-110H188Q230 -110 266 -108T311 -99Q328 -82 325 -46T314 38L64 1500H214L333 707L381 299H394L437 707L544 1500H693L454 3Q440 -87 424 -140T371 -215T257 -238H133ZM286 1640L380 1972H540L355 1640H286Z" />
<glyph unicode="&#xfe;" horiz-adv-x="875" d="M160 -265V1783H310V1385Q341 1458 396 1484T509 1511Q612 1511 663 1446T730 1269T747 1013V475Q747 335 725 224T642 48T470 -16Q417 -16 374 20T310 108V-265H160ZM461 106Q544 107 570 192T597 468V1062Q597
1161 590 1234T555 1347T468 1387Q419 1387 384 1366T329 1275T310 1059V463Q310 282 338 194T461 106Z" />
<glyph unicode="&#xff;" horiz-adv-x="745" d="M133 -238V-110H188Q230 -110 266 -108T311 -99Q328 -82 325 -46T314 38L64 1500H214L333 707L381 299H394L437 707L544 1500H693L454 3Q440 -87 424 -140T371 -215T257 -238H133ZM497 1640V1773H679V1640H497ZM67
1640V1773H249V1640H67Z" />
<glyph unicode="&#x2013;" horiz-adv-x="756" d="M120 626V741H636V626H120Z" />
<glyph unicode="&#x2014;" horiz-adv-x="1153" d="M100 626V741H1052V626H100Z" />
<glyph unicode="&#x2018;" horiz-adv-x="597" d="M167 1163V1356L281 1783H387L296 1365H438V1163H167Z" />
<glyph unicode="&#x2019;" horiz-adv-x="597" d="M240 1163L331 1580H189V1783H460V1589L346 1163H240Z" />
<glyph unicode="&#x201a;" horiz-adv-x="484" d="M166 -437L259 0H113V207H388V9L269 -437H166Z" />
<glyph unicode="&#x201c;" horiz-adv-x="1030" d="M623 1149V1346L742 1783H845L752 1355H898V1149H623ZM176 1149V1346L295 1783H399L305 1355H451V1149H176Z" />
<glyph unicode="&#x201d;" horiz-adv-x="1077" d="M690 1148L783 1576H638V1783H913V1585L793 1148H690ZM243 1148L337 1576H191V1783H466V1585L346 1148H243Z" />
<glyph unicode="&#x201e;" horiz-adv-x="1016" d="M680 -428L774 0H628V206H903V9L783 -428H680ZM233 -428L327 0H181V206H456V9L336 -428H233Z" />
<glyph unicode="&#x2022;" horiz-adv-x="861" d="M430 633Q330 633 279 690T227 861Q227 974 278 1031T430 1089Q531 1089 582 1032T634 861Q634 748 583 691T430 633Z" />
<glyph unicode="&#x2039;" horiz-adv-x="606" d="M548 414L82 699V794L548 1065V915L236 749L548 574V414Z" />
<glyph unicode="&#x203a;" horiz-adv-x="727" d="M166 414V574L478 749L166 915V1065L632 794V699L166 414Z" />
</font>
</defs>
</svg>
