<?xml version="1.0" standalone="no"?>
<!DOCTYPE svg PUBLIC "-//W3C//DTD SVG 1.1//EN" "http://www.w3.org/Graphics/SVG/1.1/DTD/svg11.dtd">
<svg xmlns="http://www.w3.org/2000/svg">
<defs >
<font id="CormorantGaramond" horiz-adv-x="542" ><font-face
    font-family="Cormorant Garamond SemiBold"
    units-per-em="1000"
    panose-1="0 0 0 0 0 0 0 0 0 0"
    ascent="924"
    descent="-287"
    alphabetic="0" />
<glyph unicode=" " glyph-name="space" horiz-adv-x="234" />
<glyph unicode="!" glyph-name="exclam" horiz-adv-x="258" d="M66 623T86 626T129 629Q151 629 171 626T191 617Q171 539 162 449T142 221L140 189Q140 185 127 185Q113 185 113 189Q106 329 97 430T67 617Q66 623 86 626ZM98 -11T83 4T68 44Q68 68 83 82T123
96Q149 96 163 82T177 44Q177 18 163 4T123 -11Q98 -11 83 4Z" />
<glyph unicode="&quot;" glyph-name="quotedbl" horiz-adv-x="295" d="M32 618T62 629T116 640Q131 640 130 633L71 366Q69 364 63 363T56 365L33 607Q32 618 62 629ZM181 618T211 629T264 640Q280 640 279 633L220 366Q218 364 212 363T205 365L182 607Q181 618
211 629Z" />
<glyph unicode="#" glyph-name="numbersign" horiz-adv-x="526" d="M147 -86T123 -83T101 -75L200 482Q200 487 223 482T245 472L147 -82Q147 -86 123 -83ZM334 -86T310 -83T288 -75L387 482Q387 487 410 482T432 472L334 -82Q334 -86 310 -83ZM61 75T60 82T58
99Q58 107 59 113T62 120H428Q430 120 431 113T433 98Q433 89 432 82T428 75H63Q61 75 60 82ZM96 274T95 281T93 298Q93 305 94 311T97 318H463Q465 318 466 311T468 296Q468 288 467 281T463 274H98Q96 274 95 281Z" />
<glyph unicode="$" glyph-name="dollar" horiz-adv-x="418" d="M204 565T208 567T218 569Q223 569 227 567T231 561V-102Q231 -109 218 -109Q204 -109 204 -102V561Q204 565 208 567ZM132 361T148 340T188 305T252 270Q295 248 320 231T364 189T382 128Q382 89
360 57T298 7T207 -12Q165 -12 126 -2T67 24Q59 29 59 45L52 153Q52 157 57 158T64 155Q91 95 132 52T224 9Q258 9 281 28T304 86Q304 118 287 142T246 182T180 221Q141 242 117 258T77 299T60 355Q60 413 108 446T226 480Q255 480 286 474T340 457Q349 453 352
449T355 438L358 346Q358 342 353 341T346 343Q340 363 322 390T275 438T208 460Q171 460 152 441T132 390Q132 361 148 340Z" />
<glyph unicode="%" glyph-name="percent" horiz-adv-x="574" d="M94 303T58 340T21 433Q21 486 57 523T150 560Q205 560 241 523T277 430Q277 376 241 340T150 303Q94 303 58 340ZM185 317T194 344T203 423Q203 483 188 514T144 546Q115 546 105 517T94 436Q94
317 157 317Q185 317 194 344ZM371 -5T335 32T298 125Q298 178 335 215T427 253Q482 253 518 215T554 123Q554 69 518 32T427 -5Q371 -5 335 32ZM462 10T471 36T480 116Q480 176 465 207T421 238Q393 238 383 209T372 129Q372 10 434 10Q462 10 471 36ZM107 -10T93
-1T81 11L451 555Q454 558 468 548T480 536L109 -7Q107 -10 93 -1Z" />
<glyph unicode="&amp;" glyph-name="ampersand" horiz-adv-x="709" d="M361 571T340 596T283 621Q222 621 222 541Q222 440 305 330T511 127Q577 78 630 49T715 12Q719 11 719 6T715 0H571Q528 0 410 96Q336 155 270 226T169 362Q155 391 148 416T140 470Q140
520 162 560T226 623T323 646Q380 646 415 621T451 546Q451 508 431 477T382 423T303 367Q253 334 224 310T174 254T153 183Q153 143 175 108T238 51T332 30Q417 30 463 87T510 239Q510 290 493 313T432 337Q430 337 430 343T432 349L660 350Q664 350 664 344T660
338Q629 338 614 332T591 312T575 268Q555 196 525 137T431 33T266 -12Q199 -12 154 8T87 62T65 133Q65 170 84 201T131 258T207 318Q258 356 288 383T340 447T361 527Q361 571 340 596Z" />
<glyph unicode="&apos;" glyph-name="quotesingle" horiz-adv-x="147" d="M32 618T62 629T116 640Q131 640 130 633L71 366Q69 364 63 363T56 365L33 607Q32 618 62 629Z" />
<glyph unicode="(" glyph-name="parenleft" horiz-adv-x="309" d="M51 446T110 559T274 725Q276 726 278 724T278 719Q211 649 180 546T149 304Q149 166 180 63T278 -111Q280 -112 278 -115T274 -117Q169 -63 110 49T51 304Q51 446 110 559Z" />
<glyph unicode=")" glyph-name="parenright" horiz-adv-x="309" d="M258 162T199 49T35 -117Q33 -118 31 -116T31 -111Q98 -41 129 62T160 304Q160 442 129 545T31 719Q29 720 31 723T35 725Q140 671 199 559T258 304Q258 162 199 49Z" />
<glyph unicode="*" glyph-name="asterisk" horiz-adv-x="448" d="M151 368T142 368Q129 368 106 377T66 396T53 409L206 491L208 492Q211 492 213 490T215 485L152 372Q151 368 142 368ZM231 483T235 486T241 488L330 393Q336 386 321 364T285 324T264 311L232
481Q231 483 235 486ZM66 536T66 569Q66 594 71 619T81 641L207 520Q209 519 208 515T204 511L76 535Q66 536 66 569ZM248 504T247 508T248 513L365 569Q374 573 390 551T418 505T424 480L250 504Q248 504 247 508ZM209 668T244 678T302 689Q313 689 312 685L236
529Q235 526 231 526T226 529L210 657Q209 668 244 678Z" />
<glyph unicode="+" glyph-name="plus" horiz-adv-x="398" d="M32 167T31 174T29 191Q29 199 30 205T33 212H364Q366 212 367 205T369 190Q369 181 368 174T364 167H34Q32 167 31 174ZM222 23T214 22T196 20Q176 20 176 23V354Q176 356 183 357T199 359Q208 359
215 358T222 354V25Q222 23 214 22Z" />
<glyph unicode="," glyph-name="comma" horiz-adv-x="222" d="M135 94T153 71T172 0Q172 -50 149 -95T81 -186Q80 -187 78 -187Q75 -187 74 -185T73 -179Q98 -147 107 -116T117 -47Q117 -19 111 -5T94 20L131 27Q132 10 122 1T93 -8Q69 -8 56 5T43 42Q43 67 58
80T101 94Q135 94 153 71Z" />
<glyph unicode="-" glyph-name="hyphen" horiz-adv-x="323" d="M30 157T29 166T27 186Q27 208 30 208L291 255Q293 256 294 248T296 231Q296 222 295 214T291 205L32 158Q30 157 29 166Z" />
<glyph unicode="." glyph-name="period" horiz-adv-x="204" d="M78 -11T63 4T48 44Q48 68 63 82T103 96Q129 96 143 82T157 44Q157 18 143 4T103 -11Q78 -11 63 4Z" />
<glyph unicode="/" glyph-name="slash" horiz-adv-x="348" d="M69 -168T47 -162T26 -152L278 730Q280 734 301 728T322 717L71 -164Q69 -168 47 -162Z" />
<glyph unicode="0" glyph-name="zero" horiz-adv-x="477" d="M179 -13T131 14T56 88T29 195Q29 254 56 300T131 373T240 399Q301 399 348 373T421 299T448 193Q448 134 422 87T348 14T240 -13Q179 -13 131 14ZM301 6T327 52T353 180Q353 280 319 330T231 380Q179
380 151 333T123 205Q123 117 158 62T250 6Q301 6 327 52Z" />
<glyph unicode="1" glyph-name="one" horiz-adv-x="332" d="M126 336T121 350T99 369T45 374Q43 374 43 380T45 386Q77 386 95 385L166 384L236 385Q255 386 287 386Q290 386 290 380T287 374Q252 374 236 369T213 349T206 305V81Q206 50 211 36T233 17T287 12Q290
12 290 6T287 0Q255 0 237 1L166 2L96 1Q77 0 45 0Q43 0 43 6T45 12Q80 12 96 17T119 37T126 81V305Q126 336 121 350Z" />
<glyph unicode="2" glyph-name="two" horiz-adv-x="402" d="M125 100T167 142T228 216T246 279Q246 318 225 344T168 371Q130 371 105 339T58 241Q58 240 54 240Q45 240 46 244L88 408Q88 410 92 410Q95 410 97 409T99 406Q98 401 98 394Q98 378 113 378Q122 378
143 385Q187 399 220 399Q274 399 304 373T335 303Q335 267 313 234T259 172T172 103L136 76Q133 73 134 71T141 69Q231 69 272 72T336 86T365 125Q365 127 370 127Q377 127 377 124L358 11Q358 7 356 4T349 0H43Q38 0 36 9T37 23Q125 100 167 142Z" />
<glyph unicode="3" glyph-name="three" horiz-adv-x="392" d="M52 -276T50 -271T51 -264Q164 -222 213 -156T262 -23Q262 34 233 70T150 106Q130 106 107 100Q104 99 102 105T103 112Q175 131 207 167T240 268Q240 318 223 345T171 373Q129 373 96 344T42 258Q41
257 38 257Q29 257 30 261L67 407Q69 409 71 409Q74 409 77 408T79 405Q77 397 77 394Q77 377 94 377Q106 377 127 385Q150 392 166 395T204 399Q262 399 295 366T328 285Q328 228 288 181T179 119L185 134Q270 132 314 90T358 -11Q358 -59 325 -108T224 -202T56
-275Q52 -276 50 -271Z" />
<glyph unicode="4" glyph-name="four" horiz-adv-x="454" d="M27 8T24 12T25 20L329 396Q331 398 335 398Q338 398 341 397T344 392V-141Q344 -152 336 -155L270 -188Q264 -190 264 -190Q261 -190 261 -182V291L324 338L84 48Q78 41 89 41Q253 41 418 47Q422 47
422 30Q422 20 420 11T416 1Q342 5 261 6T32 8Q27 8 24 12Z" />
<glyph unicode="5" glyph-name="five" horiz-adv-x="409" d="M222 196T289 146T357 9Q357 -48 328 -94T235 -184T68 -275H67Q63 -275 61 -271T62 -264Q175 -203 221 -141T267 -8Q267 75 216 121T68 167Q63 167 60 170T58 179L90 357Q91 364 93 365T103 368Q229
383 272 389T327 401T345 423Q346 426 351 426T356 421L336 323Q333 312 327 309T308 305L118 301Q105 301 103 287L83 176L78 196Q222 196 289 146Z" />
<glyph unicode="6" glyph-name="six" horiz-adv-x="465" d="M371 286T404 249T437 159Q437 112 409 73T334 10T230 -13Q142 -13 91 45T40 207Q40 301 83 391T208 553T400 661Q404 662 406 657T405 650Q316 607 254 538T161 386T129 222Q129 131 164 70T257 9Q299
9 323 41T348 131Q348 185 326 217T258 249Q238 249 220 241T177 215Q176 214 174 214Q171 214 169 217T167 222Q223 286 305 286Q371 286 404 249Z" />
<glyph unicode="7" glyph-name="seven" horiz-adv-x="429" d="M166 -231T151 -238L80 -275H79Q77 -275 75 -273T73 -268L335 304Q339 311 331 311Q187 311 131 307T57 290T28 243Q28 241 24 241Q21 241 19 242T17 246L58 413Q59 415 65 415T70 412Q69 408 69 402Q69
392 78 389T117 386H382Q386 386 389 382T391 373L172 -214Q166 -231 151 -238Z" />
<glyph unicode="8" glyph-name="eight" horiz-adv-x="489" d="M327 404T327 453Q327 498 303 526T244 555Q214 555 195 536T176 487Q176 457 194 433T238 391T308 346Q358 316 388 294T439 239T460 163Q460 113 431 73T351 10T241 -13Q182 -13 136 9T65 70T40
152Q40 216 89 272T215 352L221 343Q179 320 155 276T130 179Q130 134 148 95T197 32T269 8Q318 8 349 42T380 126Q380 166 360 195T313 244T232 294Q188 321 162 341T118 388T100 450Q100 491 124 519T184 560T258 574Q301 574 334 559T384 519T402 470Q402 436
374 400T295 342L290 348Q327 404 327 453Z" />
<glyph unicode="9" glyph-name="nine" horiz-adv-x="465" d="M121 106T90 126T44 178T29 243Q29 288 52 323T118 379T215 399Q312 399 368 337T425 170Q425 79 382 -10T258 -170T65 -275Q62 -276 60 -271T61 -264Q149 -225 211 -157T304 -7T336 151Q336 203 322
255T278 343T200 379Q159 379 138 349T117 266Q117 210 140 176T210 141Q231 141 248 148T288 174Q289 175 291 175Q294 175 297 172T299 167Q250 106 168 106Q121 106 90 126Z" />
<glyph unicode=":" glyph-name="colon" horiz-adv-x="204" d="M78 -11T63 4T48 44Q48 68 63 82T103 96Q129 96 143 82T157 44Q157 18 143 4T103 -11Q78 -11 63 4ZM78 270T63 285T48 325Q48 349 63 363T103 377Q129 377 143 363T157 325Q157 299 143 285T103 270Q78
270 63 285Z" />
<glyph unicode=";" glyph-name="semicolon" horiz-adv-x="229" d="M142 94T160 71T179 0Q179 -50 156 -95T87 -186Q86 -187 84 -187Q81 -187 80 -185T79 -179Q104 -147 113 -116T123 -47Q123 -19 118 -5T100 20L138 27Q139 10 128 1T99 -8Q75 -8 62 5T49 42Q49
67 65 80T108 94Q142 94 160 71ZM80 270T65 285T50 325Q50 349 65 363T105 377Q131 377 145 363T159 325Q159 299 145 285T105 270Q80 270 65 285Z" />
<glyph unicode="&lt;" glyph-name="less" horiz-adv-x="407" d="M31 176T31 190Q31 205 36 207L370 354Q377 358 377 335Q377 313 370 309L55 174V206L370 71Q377 68 377 45Q377 22 370 25L36 173Q31 176 31 190Z" />
<glyph unicode="=" glyph-name="equal" horiz-adv-x="468" d="M32 97T31 104T29 121Q29 129 30 135T33 142H434Q436 142 437 135T439 120Q439 111 438 104T434 97H34Q32 97 31 104ZM32 237T31 244T29 261Q29 269 30 275T33 282H434Q436 282 437 275T439 260Q439
251 438 244T434 237H34Q32 237 31 244Z" />
<glyph unicode="&gt;" glyph-name="greater" horiz-adv-x="407" d="M376 204T376 189Q376 175 371 172L37 25Q34 24 32 29T30 44Q30 53 32 61T37 70L352 205V173L37 308Q34 309 32 317T30 334Q30 343 32 349T37 354L371 206Q376 204 376 189Z" />
<glyph unicode="?" glyph-name="question" horiz-adv-x="336" d="M145 608T139 597T130 565Q127 539 117 522T79 505Q56 505 45 517T34 547Q34 579 71 602T164 625Q227 625 269 594T312 506Q312 468 294 443T240 386L222 371Q190 342 176 313T161 248Q161 229
167 194Q168 191 161 190T152 191Q140 218 133 252T126 311Q126 342 136 361T168 406Q191 433 203 456T215 518Q215 558 201 583T163 608Q145 608 139 597ZM126 -11T111 4T96 44Q96 68 111 82T151 96Q177 96 191 82T205 44Q205 18 191 4T151 -11Q126 -11 111 4Z"
/>
<glyph unicode="@" glyph-name="at" horiz-adv-x="726" d="M428 232L457 245Q422 162 367 107T264 52Q240 52 225 68T209 118Q209 131 210 138Q218 192 252 243T332 326T418 358Q440 358 457 346T476 309L447 328Q461 330 476 340T495 365Q497 367 503 367Q513
367 513 364L472 140Q469 127 469 114Q469 78 506 78Q531 78 557 96T600 151T618 236Q618 302 586 357T497 444T370 477Q294 477 238 440T153 339T123 200Q123 119 157 58T253 -36T398 -69Q446 -69 484 -59T565 -20H566Q569 -20 571 -23T571 -28Q520 -71 469 -87T364
-103Q281 -103 213 -70T106 25T67 174Q67 268 114 342T238 458T404 500Q482 500 541 468T633 383T666 267Q666 210 639 161T567 83T467 54Q437 54 421 69T405 113Q405 129 409 144L428 232ZM327 108T354 133T403 196T433 273Q435 285 435 291Q435 311 427 323T405
335Q367 335 332 289T286 183Q282 159 282 147Q282 108 306 108Q327 108 354 133Z" />
<glyph unicode="A" glyph-name="A" horiz-adv-x="711" d="M192 270H472L479 245H179L192 270ZM715 12T715 6T711 0Q692 0 650 2Q608 4 589 4Q564 4 530 2Q496 0 477 0Q473 0 473 6T477 12Q507 12 520 18T533 40Q533 55 516 91L307 516L348 583L150 137Q137 107
137 83Q137 48 162 30T232 12Q237 12 237 6T232 0Q214 0 180 2Q142 4 114 4Q87 4 51 2Q19 0 -2 0Q-7 0 -7 6T-2 12Q26 12 45 23T82 62T125 147L340 631Q342 634 349 634Q356 634 357 631L602 137Q636 65 659 39T711 12Q715 12 715 6Z" />
<glyph unicode="B" glyph-name="B" horiz-adv-x="582" d="M379 353T428 331T504 271T531 182Q531 130 502 88T423 21T311 -4Q282 -4 244 -1Q231 0 211 1T166 2L94 1Q75 0 42 0Q39 0 39 6T42 12Q74 12 90 17T112 37T119 81V544Q119 573 113 587T91 607T43 613Q41
613 41 619T43 625L95 624Q139 622 166 622Q194 622 225 625Q236 626 251 627T287 628Q376 628 423 594T470 498Q470 441 427 398T304 337L315 353Q379 353 428 331ZM238 608T227 595T215 542V346L179 353Q223 351 256 351Q315 351 345 389T376 489Q376 546 350
577T270 608Q238 608 227 595ZM430 19T430 158Q430 234 391 280T275 326Q219 326 183 320L215 332V81Q215 58 220 45T243 26T295 19Q430 19 430 158Z" />
<glyph unicode="C" glyph-name="C" horiz-adv-x="683" d="M533 636T601 605Q609 601 611 598T615 582L627 450Q627 447 622 446T615 449Q589 531 538 574T410 617Q336 617 279 581T190 476T158 316Q158 226 192 156T285 46T418 7Q491 7 539 45T625 168Q626 171
631 170T636 167L623 48Q621 36 619 33T609 25Q519 -12 417 -12Q311 -12 227 28T96 142T49 311Q49 405 97 479T231 594T422 636Q533 636 601 605Z" />
<glyph unicode="D" glyph-name="D" horiz-adv-x="700" d="M287 -4T245 -1Q230 0 207 1T156 2L85 1Q66 0 32 0Q30 0 30 6T32 12Q66 12 81 17T103 36T109 81V544Q109 574 104 588T82 607T33 613Q31 613 31 619T33 625L86 624Q130 622 156 622Q195 622 237 625Q287
627 304 627Q406 627 485 587T607 478T651 323Q651 226 606 152T485 37T318 -4Q287 -4 245 -1ZM377 16T430 49T514 146T544 301Q544 387 516 456T435 566T314 607Q271 607 249 602T215 584T204 542V92Q204 51 225 34T308 16Q377 16 430 49Z" />
<glyph unicode="E" glyph-name="E" horiz-adv-x="547" d="M39 0T39 6T42 12Q76 12 91 17T112 36T118 81V544Q118 574 113 588T91 607T42 613Q39 613 39 619T42 625H458Q468 625 468 616L470 486Q470 484 465 484T458 486Q434 599 320 599H279Q242 599 228 586T213
542V85Q213 52 225 39T270 26H319Q453 26 489 155Q489 157 494 157Q501 157 501 154Q491 78 491 15Q491 7 488 4T476 0H42Q39 0 39 6ZM420 312T308 312H168V338H309Q419 338 419 412Q419 415 424 415T430 412L429 325L430 278Q432 246 432 226Q432 224 426 224T420
226Q420 312 308 312Z" />
<glyph unicode="F" glyph-name="F" horiz-adv-x="518" d="M34 0T34 6T37 12Q73 12 89 17T112 36T118 81V544Q118 574 113 588T91 607T42 613Q39 613 39 619T42 625H458Q468 625 468 616L470 486Q470 484 465 484T458 486Q434 599 320 599H279Q243 599 228 586T213
543V85Q213 53 221 39T252 18T325 12Q327 12 327 6T325 0Q284 0 261 1L163 2L90 1Q71 0 37 0Q34 0 34 6ZM408 300T293 300H168V326H295Q407 326 407 401Q407 403 413 403T419 401L418 313Q418 282 419 267L420 215Q420 212 414 212T408 215Q408 300 293 300Z" />
<glyph unicode="G" glyph-name="G" horiz-adv-x="725" d="M304 -12T221 31T93 147T49 311Q49 407 99 481T237 595T434 636Q484 636 531 628T608 605Q618 601 619 599T622 582L635 451Q635 448 630 447T623 449Q601 513 545 565T402 617Q333 617 277 582T188 482T155
330Q155 239 190 165T291 47T442 4Q485 4 509 14T544 50T555 126Q555 178 549 198T523 226T451 233Q445 233 445 241Q445 244 446 246T450 249Q533 244 583 244Q633 244 687 247Q691 247 691 240T687 233Q667 234 659 227T648 196T645 116Q645 71 648 52T652 28Q652
22 650 20T641 16Q515 -12 417 -12Q304 -12 221 31Z" />
<glyph unicode="H" glyph-name="H" horiz-adv-x="762" d="M553 572T547 586T523 607T468 613Q465 613 465 619T468 625L516 624Q564 622 601 622Q628 622 674 624L729 625Q732 625 732 619T729 613Q693 613 676 608T653 588T647 544V81Q647 51 653 37T676 17T729
12Q732 12 732 6T729 0Q695 0 674 1L601 2L516 1Q498 0 468 0Q465 0 465 6T468 12Q506 12 523 17T547 36T553 81V542Q553 572 547 586ZM158 338H596V312H158V338ZM114 574T108 588T85 607T33 613Q31 613 31 619T33 625L86 624Q132 622 158 622Q193 622 241 624L293
625Q295 625 295 619T293 613Q257 613 240 607T216 587T209 542V81Q209 51 215 37T238 17T293 12Q295 12 295 6T293 0Q259 0 240 1L158 2L85 1Q66 0 32 0Q30 0 30 6T32 12Q68 12 85 17T108 36T114 81V544Q114 574 108 588Z" />
<glyph unicode="I" glyph-name="I" horiz-adv-x="339" d="M217 50T222 36T243 17T293 12Q296 12 296 6T293 0Q261 0 242 1L168 2L96 1Q77 0 44 0Q41 0 41 6T44 12Q78 12 93 17T115 36T121 81V544Q121 574 115 588T94 607T44 613Q41 613 41 619T44 625L96 624Q140
622 168 622Q199 622 243 624L293 625Q296 625 296 619T293 613Q260 613 244 607T223 587T217 542V81Q217 50 222 36Z" />
<glyph unicode="J" glyph-name="J" horiz-adv-x="333" d="M294 625T294 619T292 613Q264 613 251 607T233 587T228 542V-12Q228 -120 176 -181T28 -243Q-8 -243 -30 -229T-53 -189Q-53 -170 -42 -157T-7 -144Q15 -144 27 -156T49 -191Q57 -206 63 -214T80 -222Q106
-222 118 -186T131 -65V544Q131 574 125 588T100 607T42 613Q40 613 40 619T42 625L102 624Q150 622 178 622Q205 622 247 624L292 625Q294 625 294 619Z" />
<glyph unicode="K" glyph-name="K" horiz-adv-x="653" d="M109 574T104 588T82 607T33 613Q31 613 31 619T33 625L86 624Q130 622 156 622Q186 622 230 624L280 625Q283 625 283 619T280 613Q247 613 232 607T210 587T204 542V81Q204 50 209 36T230 17T280 12Q284
12 284 6T280 0Q248 0 229 1L156 2L85 1Q66 0 32 0Q30 0 30 6T32 12Q66 12 81 17T103 36T109 81V544Q109 574 104 588ZM224 335L294 399L444 200Q512 107 547 69T602 21T656 12Q659 12 659 6T656 0H544L505 -1Q491 -1 481 5T458 27T410 90L369 145L224 335ZM432
560T432 582Q432 596 417 604T371 613Q369 613 369 619T371 625L416 624Q460 622 496 622Q535 622 575 624L618 625Q621 625 621 619T618 613Q574 613 522 590T426 524L170 266L143 268L401 530Q432 560 432 582Z" />
<glyph unicode="L" glyph-name="L" horiz-adv-x="541" d="M203 59T208 47T226 30T268 26H328Q399 26 448 65T513 172Q513 174 517 174Q519 174 521 173T524 170Q515 78 515 15Q515 7 512 4T500 0H32Q30 0 30 6T32 12Q66 12 81 17T102 36T108 81V544Q108 574 103
588T81 607T32 613Q30 613 30 619T32 625L83 624Q127 622 155 622Q185 622 229 624L279 625Q282 625 282 619T279 613Q246 613 230 608T209 588T203 543V85Q203 59 208 47Z" />
<glyph unicode="M" glyph-name="M" horiz-adv-x="850" d="M128 602L155 600L144 121Q143 68 164 40T229 12Q232 12 232 6T229 0Q202 0 187 1L132 2L73 1Q58 0 31 0Q28 0 28 6T31 12Q72 12 94 40T118 121L128 602ZM828 12T828 6T826 0Q793 0 773 1L701 2L631 1Q613
0 580 0Q578 0 578 6T580 12Q613 12 629 17T650 37T653 81L632 538L676 607L420 7Q418 3 412 3Q407 3 403 7L132 542Q114 579 91 596T38 613Q35 613 35 619T38 625L81 624Q94 623 115 623L161 624Q170 625 182 625Q195 625 203 616T228 573L453 132L410 56L647
600Q653 614 660 619T677 625Q684 625 695 624T722 623L776 624Q789 625 814 625Q817 625 817 619T814 613Q767 613 746 596T726 538L748 81Q750 50 756 36T777 17T826 12Q828 12 828 6Z" />
<glyph unicode="N" glyph-name="N" horiz-adv-x="732" d="M125 602L152 600V121Q152 68 172 40T233 12Q236 12 236 6T233 0Q207 0 193 1L140 2L81 1Q65 0 35 0Q32 0 32 6T35 12Q78 12 101 40T125 121V602ZM633 -17T628 -18T621 -17L140 543Q106 582 80 597T29
613Q26 613 26 619T29 625L69 624Q81 623 105 623L169 624Q181 625 197 625Q205 625 209 621T221 605Q238 582 246 573L625 127L633 -14Q633 -17 628 -18ZM633 -14L606 16V503Q606 556 586 584T525 613Q523 613 523 619T525 625L566 624Q598 622 619 622Q638 622
674 624L716 625Q719 625 719 619T716 613Q676 613 655 585T633 503V-14Z" />
<glyph unicode="O" glyph-name="O" horiz-adv-x="766" d="M273 -12T201 31T89 149T49 312Q49 415 101 488T234 599T401 636Q496 636 568 592T678 474T717 319Q717 228 669 152T541 32T366 -12Q273 -12 201 31ZM460 12T507 44T582 140T610 290Q610 383 580 455T493
569T360 610Q262 610 209 541T156 348Q156 252 187 176T274 56T400 12Q460 12 507 44Z" />
<glyph unicode="P" glyph-name="P" horiz-adv-x="549" d="M208 53T215 39T244 18T312 12Q315 12 315 6T312 0Q271 0 248 1L161 2L89 1Q70 0 37 0Q34 0 34 6T37 12Q71 12 86 17T107 36T113 81V544Q113 574 108 588T86 607T37 613Q34 613 34 619T37 625L89 624Q133
622 160 622Q183 622 216 625Q228 626 248 627T297 628Q395 628 453 586T511 457Q511 394 479 350T396 284T292 262Q264 262 244 267Q242 267 242 272Q242 275 243 278T247 280Q262 276 282 276Q334 276 370 319T406 442Q406 521 370 564T267 608Q243 608 231 603T213
585T208 542V85Q208 53 215 39Z" />
<glyph unicode="Q" glyph-name="Q" horiz-adv-x="766" d="M521 -71T586 -123T710 -175Q727 -175 745 -173H746Q748 -173 749 -177T749 -183Q704 -195 667 -195Q590 -195 507 -143T365 2L481 10Q521 -71 586 -123ZM273 -12T201 31T89 149T49 312Q49 415 101 488T234
599T401 636Q496 636 568 592T678 474T717 319Q717 228 669 152T541 32T366 -12Q273 -12 201 31ZM460 12T507 44T582 140T610 290Q610 383 580 455T493 569T360 610Q262 610 209 541T156 348Q156 252 187 176T274 56T400 12Q460 12 507 44Z" />
<glyph unicode="R" glyph-name="R" horiz-adv-x="689" d="M514 0T450 84T293 318L373 342Q457 217 513 147T614 44T699 12Q701 12 701 6T699 0H538Q514 0 450 84ZM397 628T445 594T493 499Q493 443 461 398T377 328T266 302Q245 302 215 304V81Q215 50 220 36T240
17T291 12Q293 12 293 6T291 0Q258 0 239 1L166 2L94 1Q75 0 42 0Q39 0 39 6T42 12Q76 12 91 17T113 36T119 81V544Q119 574 114 588T92 607T43 613Q41 613 41 619T43 625L95 624Q139 622 166 622Q199 622 238 625Q251 626 269 627T311 628Q397 628 445 594ZM394
545T367 577T287 609Q247 609 231 595T215 542V331Q239 327 273 327Q338 327 366 359T394 464Q394 545 367 577Z" />
<glyph unicode="S" glyph-name="S" horiz-adv-x="507" d="M164 482T182 454T228 405T302 354Q353 322 382 299T433 243T454 164Q454 113 428 73T353 11T242 -12Q200 -12 156 -1T88 26Q79 32 78 45L72 196V197Q72 201 77 201T83 198Q116 116 158 63T266 10Q310
10 339 33T368 112Q368 156 349 189T301 244T223 298Q175 329 148 350T102 403T83 477Q83 529 112 565T187 618T285 636Q318 636 352 630T410 613Q425 607 425 594L427 459Q427 455 423 454T416 456Q396 517 363 566T262 616Q217 616 191 590T164 519Q164 482 182
454Z" />
<glyph unicode="T" glyph-name="T" horiz-adv-x="640" d="M149 604T110 567T50 454Q50 451 45 451T39 454Q43 493 48 554T53 647Q53 652 58 652T64 647Q64 625 120 625Q206 622 321 622Q380 622 446 624L514 625Q552 625 569 630T592 650Q593 654 598 654T603
650Q600 619 597 556T594 454Q594 452 589 452T582 454Q572 531 535 567T435 604Q407 604 394 599T375 582T370 542V81Q370 51 376 37T401 17T458 12Q461 12 461 6T458 0Q423 0 403 1L321 2L243 1Q222 0 185 0Q183 0 183 6T185 12Q224 12 242 17T267 36T274 81V544Q274
570 269 582T251 599T210 604Q149 604 110 567Z" />
<glyph unicode="U" glyph-name="U" horiz-adv-x="701" d="M571 555T548 584T480 613Q478 613 478 619T480 625L526 624Q564 622 586 622Q604 622 640 624L684 625Q686 625 686 619T684 613Q645 613 624 584T602 503V223Q602 151 572 98T486 15T357 -14Q284 -14
227 14T139 96T107 222V544Q107 574 101 588T80 607T31 613Q28 613 28 619T31 625L83 624Q127 622 154 622Q184 622 228 624L278 625Q281 625 281 619T278 613Q245 613 229 607T208 587T202 542V257Q202 138 251 80T390 21Q475 21 523 73T571 222V503Q571 555 548
584Z" />
<glyph unicode="V" glyph-name="V" horiz-adv-x="662" d="M669 625T669 619T666 613Q631 613 601 586T552 508L357 1Q356 -3 346 -3Q336 -3 335 1L82 542Q64 579 46 596T3 613Q0 613 0 619T3 625L29 624Q53 622 79 622Q149 622 205 624Q221 625 245 625Q248 625
248 619T245 613Q215 613 199 602T183 570Q183 552 193 532L386 114L345 45L525 512Q534 536 534 555Q534 583 516 598T461 613Q458 613 458 619T461 625L507 624Q547 622 578 622Q597 622 625 624L666 625Q669 625 669 619Z" />
<glyph unicode="W" glyph-name="W" horiz-adv-x="918" d="M356 -3T346 -3Q336 -3 335 1L82 542Q61 586 47 599T3 613Q0 613 0 619T3 625L29 624Q53 622 79 622Q136 622 180 624Q194 625 215 625Q218 625 218 619T215 613Q189 613 177 608T165 588Q165 573 184
532L384 105L344 43L464 355L482 329L357 1Q356 -3 346 -3ZM925 625T925 619T923 613Q887 613 857 586T807 508L613 1Q612 -3 602 -3Q592 -3 591 1L338 542Q321 578 305 595T268 613Q265 613 265 619T268 625L292 624Q314 622 336 622Q383 622 419 624Q429 625
445 625Q448 625 448 619T445 613Q430 613 423 610T416 596Q416 588 422 571T439 532L641 105L601 43L778 505Q788 531 788 554Q788 582 772 597T725 613Q722 613 722 619T725 625L769 624Q805 622 834 622Q854 622 880 624L923 625Q925 625 925 619ZM548 559T548
583Q548 613 518 613Q515 613 515 619T518 625Q527 625 539 624T583 622Q601 622 625 624L664 625Q666 625 666 619T664 613Q630 613 604 588T557 508L488 329L470 355L530 512Q548 559 548 583Z" />
<glyph unicode="X" glyph-name="X" horiz-adv-x="649" d="M404 0T404 6T407 12Q446 12 446 29Q446 38 437 51L123 535Q96 577 71 595T15 613Q12 613 12 619T15 625L56 624Q84 622 97 622Q131 622 183 624L238 625Q240 625 240 619T238 613Q218 613 208 610T198
596Q198 586 207 573L526 83Q552 45 578 29T641 12Q644 12 644 6T641 0Q613 0 598 1L539 2L458 1Q440 0 407 0Q404 0 404 6ZM6 0T6 6T9 12Q41 12 82 41T167 131L300 311L316 298L195 127Q161 78 161 50Q161 32 175 22T216 12Q218 12 218 6T216 0Q184 0 167 1L95
2L49 1Q37 0 9 0Q6 0 6 6ZM318 326L437 495Q472 545 472 575Q472 613 418 613Q416 613 416 619T418 625L467 624Q507 622 539 622Q559 622 585 624L625 625Q628 625 628 619T625 613Q592 613 550 583T464 490L334 313L318 326Z" />
<glyph unicode="Y" glyph-name="Y" horiz-adv-x="616" d="M469 539T469 569Q469 613 414 613Q412 613 412 619T414 625L466 624Q508 622 543 622Q560 622 584 624L621 625Q623 625 623 619T621 613Q588 613 546 579T471 490L332 265L312 281L444 498Q469 539 469
569ZM75 572T51 592T3 613Q0 613 0 619T3 625L36 624Q58 622 68 622Q101 622 163 624L226 625Q228 625 228 619T226 613Q184 613 184 586Q184 574 197 553L350 318L270 273L109 519Q75 572 51 592ZM357 319V81Q357 50 362 36T382 17T432 12Q435 12 435 6T432 0Q400
0 382 1L309 2L237 1Q217 0 184 0Q182 0 182 6T184 12Q218 12 234 17T256 36T262 81V310L357 319Z" />
<glyph unicode="Z" glyph-name="Z" horiz-adv-x="602" d="M427 606Q427 608 419 608Q284 608 222 601T127 568T67 485Q67 483 63 483Q60 483 57 484T55 487L95 655Q95 656 99 656Q109 656 107 653Q106 650 106 645Q106 633 117 629T164 625H529Q534 625 536 620T536
612L175 27L172 21Q172 19 180 19H400Q458 19 501 55T554 147Q555 149 560 149T565 147L551 8Q551 5 549 2T542 -2Q393 0 64 0Q59 0 57 4T58 13L424 600L427 606Z" />
<glyph unicode="[" glyph-name="bracketleft" horiz-adv-x="274" d="M74 722T75 723T83 725H236Q239 725 239 719T236 713Q202 713 186 707T165 687T159 642V-34Q159 -64 164 -78T186 -99T236 -105Q239 -105 239 -111T236 -117H83Q77 -117 76 -115T74 -106V715Q74
722 75 723Z" />
<glyph unicode="\" glyph-name="backslash" horiz-adv-x="348" d="M24 722T46 728T70 730L322 -152Q323 -156 301 -162T277 -164L26 717Q24 722 46 728Z" />
<glyph unicode="]" glyph-name="bracketright" horiz-adv-x="274" d="M200 -113T199 -115T191 -117H38Q35 -117 35 -111T38 -105Q72 -105 88 -99T109 -79T115 -34V642Q115 672 110 686T88 707T38 713Q35 713 35 719T38 725H191Q197 725 198 724T200 715V-106Q200
-113 199 -115Z" />
<glyph unicode="^" glyph-name="asciicircum" horiz-adv-x="392" d="M333 379Q333 377 329 375T324 375L196 522L68 375Q67 374 65 374Q62 374 60 376T58 380L185 629Q186 634 196 634Q206 634 207 629L333 380V379Z" />
<glyph unicode="_" glyph-name="underscore" horiz-adv-x="398" d="M32 -79T31 -71T29 -54Q29 -46 30 -40T33 -33H364Q366 -33 367 -40T369 -56Q369 -65 368 -72T364 -79H34Q32 -79 31 -71Z" />
<glyph unicode="`" glyph-name="grave" horiz-adv-x="213" d="M29 731T42 731Q61 731 87 726T115 716L154 476Q155 474 150 473T144 474L30 727Q29 731 42 731Z" />
<glyph unicode="a" glyph-name="a" horiz-adv-x="420" d="M313 -8T308 -8Q290 -8 275 16T260 82V258Q260 320 248 348T208 377Q175 377 161 353T143 298Q137 247 92 247Q70 247 60 257T49 282Q49 310 82 336T163 379T247 396Q290 396 315 369T341 288V108Q341
45 380 45Q395 45 416 54H418Q422 54 423 50T420 43L317 -6Q313 -8 308 -8ZM88 -7T67 12T46 64Q46 91 60 108T97 135T163 162L270 202L273 187L200 156Q173 145 157 132T141 93Q141 69 156 55T193 41Q212 41 232 53L286 89L287 74L216 24Q192 7 173 0T129 -7Q88
-7 67 12Z" />
<glyph unicode="b" glyph-name="b" horiz-adv-x="514" d="M174 -13T108 46L166 153Q166 102 185 69T233 22T289 7Q338 7 364 51T390 176Q390 264 359 308T274 353Q217 353 153 295L144 303Q187 348 225 373T316 399Q360 399 397 378T457 315T480 213Q480 141 450
90T369 13T263 -13Q174 -13 108 46ZM36 -6Q32 -6 31 -3T33 3Q60 20 72 42T85 103V592Q85 627 79 642T55 658Q39 658 15 646H14Q10 646 8 651T8 658L147 724L152 725Q156 725 161 721T166 714V53L38 -6H36Z" />
<glyph unicode="c" glyph-name="c" horiz-adv-x="420" d="M168 -12T123 16T55 90T33 186Q33 249 67 296T154 369T263 395Q310 395 347 376T385 325Q385 308 373 296T337 284Q298 284 282 328Q273 353 262 363T226 374Q179 374 152 332T124 218Q124 135 162 84T283
32Q310 32 332 39T381 61H382Q385 61 387 58T388 53Q351 20 315 4T233 -12Q168 -12 123 16Z" />
<glyph unicode="d" glyph-name="d" horiz-adv-x="511" d="M147 -13T111 10T54 78T33 181Q33 255 68 304T156 376T262 399Q327 399 385 363L366 287Q342 332 314 353T243 375Q186 375 155 335T123 212Q123 128 156 80T240 31Q278 31 308 51T374 109L383 101Q337
50 293 19T190 -13Q147 -13 111 10ZM427 79T434 65T458 50Q478 50 503 62H504Q507 62 509 57T509 51L381 -11L375 -12Q363 -12 355 13T346 82V592Q346 627 340 642T316 658Q305 658 276 646H274Q270 646 268 651T269 657L409 724L413 725Q417 725 422 721T427 714V114Q427
79 434 65Z" />
<glyph unicode="e" glyph-name="e" horiz-adv-x="414" d="M169 -12T125 15T57 86T33 181Q33 240 62 289T141 366T254 395Q314 395 346 366T379 280Q379 265 377 258T368 251H286Q291 375 218 375Q173 375 148 334T122 223Q122 135 163 84T279 32Q307 32 326 39T376
62L378 63Q380 63 382 59T383 53Q347 19 310 4T230 -12Q169 -12 125 15ZM92 267L314 271V251L93 250L92 267Z" />
<glyph unicode="f" glyph-name="f" horiz-adv-x="305" d="M25 0T25 6T29 12Q56 12 69 17T87 37T92 81V306Q92 339 79 348T25 357Q22 357 22 366Q22 374 25 374Q62 374 75 383T90 418Q95 581 151 653T319 726Q374 726 405 711T436 669Q436 649 423 638T391 626Q371
626 361 635T341 663Q330 684 317 694T281 705Q231 705 202 640T173 439V81Q173 50 179 36T204 17T265 12Q269 12 269 6T265 0L198 1Q176 2 131 2L72 1Q57 0 29 0Q25 0 25 6ZM217 352T136 352V376Q197 376 289 386Q292 386 294 379T296 362Q296 353 293 344T286
336Q217 352 136 352Z" />
<glyph unicode="g" glyph-name="g" horiz-adv-x="449" d="M112 -281T70 -250T27 -169Q27 -130 58 -91T158 -11L168 -23Q138 -40 122 -63T106 -123Q106 -183 142 -216T235 -250Q292 -250 327 -217T362 -126Q362 -84 344 -65T295 -41T207 -35Q135 -34 95 -20T55
41Q55 76 78 106T151 164L161 157Q139 143 129 128T119 92Q119 56 148 46T251 35Q308 34 344 29T406 1T433 -71Q433 -126 398 -174T305 -252T181 -281Q112 -281 70 -250ZM156 133T121 152T67 201T48 266Q48 305 72 334T134 378T217 393Q264 393 299 376T353 330T372
267Q372 229 348 198T285 150T202 133Q156 133 121 152ZM252 150T269 172T286 241Q286 283 272 313T235 359T187 375Q133 375 133 294Q133 251 146 219T181 168T226 150Q252 150 269 172ZM336 371T366 383T432 395Q439 395 439 369Q439 356 436 341T428 328Q391
344 356 344Q331 344 309 337L302 315L303 347Q336 371 366 383Z" />
<glyph unicode="h" glyph-name="h" horiz-adv-x="505" d="M20 0T20 6T23 12Q57 12 68 26T80 81V592Q80 627 73 642T50 658Q35 658 9 646H8Q5 646 3 651T3 658L142 724L147 725Q151 725 155 721T160 714V81Q160 40 171 26T217 12Q221 12 221 6T217 0Q192 0 177
1L120 2L63 1Q48 0 23 0Q20 0 20 6ZM289 0T289 6T292 12Q326 12 337 26T349 81V230Q349 286 328 313T263 340Q230 340 197 322T142 273L137 285Q217 397 313 397Q367 397 398 364T429 274V81Q429 40 440 26T486 12Q490 12 490 6T486 0Q461 0 446 1L389 2L332 1Q317
0 292 0Q289 0 289 6Z" />
<glyph unicode="i" glyph-name="i" horiz-adv-x="266" d="M41 0T41 6T44 12Q78 12 89 26T101 81V263Q101 297 94 312T70 328Q54 328 30 316H29Q25 316 23 321T24 328L168 395L171 396Q175 396 179 392T184 384V363Q182 321 182 264V81Q182 40 193 26T239 12Q242
12 242 6T239 0Q214 0 199 1L141 2L83 1Q69 0 44 0Q41 0 41 6ZM110 501T96 515T81 555Q81 579 95 593T136 607Q161 607 174 593T188 555Q188 529 175 515T136 501Q110 501 96 515Z" />
<glyph unicode="j" glyph-name="j" horiz-adv-x="261" d="M181 363Q179 321 179 264V-48Q179 -116 164 -159T113 -232T14 -282Q12 -283 10 -278T9 -271Q58 -250 78 -204T98 -71V263Q98 297 91 312T68 328Q52 328 28 316H27Q23 316 21 321T21 328L165 395L168 396Q172
396 176 392T181 384V363ZM105 501T91 515T76 555Q76 579 91 593T131 607Q156 607 170 593T184 555Q184 529 170 515T131 501Q105 501 91 515Z" />
<glyph unicode="k" glyph-name="k" horiz-adv-x="491" d="M20 0T20 6T23 12Q57 12 68 26T80 81V592Q80 627 73 642T50 658Q35 658 9 646H8Q5 646 3 651T3 658L142 724L147 725Q151 725 155 721T160 714V81Q160 40 171 26T217 12Q221 12 221 6T217 0Q192 0 177
1L120 2L63 1Q48 0 23 0Q20 0 20 6ZM272 0T272 6T274 12Q316 12 316 32Q316 41 307 53L184 214L244 260L381 81Q433 12 492 12Q495 12 495 6T492 0Q467 0 452 1L395 2L320 1Q303 0 274 0Q272 0 272 6ZM125 170L267 299Q295 323 295 346Q295 358 284 366T251 374Q248
374 248 380T251 386Q279 386 295 385L371 384L442 385Q456 386 480 386Q483 386 483 380T480 374Q439 374 387 354T291 294L130 155L125 170Z" />
<glyph unicode="l" glyph-name="l" horiz-adv-x="265" d="M34 0T34 6T37 12Q71 12 82 26T94 81V592Q94 627 88 642T65 658Q50 658 24 646H23Q19 646 17 651T17 658L158 724L162 725Q166 725 171 721T176 714V81Q176 40 187 26T233 12Q236 12 236 6T233 0Q208 0
193 1L135 2L77 1Q62 0 37 0Q34 0 34 6Z" />
<glyph unicode="m" glyph-name="m" horiz-adv-x="772" d="M556 0T556 6T559 12Q592 12 604 26T616 81V230Q616 286 597 313T537 340Q505 340 474 322T421 273L416 285Q493 397 586 397Q639 397 667 367T696 274V81Q696 40 707 26T753 12Q757 12 757 6T753 0Q728
0 713 1L656 2L599 1Q584 0 559 0Q556 0 556 6ZM295 0T295 6T298 12Q332 12 343 26T355 81V230Q355 286 336 313T276 340Q244 340 213 322T160 273L155 285Q232 397 325 397Q378 397 406 368T435 282V81Q435 40 447 26T493 12Q496 12 496 6T493 0Q467 0 452 1L395
2L338 1Q323 0 298 0Q295 0 295 6ZM38 0T38 6T41 12Q75 12 86 26T97 81V272Q97 304 90 319T65 334Q50 334 15 319H14Q10 319 8 324T9 330L140 394Q146 396 147 396Q158 396 168 371T178 306V81Q178 40 189 26T235 12Q238 12 238 6T235 0Q210 0 195 1L138 2L80 1Q66
0 41 0Q38 0 38 6Z" />
<glyph unicode="n" glyph-name="n" horiz-adv-x="523" d="M307 0T307 6T310 12Q344 12 355 26T366 81V231Q366 287 346 313T281 340Q248 340 215 322T160 274L155 286Q235 398 331 398Q386 398 416 365T447 274V81Q447 40 458 26T504 12Q507 12 507 6T504 0Q479
0 464 1L407 2L350 1Q335 0 310 0Q307 0 307 6ZM38 0T38 6T41 12Q75 12 86 26T97 81V272Q97 304 90 319T65 334Q50 334 15 319H14Q10 319 8 324T9 330L140 394Q146 396 147 396Q158 396 168 371T178 306V81Q178 40 189 26T235 12Q238 12 238 6T235 0Q210 0 195
1L138 2L80 1Q66 0 41 0Q38 0 38 6Z" />
<glyph unicode="o" glyph-name="o" horiz-adv-x="486" d="M175 -13T129 15T58 92T33 198Q33 263 65 308T148 376T252 399Q313 399 358 370T428 294T452 192Q452 132 423 85T343 13T235 -13Q175 -13 129 15ZM309 7T333 46T357 160Q357 227 339 277T289 353T219
379Q174 379 151 342T127 233Q127 168 145 117T194 36T265 7Q309 7 333 46Z" />
<glyph unicode="p" glyph-name="p" horiz-adv-x="512" d="M25 -275T25 -269T28 -263Q53 -263 65 -258T81 -238T86 -194V271Q86 304 79 319T53 334Q36 334 5 320H3Q-1 320 -3 324T-3 331L129 394Q131 395 134 395Q148 395 157 371T167 304V-194Q167 -224 174 -238T200
-257T260 -263Q262 -263 262 -269T260 -275Q223 -275 203 -274L126 -273L69 -274Q54 -275 28 -275Q25 -275 25 -269ZM222 -13T194 -6T128 18L155 79Q183 45 211 28T282 11Q332 11 361 54T390 184Q390 263 354 306T264 349Q228 349 200 331T138 277L129 287Q180
345 226 372T322 399Q364 399 400 377T457 313T479 215Q479 136 446 85T362 11T260 -13Q222 -13 194 -6Z" />
<glyph unicode="q" glyph-name="q" horiz-adv-x="497" d="M152 -13T115 8T56 71T33 172Q33 246 65 297T148 374T255 399Q337 399 400 357L346 265Q346 320 311 349T231 379Q124 379 124 209Q124 122 154 78T238 33Q296 33 358 91L367 84Q325 38 287 13T196 -13Q152
-13 115 8ZM265 -275T265 -269T267 -263Q302 -263 318 -258T340 -238T346 -194V343L471 388L473 389Q476 389 477 384T475 378Q450 365 438 346T426 295V-194Q426 -224 430 -238T447 -257T485 -263Q487 -263 487 -269T485 -275Q460 -275 445 -274L386 -273L319
-274Q300 -275 267 -275Q265 -275 265 -269Z" />
<glyph unicode="r" glyph-name="r" horiz-adv-x="374" d="M202 347T234 371T291 396Q313 396 334 381T355 345Q355 326 344 315T313 303Q300 303 292 308T274 323Q265 332 258 336T241 341Q228 341 212 328T155 271L148 283Q202 347 234 371ZM38 0T38 6T41 12Q75
12 86 26T97 81V272Q97 304 90 319T65 334Q50 334 15 319H14Q10 319 8 324T9 330L140 394Q146 396 147 396Q158 396 168 371T178 306V81Q178 53 186 39T213 18T270 12Q274 12 274 6T270 0Q236 0 216 1L138 2L80 1Q66 0 41 0Q38 0 38 6Z" />
<glyph unicode="s" glyph-name="s" horiz-adv-x="337" d="M112 302T133 281T196 238Q232 218 251 205T285 170T300 117Q300 83 283 54T233 7T153 -11Q98 -11 52 17Q46 23 46 29L44 121Q44 124 49 124T56 122Q73 73 107 41T181 9Q206 9 220 22T234 61Q234 99 212
121T148 166Q114 184 95 196T63 230T49 284Q49 341 90 369T191 397Q230 397 271 382Q280 378 280 371Q280 348 279 335L278 287Q278 285 272 285T266 287Q266 307 250 328T209 364T158 378Q112 378 112 334Q112 302 133 281Z" />
<glyph unicode="t" glyph-name="t" horiz-adv-x="337" d="M142 -12T113 8T83 77V303Q83 336 73 347T32 358Q31 358 30 360T28 366Q28 369 29 371T32 374Q126 378 150 455Q151 459 158 459Q165 459 165 455V110Q165 71 184 53T239 34Q281 34 318 63L320 64Q323
64 325 60T325 53Q288 19 255 4T185 -12Q142 -12 113 8ZM222 352T136 352V376Q200 376 298 386Q300 386 302 379T305 362Q305 353 302 344T294 336Q222 352 136 352Z" />
<glyph unicode="u" glyph-name="u" horiz-adv-x="501" d="M135 -11T105 22T75 114V263Q75 298 68 314T44 331Q31 331 16 323H15Q11 323 9 328T10 335L136 394L141 395Q145 395 150 391T155 384V157Q155 101 175 74T238 46Q270 46 302 64T356 113L362 101Q280 -11
189 -11Q135 -11 105 22ZM417 79T424 65T448 50Q460 50 493 62L495 63Q498 63 500 58T499 51L368 -12L364 -13Q353 -13 345 12T337 79V263Q337 298 330 314T306 331Q294 331 278 323H277Q273 323 271 328T273 335L399 394L403 395Q407 395 412 391T417 384V113Q417
79 424 65Z" />
<glyph unicode="v" glyph-name="v" horiz-adv-x="438" d="M448 386T448 380T446 374Q418 374 398 354T358 290L234 0Q232 -5 224 -5Q215 -5 212 0L64 303Q42 347 28 360T-9 374Q-12 374 -12 380T-9 386Q9 386 20 385L78 384L151 385Q167 386 196 386Q199 386 199
380T196 374Q137 374 137 351Q137 345 142 335L264 93L221 21L333 292Q340 309 340 325Q340 349 323 361T271 374Q269 374 269 380T271 386Q298 386 312 385L372 384L411 385Q422 386 446 386Q448 386 448 380Z" />
<glyph unicode="w" glyph-name="w" horiz-adv-x="680" d="M284 347T272 360T241 374Q239 374 239 380T241 386Q258 386 269 385L321 384L389 385Q404 386 430 386Q432 386 432 380T430 374Q407 374 394 368T380 349Q380 342 384 335L506 94L464 22L575 292Q582
310 582 326Q582 349 565 361T514 374Q511 374 511 380T514 386Q541 386 554 385L614 384L654 385Q664 386 688 386Q691 386 691 380T688 374Q661 374 641 355T601 290L477 1Q476 -3 467 -3Q456 -3 455 1L306 303Q284 347 272 360ZM42 347T28 360T-9 374Q-12 374
-12 380T-9 386Q9 386 20 385L78 384L146 385Q161 386 187 386Q190 386 190 380T187 374Q134 374 134 351Q134 345 139 335L265 94L221 22L330 285L354 280L234 1Q234 -3 224 -3Q215 -3 212 1L64 303Q42 347 28 360Z" />
<glyph unicode="x" glyph-name="x" horiz-adv-x="440" d="M249 0T249 6T252 12Q278 12 278 25Q278 34 267 51L99 303Q77 337 55 355T15 374Q13 374 13 380T15 386Q36 386 46 385L77 384L144 385Q160 386 188 386Q190 386 190 380T188 374Q162 374 162 360Q162
350 173 335L340 83Q365 46 389 29T433 12Q436 12 436 6T433 0L398 1Q386 2 363 2L294 1Q279 0 252 0Q249 0 249 6ZM4 0T4 6T7 12Q36 12 69 35T132 98L203 196L217 183L155 92Q132 60 132 40Q132 12 181 12Q184 12 184 6T181 0Q154 0 141 1L81 2L41 1Q31 0 7 0Q4
0 4 6ZM210 204L271 294Q294 328 294 346Q294 374 244 374Q242 374 242 380T244 386Q271 386 285 385L345 384L385 385Q395 386 419 386Q422 386 422 380T419 374Q390 374 357 351T294 288L222 192L210 204Z" />
<glyph unicode="y" glyph-name="y" horiz-adv-x="430" d="M440 386T440 380T438 374Q408 374 387 350T347 277L232 -28Q196 -124 163 -179T96 -257T21 -281Q-7 -281 -22 -270T-38 -235Q-38 -216 -26 -205T5 -194Q17 -194 24 -197T43 -207Q60 -220 78 -220Q103
-220 123 -199T167 -128T225 13L222 -33L57 303Q34 347 22 360T-9 374Q-11 374 -11 380T-9 386Q17 386 31 385L70 384L138 385Q153 386 179 386Q182 386 182 380T179 374Q152 374 139 370T126 354Q126 346 132 335L262 68L231 15L322 277Q330 303 330 320Q330 374
263 374Q261 374 261 380T263 386Q290 386 304 385L364 384L403 385Q414 386 438 386Q440 386 440 380Z" />
<glyph unicode="z" glyph-name="z" horiz-adv-x="405" d="M269 372T260 372Q167 372 116 349T47 272Q47 270 43 270Q40 270 37 271T35 274L75 422Q75 423 79 423Q87 423 86 419Q84 411 84 408Q84 395 96 391T135 386H359Q363 386 365 382T367 374L136 24Q133 17
141 17Q216 17 260 27T329 60T364 126Q365 128 370 128T376 126L374 11Q374 7 371 4T364 0H43Q39 0 37 4T36 12L265 365Q269 372 260 372Z" />
<glyph unicode="{" glyph-name="braceleft" horiz-adv-x="289" d="M29 298T29 304T32 311Q72 317 84 375T97 529Q97 615 109 655T153 710T250 725Q254 725 254 719T250 713Q221 713 205 686T188 607Q186 485 180 435T151 357T73 305Q128 281 150 252T179 172T188
1Q189 -50 205 -77T250 -105Q254 -105 254 -111T250 -117Q184 -117 153 -103T109 -47T97 80Q97 176 85 234T32 298Q29 298 29 304Z" />
<glyph unicode="|" glyph-name="bar" horiz-adv-x="168" d="M63 738T86 738Q108 738 108 731V-154Q108 -158 102 -160T86 -162Q77 -162 70 -160T63 -154V731Q63 738 86 738Z" />
<glyph unicode="}" glyph-name="braceright" horiz-adv-x="283" d="M211 292T199 234T186 80Q186 -6 174 -47T131 -102T33 -117Q29 -117 29 -111T33 -105Q62 -105 78 -78T95 1Q97 122 103 172T132 251T210 305Q155 328 133 356T104 435T95 607Q94 658 78 685T33
713Q29 713 29 719T33 725Q99 725 130 711T173 656T186 529Q186 434 198 376T251 311Q254 311 254 305T251 298Q211 292 199 234Z" />
<glyph unicode="~" glyph-name="asciitilde" horiz-adv-x="443" d="M342 207T357 217T389 245L391 246Q393 246 395 243T396 238Q359 182 335 163T283 144Q266 144 252 148T209 161Q163 180 129 180Q106 180 94 174T71 157T55 142H54Q52 142 50 144T48 149Q109
243 168 243Q181 243 198 238T231 227Q256 217 275 212T314 207Q342 207 357 217Z" />
<glyph unicode="&#xa0;" glyph-name="uni00A0" horiz-adv-x="234" />
<glyph unicode="&#xa1;" glyph-name="exclamdown" horiz-adv-x="258" d="M192 -269T172 -272T129 -275Q106 -275 86 -272T67 -263Q86 -185 95 -95T115 132L117 165Q117 167 121 168T131 170Q136 170 140 169T145 165Q153 18 162 -80T191 -263Q192 -269 172 -272ZM160
365T175 350T190 310Q190 286 175 272T134 258Q109 258 95 272T81 310Q81 336 95 350T134 365Q160 365 175 350Z" />
<glyph unicode="&#xa2;" glyph-name="cent" horiz-adv-x="533" d="M274 565T278 567T288 569Q293 569 297 567T301 561V-102Q301 -109 288 -109Q274 -109 274 -102V561Q274 565 278 567ZM346 480T389 472T461 451Q468 448 470 445T472 434L479 331Q479 328 474
327T467 330Q436 396 394 428T294 460Q220 460 178 402T135 251Q135 189 154 133T215 42T318 7Q373 7 410 39T477 140Q478 144 483 143T488 139L478 33Q477 25 475 22T464 15Q387 -12 304 -12Q209 -12 148 26T60 121T32 236Q32 304 68 360T168 448T309 480Q346
480 389 472Z" />
<glyph unicode="&#xa3;" glyph-name="sterling" horiz-adv-x="432" d="M295 46T316 52T349 74T368 127Q368 129 374 129T380 126Q371 74 371 15Q371 7 368 4T356 0H19Q17 0 17 5T19 12Q70 24 88 47T107 106Q107 147 101 175T82 240Q73 269 69 287T64 329Q64 406
116 443T247 480Q294 480 336 466Q351 460 352 447L359 344Q359 340 354 340Q350 340 347 344Q322 401 296 431T228 462Q186 462 168 434T149 363Q149 337 154 316T170 256Q180 223 185 199T191 148Q191 103 174 79T122 30L99 46H251Q295 46 316 52ZM281 243T281
230Q281 216 274 216H46Q43 216 41 220T39 230Q39 235 41 239T46 243H274Q281 243 281 230Z" />
<glyph unicode="&#xa4;" glyph-name="currency" horiz-adv-x="414" d="M81 33L52 62L105 117L131 90L81 33ZM47 340L81 371L133 315L101 286L47 340ZM365 66L331 33L279 92L310 121L365 66ZM336 368L364 340L307 282L280 309L336 368ZM155 65T124 84T77 136T61
202Q61 244 84 274T141 320T211 335Q269 335 309 297T349 201Q349 160 327 129T270 82T196 65Q155 65 124 84ZM245 87T262 111T280 180Q280 234 255 273T188 313Q160 313 144 290T127 223Q127 170 150 129T215 87Q245 87 262 111Z" />
<glyph unicode="&#xa5;" glyph-name="yen" horiz-adv-x="492" d="M395 146T397 143T399 134Q399 129 397 126T391 122H109Q106 122 104 125T102 134Q102 139 104 142T109 146H391Q395 146 397 143ZM395 213T397 210T399 201Q399 196 397 193T391 189H109Q106 189
104 192T102 201Q102 206 104 209T109 213H391Q395 213 397 210ZM365 396T365 416Q365 435 353 445T317 456Q314 456 314 462T317 468L363 467Q399 465 431 465Q444 465 462 467L488 468Q491 468 491 462T488 456Q427 456 374 366L274 190L254 196L349 367Q365
396 365 416ZM71 423T50 439T3 456Q0 456 0 462T3 468L39 467Q65 465 76 465Q106 465 164 467L222 468Q224 468 224 462T222 456Q175 456 175 433Q175 421 186 404L296 235L222 191L96 385Q71 423 50 439ZM296 50T301 36T323 17T374 12Q376 12 376 6T374 0Q342
0 324 1L251 2L182 1Q162 0 128 0Q125 0 125 6T128 12Q162 12 178 17T201 36T207 81V131H296V81Q296 50 301 36ZM207 228L296 237V199L207 200V228Z" />
<glyph unicode="&#xa6;" glyph-name="brokenbar" horiz-adv-x="168" d="M63 220T70 222T86 224Q95 224 101 222T108 216V-154Q108 -158 102 -160T86 -162Q77 -162 70 -160T63 -154V216Q63 220 70 222ZM63 738T86 738Q108 738 108 731V360Q108 357 102 355T86 353Q77
353 70 355T63 360V731Q63 738 86 738Z" />
<glyph unicode="&#xa7;" glyph-name="section" horiz-adv-x="472" d="M332 39T341 63T350 119Q350 164 332 197T289 251T221 300Q184 324 163 342T127 384T112 441Q112 504 160 538T275 572Q327 572 362 553Q373 548 373 537L381 426Q381 424 375 424T369 426Q354
466 320 507T241 549Q215 549 200 532T184 480Q184 447 198 422T234 379T293 336Q334 309 358 289T400 237T417 163Q417 123 396 90T316 11L308 20Q332 39 341 63ZM171 -188T135 -170Q124 -163 124 -153L116 -43Q116 -40 121 -40T128 -43Q142 -82 177 -123T256
-165Q281 -165 296 -148T312 -96Q312 -63 298 -38T262 5T203 47Q163 74 138 94T96 146T79 221Q79 261 99 294T178 373L186 364Q163 344 154 320T145 265Q145 220 163 187T206 133T275 83Q330 48 357 19T385 -57Q385 -121 337 -154T221 -188Q171 -188 135 -170Z"
/>
<glyph unicode="&#xa8;" glyph-name="dieresis" horiz-adv-x="322" d="M51 469T38 482T24 519Q24 542 37 554T75 567Q98 567 110 555T123 519Q123 495 111 482T75 469Q51 469 38 482ZM226 469T213 482T199 519Q199 541 212 553T249 566Q272 566 284 554T297 519Q297
495 285 482T249 469Q226 469 213 482Z" />
<glyph unicode="&#xa9;" glyph-name="copyright" horiz-adv-x="724" d="M296 -105T225 -71T111 30T67 188Q67 278 115 349T241 461T407 501Q484 501 543 469T634 384T666 269Q666 209 633 156T540 71T408 39Q345 39 304 61T245 119T226 195Q226 247 251 285T317
343T401 364Q441 364 472 349T504 307Q504 289 494 279T466 269Q452 269 443 277T425 302Q413 322 402 332T370 342Q334 342 321 314T307 227Q307 157 343 112T454 66Q494 66 529 86T586 146T608 238Q608 304 578 359T493 446T373 478Q298 478 243 443T160 347T132
213Q132 125 169 61T269 -37T411 -71Q464 -71 507 -61T599 -22H601Q603 -22 605 -25T605 -29Q549 -72 494 -88T377 -105Q296 -105 225 -71Z" />
<glyph unicode="&#xaa;" glyph-name="ordfeminine" horiz-adv-x="285" d="M36 284T35 289T33 302Q33 307 34 312T37 317H262Q264 317 265 312T267 301Q267 295 266 290T262 284H38Q36 284 35 289ZM205 364T203 364Q191 364 182 379T173 419V538Q173 584 163 598T134
612Q119 612 109 598T95 561Q91 528 62 528Q47 528 38 536T29 558Q29 575 51 591T106 619T161 630Q191 630 209 612T228 558V441Q228 418 232 408T246 398Q251 398 273 407H274Q278 407 279 404T279 398L211 366Q205 364 203 364ZM55 365T42 376T29 404Q29 421
39 433T77 454L191 493L192 483L120 456Q106 450 100 443T93 423Q93 410 100 402T120 394Q131 394 143 399L197 427L198 416L140 385Q119 373 106 369T77 365Q55 365 42 376Z" />
<glyph unicode="&#xab;" glyph-name="guillemotleft" horiz-adv-x="468" d="M51 193T51 201Q51 208 55 212L239 361Q239 362 241 362Q243 362 245 360T246 356L144 201L246 46Q247 44 244 41T239 40L55 189Q51 193 51 201ZM215 195T215 201Q215 206 219 212L404
361Q404 362 406 362Q408 362 410 360T411 356L308 201L411 46Q412 44 409 41T404 40L219 189Q215 195 215 201Z" />
<glyph unicode="&#xac;" glyph-name="logicalnot" horiz-adv-x="395" d="M364 75T357 74T340 72Q332 72 326 73T319 76V270H364V77Q364 75 357 74ZM32 226T31 233T29 250Q29 257 30 263T33 270H364V226H34Q32 226 31 233Z" />
<glyph unicode="&#xad;" glyph-name="uni00AD" horiz-adv-x="0" />
<glyph unicode="&#xae;" glyph-name="registered" horiz-adv-x="743" d="M290 138T221 173T110 272T67 422Q67 511 112 580T234 687T397 725Q483 725 548 689T649 591T685 451Q685 365 642 293T526 180T365 138Q290 138 221 173ZM234 273T234 278T235 284Q253
284 260 287T270 299T273 329V544Q273 572 267 580T235 588Q234 588 234 594T235 600L306 599Q318 599 350 601Q378 603 388 603Q438 603 462 587T486 535Q486 481 438 454T317 432V449Q340 446 356 446Q393 446 408 461T423 514Q423 553 410 571T372 590Q356 590
349 588T338 575T334 542V329Q334 308 337 299T349 287T379 284Q381 284 381 279T379 273L306 274L235 273Q234 273 234 278ZM509 165T568 235T627 419Q627 504 593 568T499 666T360 701Q281 701 228 668T149 579T123 455Q123 369 161 303T262 201T400 165Q509
165 568 235ZM461 273T439 312T376 436L430 450Q470 368 497 332T562 281Q564 281 564 277T562 273H471Q461 273 439 312Z" />
<glyph unicode="&#xaf;" glyph-name="overscore" horiz-adv-x="345" d="M43 477T41 482T39 494Q39 501 41 506T47 511H298Q302 511 304 506T307 494Q307 487 305 482T298 477H47Q43 477 41 482Z" />
<glyph unicode="&#xb0;" glyph-name="degree" horiz-adv-x="332" d="M106 373T68 410T29 503Q29 556 67 593T167 630Q228 630 265 593T303 501Q303 446 266 410T167 373Q106 373 68 410ZM211 386T222 412T233 494Q233 556 216 586T161 617Q126 617 113 589T100
506Q100 449 116 418T174 386Q211 386 222 412Z" />
<glyph unicode="&#xb1;" glyph-name="plusminus" horiz-adv-x="398" d="M32 1T31 8T29 23Q29 30 30 36T33 42H364Q366 42 367 36T369 22Q369 14 368 8T364 1H34Q32 1 31 8ZM32 230T31 237T29 254Q29 262 30 268T33 275H364Q366 275 367 268T369 253Q369 244 368
237T364 230H34Q32 230 31 237ZM222 86T214 85T197 83Q189 83 183 84T176 87V418Q176 422 199 422Q222 422 222 418V88Q222 86 214 85Z" />
<glyph unicode="&#xb2;" glyph-name="uni00B2" horiz-adv-x="252" d="M34 449T51 477T95 537Q122 571 134 593T146 646Q146 704 101 704Q79 704 62 689T38 651Q38 649 34 649Q31 649 29 650T27 654Q38 689 61 709T126 730Q168 730 189 710T211 657Q211 625 191
600T132 540Q102 514 86 497T63 459Q63 456 66 456Q130 456 159 459T199 471T212 500Q212 502 217 502T223 500L221 408Q221 406 220 405T217 403H27Q25 403 24 405T24 409Q34 449 51 477Z" />
<glyph unicode="&#xb3;" glyph-name="uni00B3" horiz-adv-x="251" d="M167 575T196 555T225 497Q225 458 196 427T116 396Q43 396 22 465Q21 469 27 470T34 468Q43 447 60 434T102 420Q127 420 143 436T159 490Q159 526 140 545T84 564Q80 564 80 570T84 576Q114
576 130 595T146 645Q146 673 134 687T100 701Q78 701 61 686T40 650Q38 648 35 648Q32 648 30 649T28 653Q37 688 61 708T126 729Q167 729 189 709T212 656Q212 621 185 596T123 567V577Q167 575 196 555Z" />
<glyph unicode="&#xb4;" glyph-name="acute" horiz-adv-x="212" d="M69 472T65 472Q62 472 60 473T58 476L98 716Q99 720 126 725T171 731Q184 731 183 727L69 474Q69 472 65 472Z" />
<glyph unicode="&#xb6;" glyph-name="paragraph" horiz-adv-x="651" d="M308 -193T286 -179T264 -139Q264 -121 275 -110T308 -98Q331 -98 339 -109T353 -141Q356 -157 360 -165T378 -173Q401 -173 410 -134T419 8V125Q394 122 362 122Q283 122 214 148T99 233T54
386Q54 504 128 566T335 628Q366 628 399 625Q411 625 436 624T484 622Q504 622 542 624L594 625Q596 625 596 619T594 613Q551 613 528 592T505 532L506 55Q506 -74 468 -133T346 -193Q308 -193 286 -179Z" />
<glyph unicode="&#xb7;" glyph-name="middot" horiz-adv-x="195" d="M72 147T57 161T42 201Q42 225 57 239T97 254Q123 254 137 240T151 201Q151 175 137 161T97 147Q72 147 57 161Z" />
<glyph unicode="&#xb8;" glyph-name="cedilla" horiz-adv-x="232" d="M111 -30T111 -42Q111 -59 120 -70T152 -95Q178 -111 192 -128T207 -173Q207 -213 178 -244T91 -275Q20 -275 20 -230Q20 -216 30 -206T56 -195Q73 -195 80 -202T93 -224Q99 -238 105 -245T128
-252Q154 -252 154 -224Q154 -198 136 -177T70 -130Q65 -128 63 -125T60 -118Q60 -112 64 -101Q78 -68 93 -25Q98 -16 102 -1L118 -2Q111 -30 111 -42Z" />
<glyph unicode="&#xb9;" glyph-name="uni00B9" horiz-adv-x="262" d="M38 403T38 409T40 415Q72 415 85 419T102 437T106 484V602Q106 646 103 661T85 676Q72 676 35 659H34Q30 659 28 664T29 670L158 728Q159 729 161 729Q164 729 166 727T168 721V484Q168 450
171 437T187 419T230 415Q232 415 232 409T230 403L191 404Q157 406 138 406Q117 406 81 404L40 403Q38 403 38 409Z" />
<glyph unicode="&#xba;" glyph-name="ordmasculine" horiz-adv-x="322" d="M38 284T37 289T35 302Q35 307 36 312T39 317H282Q284 317 285 312T287 301Q287 295 286 290T282 284H40Q38 284 37 289ZM99 359T64 399T29 498Q29 541 50 570T103 615T168 630Q206 630
234 611T278 561T294 495Q294 458 275 427T225 377T156 359Q99 359 64 399ZM199 374T215 401T231 477Q231 535 208 574T149 614Q121 614 107 589T92 517Q92 459 114 417T171 374Q199 374 215 401Z" />
<glyph unicode="&#xbb;" glyph-name="guillemotright" horiz-adv-x="468" d="M418 207T418 201Q418 194 413 189L229 40Q229 39 227 39Q225 39 223 41T222 46L325 200L222 356Q221 358 224 361T229 361L413 212Q418 207 418 201ZM254 207T254 201Q254 194 249
189L65 40Q65 39 63 39Q61 39 59 41T58 46L161 200L58 356Q57 358 60 361T65 361L249 212Q254 207 254 201Z" />
<glyph unicode="&#xbc;" glyph-name="onequarter" horiz-adv-x="605" d="M38 309T38 314T40 320Q72 320 85 324T102 342T106 389V508Q106 552 103 567T85 582Q72 582 35 565H33Q30 565 28 569T29 575L158 634H160Q163 634 165 632T168 627V389Q168 355 171 342T187
324T230 320Q232 320 232 315T230 309Q205 309 191 310L138 311L81 310Q66 309 40 309Q38 309 38 314ZM186 -4T172 3T158 13L437 629Q439 632 453 626T467 617L187 -1Q186 -4 172 3ZM540 27T542 22T552 14T581 11Q582 9 582 5T581 -1L514 0L430 -1Q429 -1 429 5T430
11Q454 11 464 13T477 21T481 41V260L498 270L387 112Q384 109 389 109Q453 109 543 113L581 115Q584 115 584 102Q584 88 581 88Q461 94 355 94Q352 94 350 97T351 103L514 321Q517 325 526 325Q531 325 535 324T540 320V41Q540 27 542 22Z" />
<glyph unicode="&#xbd;" glyph-name="onehalf" horiz-adv-x="611" d="M38 309T38 314T40 320Q72 320 85 324T102 342T106 389V508Q106 552 103 567T85 582Q72 582 35 565H33Q30 565 28 569T29 575L158 634H160Q163 634 165 632T168 627V389Q168 355 171 342T187
324T230 320Q232 320 232 315T230 309Q205 309 191 310L138 311L81 310Q66 309 40 309Q38 309 38 314ZM186 -4T172 3T158 13L437 629Q439 632 453 626T467 617L187 -1Q186 -4 172 3ZM393 46T410 74T454 134Q480 166 492 189T505 243Q505 272 493 286T460 300Q438
300 421 286T397 248Q397 245 393 245Q390 245 388 246T386 250Q397 285 420 305T485 326Q527 326 548 306T570 254Q570 221 550 196T490 136Q461 111 445 94T422 56Q422 53 425 53Q489 53 518 56T558 68T571 98Q571 100 576 100T582 98L580 5Q580 0 576 0H386Q382
0 383 6Q393 46 410 74Z" />
<glyph unicode="&#xbe;" glyph-name="threequarters" horiz-adv-x="594" d="M166 481T195 461T225 403Q225 364 196 333T116 302Q43 302 22 371Q21 375 27 376T34 373Q43 352 60 339T102 326Q127 326 143 342T159 396Q159 432 140 451T84 470Q80 470 80 476T84
482Q114 482 130 501T146 551Q146 578 134 592T100 607Q78 607 61 592T40 556Q39 553 35 553Q32 553 30 554T28 558Q37 593 61 613T126 634Q167 634 189 614T212 561Q212 527 185 502T123 473V483Q166 481 195 461ZM175 -4T161 3T147 13L426 629Q428 632 442 626T456
617L176 -1Q175 -4 161 3ZM529 27T531 22T541 14T570 11Q571 9 571 5T570 -1L503 0L419 -1Q418 -1 418 5T419 11Q443 11 453 13T466 21T470 41V260L487 270L376 112Q373 109 378 109Q442 109 532 113L570 115Q573 115 573 102Q573 88 570 88Q450 94 344 94Q341
94 339 97T340 103L503 321Q506 325 515 325Q520 325 524 324T529 320V41Q529 27 531 22Z" />
<glyph unicode="&#xbf;" glyph-name="questiondown" horiz-adv-x="327" d="M182 -258T188 -247T197 -215Q200 -189 210 -172T248 -155Q271 -155 282 -167T293 -197Q293 -229 256 -252T163 -275Q100 -275 58 -244T15 -156Q15 -118 33 -93T87 -36L105 -21Q137 8
151 37T166 102Q166 122 160 156Q159 159 166 160T175 159Q187 132 194 98T201 39Q201 8 191 -11T159 -56Q136 -83 124 -106T112 -168Q112 -208 126 -233T164 -258Q182 -258 188 -247ZM201 361T216 346T231 306Q231 282 216 268T176 254Q151 254 137 268T122 306Q122
332 136 346T176 361Q201 361 216 346Z" />
<glyph unicode="&#xc0;" glyph-name="Agrave" horiz-adv-x="711" d="M192 270H472L479 245H179L192 270ZM715 12T715 6T711 0Q692 0 650 2Q608 4 589 4Q564 4 530 2Q496 0 477 0Q473 0 473 6T477 12Q507 12 520 18T533 40Q533 55 516 91L307 516L348 583L150 137Q137
107 137 83Q137 48 162 30T232 12Q237 12 237 6T232 0Q214 0 180 2Q142 4 114 4Q87 4 51 2Q19 0 -2 0Q-7 0 -7 6T-2 12Q26 12 45 23T82 62T125 147L340 631Q342 634 349 634Q356 634 357 631L602 137Q636 65 659 39T711 12Q715 12 715 6ZM337 729T227 756Q216 758
236 768T283 786T315 790Q345 768 360 756Q421 710 453 689Q456 688 456 685Q456 682 454 680T449 679Q337 729 227 756Z" />
<glyph unicode="&#xc1;" glyph-name="Aacute" horiz-adv-x="711" d="M192 270H472L479 245H179L192 270ZM715 12T715 6T711 0Q692 0 650 2Q608 4 589 4Q564 4 530 2Q496 0 477 0Q473 0 473 6T477 12Q507 12 520 18T533 40Q533 55 516 91L307 516L348 583L150 137Q137
107 137 83Q137 48 162 30T232 12Q237 12 237 6T232 0Q214 0 180 2Q142 4 114 4Q87 4 51 2Q19 0 -2 0Q-7 0 -7 6T-2 12Q26 12 45 23T82 62T125 147L340 631Q342 634 349 634Q356 634 357 631L602 137Q636 65 659 39T711 12Q715 12 715 6ZM252 678Q248 678 247 682T248
689Q281 710 342 756Q356 768 386 790Q391 794 418 786T465 768T475 756Q357 726 253 678H252Z" />
<glyph unicode="&#xc2;" glyph-name="Acircumflex" horiz-adv-x="711" d="M192 270H472L479 245H179L192 270ZM715 12T715 6T711 0Q692 0 650 2Q608 4 589 4Q564 4 530 2Q496 0 477 0Q473 0 473 6T477 12Q507 12 520 18T533 40Q533 55 516 91L307 516L348 583L150
137Q137 107 137 83Q137 48 162 30T232 12Q237 12 237 6T232 0Q214 0 180 2Q142 4 114 4Q87 4 51 2Q19 0 -2 0Q-7 0 -7 6T-2 12Q26 12 45 23T82 62T125 147L340 631Q342 634 349 634Q356 634 357 631L602 137Q636 65 659 39T711 12Q715 12 715 6ZM343 800T350 800Q356
800 361 795L463 686Q464 686 464 684Q464 682 462 680T458 679L350 724L241 679Q239 678 236 681T235 686L338 795Q343 800 350 800Z" />
<glyph unicode="&#xc3;" glyph-name="Atilde" horiz-adv-x="711" d="M192 270H472L479 245H179L192 270ZM715 12T715 6T711 0Q692 0 650 2Q608 4 589 4Q564 4 530 2Q496 0 477 0Q473 0 473 6T477 12Q507 12 520 18T533 40Q533 55 516 91L307 516L348 583L150 137Q137
107 137 83Q137 48 162 30T232 12Q237 12 237 6T232 0Q214 0 180 2Q142 4 114 4Q87 4 51 2Q19 0 -2 0Q-7 0 -7 6T-2 12Q26 12 45 23T82 62T125 147L340 631Q342 634 349 634Q356 634 357 631L602 137Q636 65 659 39T711 12Q715 12 715 6ZM442 760T452 766T476 787L478
788Q480 788 482 785T483 780Q457 736 440 721T401 706Q380 706 343 717Q327 722 309 726T274 730Q255 730 247 725T224 703H223Q220 703 218 705T217 710Q261 785 303 785Q315 785 351 775Q400 760 425 760Q442 760 452 766Z" />
<glyph unicode="&#xc4;" glyph-name="Adieresis" horiz-adv-x="711" d="M192 270H472L479 245H179L192 270ZM715 12T715 6T711 0Q692 0 650 2Q608 4 589 4Q564 4 530 2Q496 0 477 0Q473 0 473 6T477 12Q507 12 520 18T533 40Q533 55 516 91L307 516L348 583L150
137Q137 107 137 83Q137 48 162 30T232 12Q237 12 237 6T232 0Q214 0 180 2Q142 4 114 4Q87 4 51 2Q19 0 -2 0Q-7 0 -7 6T-2 12Q26 12 45 23T82 62T125 147L340 631Q342 634 349 634Q356 634 357 631L602 137Q636 65 659 39T711 12Q715 12 715 6ZM239 708T226 721T212
758Q212 780 226 793T263 806Q286 806 298 794T311 758Q311 734 299 721T263 708Q239 708 226 721ZM414 708T401 721T387 758Q387 780 400 792T438 805Q461 805 473 793T486 758Q486 734 474 721T438 708Q414 708 401 721Z" />
<glyph unicode="&#xc5;" glyph-name="Aring" horiz-adv-x="711" d="M192 270H472L479 245H179L192 270ZM715 12T715 6T711 0Q692 0 650 2Q608 4 589 4Q564 4 530 2Q496 0 477 0Q473 0 473 6T477 12Q507 12 520 18T533 40Q533 55 516 91L307 516L348 583L150 137Q137
107 137 83Q137 48 162 30T232 12Q237 12 237 6T232 0Q214 0 180 2Q142 4 114 4Q87 4 51 2Q19 0 -2 0Q-7 0 -7 6T-2 12Q26 12 45 23T82 62T125 147L340 631Q342 634 349 634Q356 634 357 631L602 137Q636 65 659 39T711 12Q715 12 715 6ZM297 661T270 684T242 741Q242
777 276 797T352 818Q393 818 422 795T452 739Q452 704 419 683T343 661Q297 661 270 684ZM388 674T388 721Q388 755 372 780T332 805Q306 805 306 761Q306 727 320 701T358 674Q388 674 388 721Z" />
<glyph unicode="&#xc6;" glyph-name="AE" horiz-adv-x="883" d="M-9 0T-9 6T-4 12Q34 12 70 40T148 132L441 574Q454 592 454 599Q454 608 438 610T377 613Q375 613 375 619T377 625H795Q804 625 804 616L806 486Q806 484 801 484T795 486Q790 512 772 538T725
581T664 599H618Q582 599 568 587T553 543V85Q553 52 565 39T610 26H664Q716 26 763 64T825 155Q825 157 830 157Q837 157 837 154Q828 86 828 15Q828 7 825 4T812 0H385Q383 0 383 6T385 12Q419 12 434 17T456 36T462 81V589L494 604L188 134Q160 91 160 62Q160
38 179 25T236 12Q241 12 241 6T236 0Q215 0 177 2Q133 4 101 4Q76 4 44 2Q14 0 -4 0Q-9 0 -9 6ZM305 338H528L535 312H290L305 338ZM756 312T644 312H490V338H646Q755 338 755 412Q755 415 761 415T767 412L766 325Q766 294 767 278L768 226Q768 224 762 224T756
226Q756 312 644 312Z" />
<glyph unicode="&#xc7;" glyph-name="Ccedilla" horiz-adv-x="683" d="M533 636T601 605Q609 601 611 598T615 582L627 450Q627 447 622 446T615 449Q589 531 538 574T410 617Q336 617 279 581T190 476T158 316Q158 226 192 156T285 46T418 7Q491 7 539 45T625
168Q626 171 631 170T636 167L623 48Q621 36 619 33T609 25Q519 -12 417 -12Q311 -12 227 28T96 142T49 311Q49 405 97 479T231 594T422 636Q533 636 601 605ZM409 -30T409 -42Q409 -59 418 -70T450 -95Q476 -111 490 -128T505 -173Q505 -213 476 -244T389 -275Q318
-275 318 -230Q318 -216 328 -206T354 -195Q371 -195 378 -202T391 -224Q397 -238 403 -245T426 -252Q452 -252 452 -224Q452 -198 434 -177T368 -130Q363 -128 361 -125T358 -118Q358 -112 362 -101Q376 -68 391 -25Q396 -16 400 -1L416 -2Q409 -30 409 -42Z"
/>
<glyph unicode="&#xc8;" glyph-name="Egrave" horiz-adv-x="547" d="M39 0T39 6T42 12Q76 12 91 17T112 36T118 81V544Q118 574 113 588T91 607T42 613Q39 613 39 619T42 625H458Q468 625 468 616L470 486Q470 484 465 484T458 486Q434 599 320 599H279Q242 599
228 586T213 542V85Q213 52 225 39T270 26H319Q453 26 489 155Q489 157 494 157Q501 157 501 154Q491 78 491 15Q491 7 488 4T476 0H42Q39 0 39 6ZM420 312T308 312H168V338H309Q419 338 419 412Q419 415 424 415T430 412L429 325L430 278Q432 246 432 226Q432
224 426 224T420 226Q420 312 308 312ZM283 729T173 756Q163 758 183 768T230 786T262 790L299 762Q359 716 400 689Q402 688 402 685Q402 682 400 680T396 679Q283 729 173 756Z" />
<glyph unicode="&#xc9;" glyph-name="Eacute" horiz-adv-x="547" d="M39 0T39 6T42 12Q76 12 91 17T112 36T118 81V544Q118 574 113 588T91 607T42 613Q39 613 39 619T42 625H458Q468 625 468 616L470 486Q470 484 465 484T458 486Q434 599 320 599H279Q242 599
228 586T213 542V85Q213 52 225 39T270 26H319Q453 26 489 155Q489 157 494 157Q501 157 501 154Q491 78 491 15Q491 7 488 4T476 0H42Q39 0 39 6ZM420 312T308 312H168V338H309Q419 338 419 412Q419 415 424 415T430 412L429 325L430 278Q432 246 432 226Q432
224 426 224T420 226Q420 312 308 312ZM197 678Q193 678 192 682T194 689Q226 708 282 752Q328 787 332 790Q337 794 364 786T411 768T421 756Q359 741 308 723T199 679L197 678Z" />
<glyph unicode="&#xca;" glyph-name="Ecircumflex" horiz-adv-x="547" d="M39 0T39 6T42 12Q76 12 91 17T112 36T118 81V544Q118 574 113 588T91 607T42 613Q39 613 39 619T42 625H458Q468 625 468 616L470 486Q470 484 465 484T458 486Q434 599 320 599H279Q242
599 228 586T213 542V85Q213 52 225 39T270 26H319Q453 26 489 155Q489 157 494 157Q501 157 501 154Q491 78 491 15Q491 7 488 4T476 0H42Q39 0 39 6ZM420 312T308 312H168V338H309Q419 338 419 412Q419 415 424 415T430 412L429 325L430 278Q432 246 432 226Q432
224 426 224T420 226Q420 312 308 312ZM290 813T297 813Q303 813 308 808L410 699Q411 699 411 697Q411 695 409 693T405 692L297 737L188 692Q186 691 183 694T182 699L285 808Q290 813 297 813Z" />
<glyph unicode="&#xcb;" glyph-name="Edieresis" horiz-adv-x="547" d="M39 0T39 6T42 12Q76 12 91 17T112 36T118 81V544Q118 574 113 588T91 607T42 613Q39 613 39 619T42 625H458Q468 625 468 616L470 486Q470 484 465 484T458 486Q434 599 320 599H279Q242
599 228 586T213 542V85Q213 52 225 39T270 26H319Q453 26 489 155Q489 157 494 157Q501 157 501 154Q491 78 491 15Q491 7 488 4T476 0H42Q39 0 39 6ZM420 312T308 312H168V338H309Q419 338 419 412Q419 415 424 415T430 412L429 325L430 278Q432 246 432 226Q432
224 426 224T420 226Q420 312 308 312ZM186 708T173 721T159 758Q159 781 172 793T210 806Q233 806 245 794T258 758Q258 734 246 721T210 708Q186 708 173 721ZM361 708T348 721T334 758Q334 780 347 792T384 805Q407 805 419 793T432 758Q432 734 420 721T384
708Q361 708 348 721Z" />
<glyph unicode="&#xcc;" glyph-name="Igrave" horiz-adv-x="339" d="M217 50T222 36T243 17T293 12Q296 12 296 6T293 0Q261 0 242 1L168 2L96 1Q77 0 44 0Q41 0 41 6T44 12Q78 12 93 17T115 36T121 81V544Q121 574 115 588T94 607T44 613Q41 613 41 619T44 625L96
624Q140 622 168 622Q199 622 243 624L293 625Q296 625 296 619T293 613Q260 613 244 607T223 587T217 542V81Q217 50 222 36ZM157 729T47 756Q36 758 56 768T103 786T135 790Q165 768 180 756Q241 710 273 689Q276 688 276 685Q276 682 274 680T269 679Q157 729
47 756Z" />
<glyph unicode="&#xcd;" glyph-name="Iacute" horiz-adv-x="339" d="M217 50T222 36T243 17T293 12Q296 12 296 6T293 0Q261 0 242 1L168 2L96 1Q77 0 44 0Q41 0 41 6T44 12Q78 12 93 17T115 36T121 81V544Q121 574 115 588T94 607T44 613Q41 613 41 619T44 625L96
624Q140 622 168 622Q199 622 243 624L293 625Q296 625 296 619T293 613Q260 613 244 607T223 587T217 542V81Q217 50 222 36ZM70 678Q66 678 65 682T67 689Q104 713 156 753L206 790Q211 794 237 786T284 768T294 756Q232 741 181 723T72 679L70 678Z" />
<glyph unicode="&#xce;" glyph-name="Icircumflex" horiz-adv-x="339" d="M217 50T222 36T243 17T293 12Q296 12 296 6T293 0Q261 0 242 1L168 2L96 1Q77 0 44 0Q41 0 41 6T44 12Q78 12 93 17T115 36T121 81V544Q121 574 115 588T94 607T44 613Q41 613 41 619T44
625L96 624Q140 622 168 622Q199 622 243 624L293 625Q296 625 296 619T293 613Q260 613 244 607T223 587T217 542V81Q217 50 222 36ZM163 813T170 813Q176 813 181 808L283 699Q284 699 284 697Q284 695 282 693T278 692L170 737L61 692Q59 691 56 694T55 699L158
808Q163 813 170 813Z" />
<glyph unicode="&#xcf;" glyph-name="Idieresis" horiz-adv-x="339" d="M217 50T222 36T243 17T293 12Q296 12 296 6T293 0Q261 0 242 1L168 2L96 1Q77 0 44 0Q41 0 41 6T44 12Q78 12 93 17T115 36T121 81V544Q121 574 115 588T94 607T44 613Q41 613 41 619T44
625L96 624Q140 622 168 622Q199 622 243 624L293 625Q296 625 296 619T293 613Q260 613 244 607T223 587T217 542V81Q217 50 222 36ZM71 708T58 721T44 758Q44 780 58 793T95 806Q118 806 131 794T144 758Q144 734 131 721T95 708Q71 708 58 721ZM221 708T208
721T195 758Q195 780 208 792T244 805Q267 805 279 793T292 758Q292 734 280 721T244 708Q221 708 208 721Z" />
<glyph unicode="&#xd0;" glyph-name="Eth" horiz-adv-x="700" d="M49 298T49 311Q49 324 53 324H340Q345 324 345 311Q345 306 344 302T340 298H53Q49 298 49 311ZM287 -4T245 -1Q230 0 207 1T156 2L85 1Q66 0 32 0Q30 0 30 6T32 12Q66 12 81 17T103 36T109 81V544Q109
574 104 588T82 607T33 613Q31 613 31 619T33 625L86 624Q130 622 156 622Q195 622 237 625Q287 627 304 627Q406 627 485 587T607 478T651 323Q651 226 606 152T485 37T318 -4Q287 -4 245 -1ZM377 16T430 49T514 146T544 301Q544 387 516 456T435 566T314 607Q271
607 249 602T215 584T204 542V92Q204 51 225 34T308 16Q377 16 430 49Z" />
<glyph unicode="&#xd1;" glyph-name="Ntilde" horiz-adv-x="732" d="M125 602L152 600V121Q152 68 172 40T233 12Q236 12 236 6T233 0Q207 0 193 1L140 2L81 1Q65 0 35 0Q32 0 32 6T35 12Q78 12 101 40T125 121V602ZM633 -17T628 -18T621 -17L140 543Q106 582
80 597T29 613Q26 613 26 619T29 625L69 624Q81 623 105 623L169 624Q181 625 197 625Q205 625 209 621T221 605Q238 582 246 573L625 127L633 -14Q633 -17 628 -18ZM633 -14L606 16V503Q606 556 586 584T525 613Q523 613 523 619T525 625L566 624Q598 622 619
622Q638 622 674 624L716 625Q719 625 719 619T716 613Q676 613 655 585T633 503V-14ZM472 760T482 766T506 787L508 788Q510 788 512 785T513 780Q487 736 470 721T431 706Q410 706 373 717Q357 722 339 726T304 730Q285 730 277 725T254 703H253Q250 703 248
705T247 710Q291 785 333 785Q345 785 381 775Q430 760 455 760Q472 760 482 766Z" />
<glyph unicode="&#xd2;" glyph-name="Ograve" horiz-adv-x="766" d="M273 -12T201 31T89 149T49 312Q49 415 101 488T234 599T401 636Q496 636 568 592T678 474T717 319Q717 228 669 152T541 32T366 -12Q273 -12 201 31ZM460 12T507 44T582 140T610 290Q610 383
580 455T493 569T360 610Q262 610 209 541T156 348Q156 252 187 176T274 56T400 12Q460 12 507 44ZM374 729T264 756Q254 758 274 768T321 786T353 790Q383 768 398 756Q459 710 491 689Q493 688 493 685Q493 682 491 680T487 679Q374 729 264 756Z" />
<glyph unicode="&#xd3;" glyph-name="Oacute" horiz-adv-x="766" d="M273 -12T201 31T89 149T49 312Q49 415 101 488T234 599T401 636Q496 636 568 592T678 474T717 319Q717 228 669 152T541 32T366 -12Q273 -12 201 31ZM460 12T507 44T582 140T610 290Q610 383
580 455T493 569T360 610Q262 610 209 541T156 348Q156 252 187 176T274 56T400 12Q460 12 507 44ZM288 678Q284 678 283 682T285 689Q320 712 370 750Q388 764 424 790Q429 794 455 786T502 768T512 756Q450 741 399 723T290 679L288 678Z" />
<glyph unicode="&#xd4;" glyph-name="Ocircumflex" horiz-adv-x="766" d="M273 -12T201 31T89 149T49 312Q49 415 101 488T234 599T401 636Q496 636 568 592T678 474T717 319Q717 228 669 152T541 32T366 -12Q273 -12 201 31ZM460 12T507 44T582 140T610 290Q610
383 580 455T493 569T360 610Q262 610 209 541T156 348Q156 252 187 176T274 56T400 12Q460 12 507 44ZM381 813T388 813Q394 813 399 808L501 699Q502 699 502 697Q502 695 500 693T496 692L388 737L279 692Q277 691 274 694T273 699L376 808Q381 813 388 813Z"
/>
<glyph unicode="&#xd5;" glyph-name="Otilde" horiz-adv-x="766" d="M273 -12T201 31T89 149T49 312Q49 415 101 488T234 599T401 636Q496 636 568 592T678 474T717 319Q717 228 669 152T541 32T366 -12Q273 -12 201 31ZM460 12T507 44T582 140T610 290Q610 383
580 455T493 569T360 610Q262 610 209 541T156 348Q156 252 187 176T274 56T400 12Q460 12 507 44ZM479 760T490 766T513 787L515 788Q517 788 519 785T520 780Q494 736 477 721T438 706Q418 706 381 717Q364 722 346 726T311 730Q292 730 284 725T261 703H260Q257
703 255 705T254 710Q298 785 340 785Q354 785 389 774Q394 773 417 767T462 760Q479 760 490 766Z" />
<glyph unicode="&#xd6;" glyph-name="Odieresis" horiz-adv-x="766" d="M273 -12T201 31T89 149T49 312Q49 415 101 488T234 599T401 636Q496 636 568 592T678 474T717 319Q717 228 669 152T541 32T366 -12Q273 -12 201 31ZM460 12T507 44T582 140T610 290Q610
383 580 455T493 569T360 610Q262 610 209 541T156 348Q156 252 187 176T274 56T400 12Q460 12 507 44ZM277 708T264 721T250 758Q250 781 263 793T301 806Q324 806 336 794T349 758Q349 734 337 721T301 708Q277 708 264 721ZM452 708T439 721T425 758Q425 780
438 792T475 805Q498 805 510 793T523 758Q523 734 511 721T475 708Q452 708 439 721Z" />
<glyph unicode="&#xd7;" glyph-name="multiply" horiz-adv-x="393" d="M93 53T77 69T62 88L296 322Q300 325 316 309T329 290L97 56Q93 53 77 69ZM61 293T76 309T95 324L329 90Q333 87 317 70T297 57L64 290Q61 293 76 309Z" />
<glyph unicode="&#xd8;" glyph-name="Oslash" horiz-adv-x="783" d="M85 -9Q81 -9 74 -1T69 10L682 632H683Q688 632 695 625T700 615L86 -8L85 -9ZM273 -12T201 31T89 149T49 312Q49 415 101 488T234 599T401 636Q496 636 568 592T678 474T717 319Q717 228 669
152T541 32T366 -12Q273 -12 201 31ZM460 12T507 44T582 140T610 290Q610 383 580 455T493 569T360 610Q262 610 209 541T156 348Q156 252 187 176T274 56T400 12Q460 12 507 44Z" />
<glyph unicode="&#xd9;" glyph-name="Ugrave" horiz-adv-x="701" d="M571 555T548 584T480 613Q478 613 478 619T480 625L526 624Q564 622 586 622Q604 622 640 624L684 625Q686 625 686 619T684 613Q645 613 624 584T602 503V223Q602 151 572 98T486 15T357 -14Q284
-14 227 14T139 96T107 222V544Q107 574 101 588T80 607T31 613Q28 613 28 619T31 625L83 624Q127 622 154 622Q184 622 228 624L278 625Q281 625 281 619T278 613Q245 613 229 607T208 587T202 542V257Q202 138 251 80T390 21Q475 21 523 73T571 222V503Q571 555
548 584ZM361 729T251 756Q240 758 260 768T307 786T339 790Q369 768 384 756Q445 710 477 689Q480 688 480 685Q480 682 478 680T473 679Q361 729 251 756Z" />
<glyph unicode="&#xda;" glyph-name="Uacute" horiz-adv-x="701" d="M571 555T548 584T480 613Q478 613 478 619T480 625L526 624Q564 622 586 622Q604 622 640 624L684 625Q686 625 686 619T684 613Q645 613 624 584T602 503V223Q602 151 572 98T486 15T357 -14Q284
-14 227 14T139 96T107 222V544Q107 574 101 588T80 607T31 613Q28 613 28 619T31 625L83 624Q127 622 154 622Q184 622 228 624L278 625Q281 625 281 619T278 613Q245 613 229 607T208 587T202 542V257Q202 138 251 80T390 21Q475 21 523 73T571 222V503Q571 555
548 584ZM274 678Q270 678 269 682T271 689Q308 713 360 753L410 790Q415 794 441 786T488 768T498 756Q436 741 385 723T276 679L274 678Z" />
<glyph unicode="&#xdb;" glyph-name="Ucircumflex" horiz-adv-x="701" d="M571 555T548 584T480 613Q478 613 478 619T480 625L526 624Q564 622 586 622Q604 622 640 624L684 625Q686 625 686 619T684 613Q645 613 624 584T602 503V223Q602 151 572 98T486 15T357
-14Q284 -14 227 14T139 96T107 222V544Q107 574 101 588T80 607T31 613Q28 613 28 619T31 625L83 624Q127 622 154 622Q184 622 228 624L278 625Q281 625 281 619T278 613Q245 613 229 607T208 587T202 542V257Q202 138 251 80T390 21Q475 21 523 73T571 222V503Q571
555 548 584ZM367 813T374 813Q380 813 385 808L487 699Q488 699 488 697Q488 695 486 693T482 692L374 737L265 692Q263 691 260 694T259 699L362 808Q367 813 374 813Z" />
<glyph unicode="&#xdc;" glyph-name="Udieresis" horiz-adv-x="701" d="M571 555T548 584T480 613Q478 613 478 619T480 625L526 624Q564 622 586 622Q604 622 640 624L684 625Q686 625 686 619T684 613Q645 613 624 584T602 503V223Q602 151 572 98T486 15T357
-14Q284 -14 227 14T139 96T107 222V544Q107 574 101 588T80 607T31 613Q28 613 28 619T31 625L83 624Q127 622 154 622Q184 622 228 624L278 625Q281 625 281 619T278 613Q245 613 229 607T208 587T202 542V257Q202 138 251 80T390 21Q475 21 523 73T571 222V503Q571
555 548 584ZM263 708T250 721T236 758Q236 781 249 793T287 806Q310 806 322 794T335 758Q335 734 323 721T287 708Q263 708 250 721ZM438 708T425 721T411 758Q411 780 424 792T461 805Q484 805 497 793T510 758Q510 734 497 721T461 708Q438 708 425 721Z" />
<glyph unicode="&#xdd;" glyph-name="Yacute" horiz-adv-x="616" d="M469 539T469 569Q469 613 414 613Q412 613 412 619T414 625L466 624Q508 622 543 622Q560 622 584 624L621 625Q623 625 623 619T621 613Q588 613 546 579T471 490L332 265L312 281L444 498Q469
539 469 569ZM75 572T51 592T3 613Q0 613 0 619T3 625L36 624Q58 622 68 622Q101 622 163 624L226 625Q228 625 228 619T226 613Q184 613 184 586Q184 574 197 553L350 318L270 273L109 519Q75 572 51 592ZM357 319V81Q357 50 362 36T382 17T432 12Q435 12 435
6T432 0Q400 0 382 1L309 2L237 1Q217 0 184 0Q182 0 182 6T184 12Q218 12 234 17T256 36T262 81V310L357 319ZM223 678Q219 678 218 682T220 689Q252 708 308 752Q354 787 358 790Q363 794 390 786T437 768T447 756Q385 741 334 723T225 679L223 678Z" />
<glyph unicode="&#xde;" glyph-name="Thorn" horiz-adv-x="545" d="M110 574T105 588T86 607T42 613Q39 613 39 619T42 625L91 624Q133 622 158 622Q190 622 244 624L309 625Q311 625 311 619T309 613Q263 613 242 607T213 586T205 539V85Q205 53 212 39T241 18T309
12Q311 12 311 6T309 0Q267 0 244 1L158 2L91 1Q73 0 42 0Q39 0 39 6T42 12Q72 12 86 17T105 36T110 81V544Q110 574 105 588ZM180 491T220 495T296 499Q394 499 453 459T512 331Q512 266 480 222T399 155T299 133Q276 133 249 138Q247 138 247 143Q247 146 248
149T252 151Q276 147 288 147Q338 147 372 190T407 316Q407 396 370 438T271 480Q216 480 157 464L148 483Q180 491 220 495Z" />
<glyph unicode="&#xdf;" glyph-name="germandbls" horiz-adv-x="555" d="M320 -11T293 8T266 61Q266 80 278 92T311 104Q332 104 341 92T359 55Q367 32 375 21T401 10Q425 10 438 28T451 74Q451 113 429 143T362 215Q317 259 295 289T273 359Q273 385 283 407T314
459Q338 495 350 523T363 589Q363 637 342 673T278 709Q223 709 196 641T169 446V81Q169 51 173 37T189 17T228 12Q230 12 230 6T228 0L130 1L25 0Q22 0 22 6T25 12Q52 12 65 17T83 37T88 81L87 310Q87 332 82 342T64 356T22 360Q21 360 20 362T18 368Q18 370 19
372T22 375Q53 375 66 380T82 399T89 448Q97 588 151 657T315 726Q381 726 418 700T455 629Q455 594 437 570T384 515Q354 488 340 470T325 426Q325 395 347 366T417 292Q471 240 498 205T525 127Q525 93 505 61T449 9T365 -11Q320 -11 293 8Z" />
<glyph unicode="&#xe0;" glyph-name="agrave" horiz-adv-x="420" d="M313 -8T308 -8Q290 -8 275 16T260 82V258Q260 320 248 348T208 377Q175 377 161 353T143 298Q137 247 92 247Q70 247 60 257T49 282Q49 310 82 336T163 379T247 396Q290 396 315 369T341 288V108Q341
45 380 45Q395 45 416 54H418Q422 54 423 50T420 43L317 -6Q313 -8 308 -8ZM88 -7T67 12T46 64Q46 91 60 108T97 135T163 162L270 202L273 187L200 156Q173 145 157 132T141 93Q141 69 156 55T193 41Q212 41 232 53L286 89L287 74L216 24Q192 7 173 0T129 -7Q88
-7 67 12ZM104 731T117 731Q136 731 163 726T191 716L229 476Q230 474 225 473T219 474L105 727Q104 731 117 731Z" />
<glyph unicode="&#xe1;" glyph-name="aacute" horiz-adv-x="420" d="M313 -8T308 -8Q290 -8 275 16T260 82V258Q260 320 248 348T208 377Q175 377 161 353T143 298Q137 247 92 247Q70 247 60 257T49 282Q49 310 82 336T163 379T247 396Q290 396 315 369T341 288V108Q341
45 380 45Q395 45 416 54H418Q422 54 423 50T420 43L317 -6Q313 -8 308 -8ZM88 -7T67 12T46 64Q46 91 60 108T97 135T163 162L270 202L273 187L200 156Q173 145 157 132T141 93Q141 69 156 55T193 41Q212 41 232 53L286 89L287 74L216 24Q192 7 173 0T129 -7Q88
-7 67 12ZM211 472T207 472Q204 472 202 473T200 476L240 716Q241 720 268 725T314 731Q326 731 325 727L211 474Q211 472 207 472Z" />
<glyph unicode="&#xe2;" glyph-name="acircumflex" horiz-adv-x="420" d="M313 -8T308 -8Q290 -8 275 16T260 82V258Q260 320 248 348T208 377Q175 377 161 353T143 298Q137 247 92 247Q70 247 60 257T49 282Q49 310 82 336T163 379T247 396Q290 396 315 369T341
288V108Q341 45 380 45Q395 45 416 54H418Q422 54 423 50T420 43L317 -6Q313 -8 308 -8ZM88 -7T67 12T46 64Q46 91 60 108T97 135T163 162L270 202L273 187L200 156Q173 145 157 132T141 93Q141 69 156 55T193 41Q212 41 232 53L286 89L287 74L216 24Q192 7 173
0T129 -7Q88 -7 67 12ZM292 475Q292 473 288 472T282 474L214 602L145 474Q144 471 139 472T134 476L202 725Q203 730 213 730Q224 730 225 725L292 476V475Z" />
<glyph unicode="&#xe3;" glyph-name="atilde" horiz-adv-x="420" d="M313 -8T308 -8Q290 -8 275 16T260 82V258Q260 320 248 348T208 377Q175 377 161 353T143 298Q137 247 92 247Q70 247 60 257T49 282Q49 310 82 336T163 379T247 396Q290 396 315 369T341 288V108Q341
45 380 45Q395 45 416 54H418Q422 54 423 50T420 43L317 -6Q313 -8 308 -8ZM88 -7T67 12T46 64Q46 91 60 108T97 135T163 162L270 202L273 187L200 156Q173 145 157 132T141 93Q141 69 156 55T193 41Q212 41 232 53L286 89L287 74L216 24Q192 7 173 0T129 -7Q88
-7 67 12ZM306 530T316 536T339 557L341 558Q343 558 345 555T346 550Q319 506 303 491T265 476Q249 476 231 481T207 487Q190 492 172 496T138 500Q119 500 111 495T87 473H86Q83 473 81 475T80 480Q124 555 166 555Q182 555 215 544Q221 542 244 536T289 530Q306
530 316 536Z" />
<glyph unicode="&#xe4;" glyph-name="adieresis" horiz-adv-x="420" d="M313 -8T308 -8Q290 -8 275 16T260 82V258Q260 320 248 348T208 377Q175 377 161 353T143 298Q137 247 92 247Q70 247 60 257T49 282Q49 310 82 336T163 379T247 396Q290 396 315 369T341
288V108Q341 45 380 45Q395 45 416 54H418Q422 54 423 50T420 43L317 -6Q313 -8 308 -8ZM88 -7T67 12T46 64Q46 91 60 108T97 135T163 162L270 202L273 187L200 156Q173 145 157 132T141 93Q141 69 156 55T193 41Q212 41 232 53L286 89L287 74L216 24Q192 7 173
0T129 -7Q88 -7 67 12ZM103 469T90 482T76 519Q76 542 89 554T127 567Q150 567 162 555T175 519Q175 495 163 482T127 469Q103 469 90 482ZM278 469T265 482T251 519Q251 541 264 553T301 566Q324 566 337 554T350 519Q350 495 337 482T301 469Q278 469 265 482Z"
/>
<glyph unicode="&#xe5;" glyph-name="aring" horiz-adv-x="420" d="M313 -8T308 -8Q290 -8 275 16T260 82V258Q260 320 248 348T208 377Q175 377 161 353T143 298Q137 247 92 247Q70 247 60 257T49 282Q49 310 82 336T163 379T247 396Q290 396 315 369T341 288V108Q341
45 380 45Q395 45 416 54H418Q422 54 423 50T420 43L317 -6Q313 -8 308 -8ZM88 -7T67 12T46 64Q46 91 60 108T97 135T163 162L270 202L273 187L200 156Q173 145 157 132T141 93Q141 69 156 55T193 41Q212 41 232 53L286 89L287 74L216 24Q192 7 173 0T129 -7Q88
-7 67 12ZM159 468T132 491T105 547Q105 583 138 604T214 625Q255 625 284 602T314 545Q314 510 281 489T204 468Q159 468 132 491ZM235 481T242 492T249 527Q249 562 233 587T194 612Q167 612 167 567Q167 534 181 508T220 481Q235 481 242 492Z" />
<glyph unicode="&#xe6;" glyph-name="ae" horiz-adv-x="590" d="M342 -12T295 32T244 170Q242 252 239 292T225 353T194 375Q130 375 127 291Q127 273 117 260T81 246Q35 246 35 286Q35 308 64 334T135 377T216 395Q256 395 283 369T316 299Q317 293 321 274Q330
244 331 215Q332 131 362 81T460 30Q525 30 566 62L568 63Q570 63 572 59T573 53Q537 18 501 3T421 -12Q342 -12 295 32ZM295 267L484 271V251L296 250L295 267ZM304 344T350 369T452 395Q508 395 538 363T568 271Q568 260 566 256T554 251H472L473 273Q473 322
459 348T419 375Q377 375 354 332T331 215L275 299Q304 344 350 369ZM77 -7T56 12T34 65Q34 91 47 108T82 135T144 161L251 201L255 187L180 156Q155 145 143 131T130 93Q130 68 143 54T181 40Q203 40 222 53L278 89L279 75L207 23Q162 -7 117 -7Q77 -7 56 12Z"
/>
<glyph unicode="&#xe7;" glyph-name="ccedilla" horiz-adv-x="420" d="M168 -12T123 16T55 90T33 186Q33 249 67 296T154 369T263 395Q310 395 347 376T385 325Q385 308 373 296T337 284Q298 284 282 328Q273 353 262 363T226 374Q179 374 152 332T124 218Q124
135 162 84T283 32Q310 32 332 39T381 61H382Q385 61 387 58T388 53Q351 20 315 4T233 -12Q168 -12 123 16ZM223 -30T223 -42Q223 -59 232 -70T264 -95Q290 -111 304 -128T319 -173Q319 -213 290 -244T203 -275Q170 -275 151 -264T132 -230Q132 -216 143 -206T169
-195Q186 -195 193 -202T205 -224Q211 -238 217 -245T240 -252Q267 -252 267 -224Q267 -198 249 -177T183 -130Q172 -125 172 -118Q172 -112 176 -101Q192 -64 215 -1L230 -2Q223 -30 223 -42Z" />
<glyph unicode="&#xe8;" glyph-name="egrave" horiz-adv-x="414" d="M169 -12T125 15T57 86T33 181Q33 240 62 289T141 366T254 395Q314 395 346 366T379 280Q379 265 377 258T368 251H286Q291 375 218 375Q173 375 148 334T122 223Q122 135 163 84T279 32Q307
32 326 39T376 62L378 63Q380 63 382 59T383 53Q347 19 310 4T230 -12Q169 -12 125 15ZM92 267L314 271V251L93 250L92 267ZM123 731T136 731Q155 731 182 726T210 716L248 476Q249 474 244 473T238 474L124 727Q123 731 136 731Z" />
<glyph unicode="&#xe9;" glyph-name="eacute" horiz-adv-x="414" d="M169 -12T125 15T57 86T33 181Q33 240 62 289T141 366T254 395Q314 395 346 366T379 280Q379 265 377 258T368 251H286Q291 375 218 375Q173 375 148 334T122 223Q122 135 163 84T279 32Q307
32 326 39T376 62L378 63Q380 63 382 59T383 53Q347 19 310 4T230 -12Q169 -12 125 15ZM92 267L314 271V251L93 250L92 267ZM230 472T226 472Q223 472 221 473T219 476L259 716Q260 720 287 725T333 731Q345 731 344 727L230 474Q230 472 226 472Z" />
<glyph unicode="&#xea;" glyph-name="ecircumflex" horiz-adv-x="414" d="M169 -12T125 15T57 86T33 181Q33 240 62 289T141 366T254 395Q314 395 346 366T379 280Q379 265 377 258T368 251H286Q291 375 218 375Q173 375 148 334T122 223Q122 135 163 84T279 32Q307
32 326 39T376 62L378 63Q380 63 382 59T383 53Q347 19 310 4T230 -12Q169 -12 125 15ZM92 267L314 271V251L93 250L92 267ZM311 475Q311 473 307 472T301 474L233 602L164 474Q164 472 160 472Q157 472 155 473T153 476L221 725Q222 730 232 730Q243 730 244 725L311
476V475Z" />
<glyph unicode="&#xeb;" glyph-name="edieresis" horiz-adv-x="414" d="M169 -12T125 15T57 86T33 181Q33 240 62 289T141 366T254 395Q314 395 346 366T379 280Q379 265 377 258T368 251H286Q291 375 218 375Q173 375 148 334T122 223Q122 135 163 84T279 32Q307
32 326 39T376 62L378 63Q380 63 382 59T383 53Q347 19 310 4T230 -12Q169 -12 125 15ZM92 267L314 271V251L93 250L92 267ZM122 469T109 482T95 519Q95 542 108 554T146 567Q169 567 181 555T194 519Q194 495 182 482T146 469Q122 469 109 482ZM297 469T284 482T270
519Q270 541 283 553T320 566Q343 566 356 554T369 519Q369 495 356 482T320 469Q297 469 284 482Z" />
<glyph unicode="&#xec;" glyph-name="igrave" horiz-adv-x="266" d="M41 0T41 6T44 12Q78 12 89 26T101 81V263Q101 297 94 312T70 328Q54 328 30 316H29Q25 316 23 321T24 328L168 395L171 396Q175 396 179 392T184 384V363Q182 321 182 264V81Q182 40 193 26T239
12Q242 12 242 6T239 0Q214 0 199 1L141 2L83 1Q69 0 44 0Q41 0 41 6ZM26 731T39 731Q58 731 85 726T113 716L152 476Q152 474 148 473T142 474L27 727Q26 731 39 731Z" />
<glyph unicode="&#xed;" glyph-name="iacute" horiz-adv-x="266" d="M41 0T41 6T44 12Q78 12 89 26T101 81V263Q101 297 94 312T70 328Q54 328 30 316H29Q25 316 23 321T24 328L168 395L171 396Q175 396 179 392T184 384V363Q182 321 182 264V81Q182 40 193 26T239
12Q242 12 242 6T239 0Q214 0 199 1L141 2L83 1Q69 0 44 0Q41 0 41 6ZM134 472T130 472Q127 472 125 473T123 476L162 716Q164 720 191 725T236 731Q249 731 248 727L134 474Q134 472 130 472Z" />
<glyph unicode="&#xee;" glyph-name="icircumflex" horiz-adv-x="266" d="M41 0T41 6T44 12Q78 12 89 26T101 81V263Q101 297 94 312T70 328Q54 328 30 316H29Q25 316 23 321T24 328L168 395L171 396Q175 396 179 392T184 384V363Q182 321 182 264V81Q182 40 193
26T239 12Q242 12 242 6T239 0Q214 0 199 1L141 2L83 1Q69 0 44 0Q41 0 41 6ZM215 475Q215 473 211 472T205 474L137 602L68 474Q67 471 62 472T57 476L125 725Q126 730 136 730Q147 730 148 725L215 476V475Z" />
<glyph unicode="&#xef;" glyph-name="idieresis" horiz-adv-x="266" d="M41 0T41 6T44 12Q78 12 89 26T101 81V263Q101 297 94 312T70 328Q54 328 30 316H29Q25 316 23 321T24 328L168 395L171 396Q175 396 179 392T184 384V363Q182 321 182 264V81Q182 40 193
26T239 12Q242 12 242 6T239 0Q214 0 199 1L141 2L83 1Q69 0 44 0Q41 0 41 6ZM38 469T25 482T11 519Q11 541 24 554T61 567Q84 567 97 554T111 519Q111 495 98 482T61 469Q38 469 25 482ZM187 469T174 482T161 519Q161 541 174 553T210 566Q233 566 246 554T259
519Q259 495 246 482T210 469Q187 469 174 482Z" />
<glyph unicode="&#xf0;" glyph-name="eth" horiz-adv-x="470" d="M363 297T324 337T231 378Q178 378 145 336T111 215Q111 158 128 111T178 36T251 8Q303 8 330 49T358 191Q358 299 323 401T226 585T90 716Q88 718 88 719Q88 721 90 723T96 725Q202 677 282 598T406
421T450 227Q450 107 386 47T223 -13Q162 -13 116 14T45 87T20 186Q20 255 53 303T138 375T240 399Q276 399 309 386T367 347L378 225Q363 297 324 337ZM120 482T114 496T113 513L387 643Q390 644 394 638T401 624T399 614L125 484Q120 482 114 496Z" />
<glyph unicode="&#xf1;" glyph-name="ntilde" horiz-adv-x="523" d="M307 0T307 6T310 12Q344 12 355 26T366 81V231Q366 287 346 313T281 340Q248 340 215 322T160 274L155 286Q235 398 331 398Q386 398 416 365T447 274V81Q447 40 458 26T504 12Q507 12 507
6T504 0Q479 0 464 1L407 2L350 1Q335 0 310 0Q307 0 307 6ZM38 0T38 6T41 12Q75 12 86 26T97 81V272Q97 304 90 319T65 334Q50 334 15 319H14Q10 319 8 324T9 330L140 394Q146 396 147 396Q158 396 168 371T178 306V81Q178 40 189 26T235 12Q238 12 238 6T235
0Q210 0 195 1L138 2L80 1Q66 0 41 0Q38 0 38 6ZM367 530T377 536T401 557L403 558Q405 558 407 555T408 550Q382 506 365 491T326 476Q305 476 268 487Q252 492 234 496T199 500Q180 500 172 495T149 473H148Q145 473 143 475T142 480Q186 555 228 555Q240 555
276 545Q325 530 350 530Q367 530 377 536Z" />
<glyph unicode="&#xf2;" glyph-name="ograve" horiz-adv-x="486" d="M175 -13T129 15T58 92T33 198Q33 263 65 308T148 376T252 399Q313 399 358 370T428 294T452 192Q452 132 423 85T343 13T235 -13Q175 -13 129 15ZM309 7T333 46T357 160Q357 227 339 277T289
353T219 379Q174 379 151 342T127 233Q127 168 145 117T194 36T265 7Q309 7 333 46ZM135 731T148 731Q167 731 193 726T221 716L260 476Q261 474 256 473T250 474L136 727Q135 731 148 731Z" />
<glyph unicode="&#xf3;" glyph-name="oacute" horiz-adv-x="486" d="M175 -13T129 15T58 92T33 198Q33 263 65 308T148 376T252 399Q313 399 358 370T428 294T452 192Q452 132 423 85T343 13T235 -13Q175 -13 129 15ZM309 7T333 46T357 160Q357 227 339 277T289
353T219 379Q174 379 151 342T127 233Q127 168 145 117T194 36T265 7Q309 7 333 46ZM242 472T238 472Q235 472 233 473T231 476L271 716Q272 720 299 725T344 731Q357 731 356 727L242 474Q242 472 238 472Z" />
<glyph unicode="&#xf4;" glyph-name="ocircumflex" horiz-adv-x="486" d="M175 -13T129 15T58 92T33 198Q33 263 65 308T148 376T252 399Q313 399 358 370T428 294T452 192Q452 132 423 85T343 13T235 -13Q175 -13 129 15ZM309 7T333 46T357 160Q357 227 339 277T289
353T219 379Q174 379 151 342T127 233Q127 168 145 117T194 36T265 7Q309 7 333 46ZM323 475Q323 473 319 472T313 474L245 602L176 474Q175 471 170 472T165 476L233 725Q234 730 244 730Q255 730 256 725L323 476V475Z" />
<glyph unicode="&#xf5;" glyph-name="otilde" horiz-adv-x="486" d="M175 -13T129 15T58 92T33 198Q33 263 65 308T148 376T252 399Q313 399 358 370T428 294T452 192Q452 132 423 85T343 13T235 -13Q175 -13 129 15ZM309 7T333 46T357 160Q357 227 339 277T289
353T219 379Q174 379 151 342T127 233Q127 168 145 117T194 36T265 7Q309 7 333 46ZM336 530T347 536T370 557L372 558Q374 558 376 555T377 550Q350 506 334 491T295 476Q275 476 238 487Q221 492 203 496T169 500Q150 500 142 495T118 473H117Q114 473 112 475T111
480Q155 555 197 555Q208 555 246 545Q295 530 320 530Q336 530 347 536Z" />
<glyph unicode="&#xf6;" glyph-name="odieresis" horiz-adv-x="486" d="M175 -13T129 15T58 92T33 198Q33 263 65 308T148 376T252 399Q313 399 358 370T428 294T452 192Q452 132 423 85T343 13T235 -13Q175 -13 129 15ZM309 7T333 46T357 160Q357 227 339 277T289
353T219 379Q174 379 151 342T127 233Q127 168 145 117T194 36T265 7Q309 7 333 46ZM134 469T121 482T107 519Q107 542 120 554T158 567Q181 567 193 555T206 519Q206 495 194 482T158 469Q134 469 121 482ZM309 469T296 482T282 519Q282 541 295 553T332 566Q355
566 368 554T381 519Q381 495 368 482T332 469Q309 469 296 482Z" />
<glyph unicode="&#xf7;" glyph-name="divide" horiz-adv-x="398" d="M32 167T31 174T29 191Q29 199 30 205T33 212H364Q366 212 367 205T369 190Q369 181 368 174T364 167H34Q32 167 31 174ZM173 -11T159 3T144 44Q144 68 158 82T199 96Q224 96 237 82T251 44Q251
18 238 4T199 -11Q173 -11 159 3ZM173 287T159 301T144 342Q144 366 158 379T199 393Q224 393 237 380T251 342Q251 316 238 302T199 287Q173 287 159 301Z" />
<glyph unicode="&#xf8;" glyph-name="oslash" horiz-adv-x="477" d="M54 -16Q49 -16 42 -8T37 3L423 400L425 401Q430 401 437 394T441 383L55 -15L54 -16ZM175 -13T129 15T58 92T33 198Q33 263 65 308T148 376T252 399Q313 399 358 370T428 294T452 192Q452 132
423 85T343 13T235 -13Q175 -13 129 15ZM309 7T333 46T357 160Q357 227 339 277T289 353T219 379Q174 379 151 342T127 233Q127 168 145 117T194 36T265 7Q309 7 333 46Z" />
<glyph unicode="&#xf9;" glyph-name="ugrave" horiz-adv-x="501" d="M135 -11T105 22T75 114V263Q75 298 68 314T44 331Q31 331 16 323H15Q11 323 9 328T10 335L136 394L141 395Q145 395 150 391T155 384V157Q155 101 175 74T238 46Q270 46 302 64T356 113L362
101Q280 -11 189 -11Q135 -11 105 22ZM417 79T424 65T448 50Q460 50 493 62L495 63Q498 63 500 58T499 51L368 -12L364 -13Q353 -13 345 12T337 79V263Q337 298 330 314T306 331Q294 331 278 323H277Q273 323 271 328T273 335L399 394L403 395Q407 395 412 391T417
384V113Q417 79 424 65ZM141 731T154 731Q173 731 200 726T228 716L266 476Q267 474 262 473T256 474L142 727Q141 731 154 731Z" />
<glyph unicode="&#xfa;" glyph-name="uacute" horiz-adv-x="501" d="M135 -11T105 22T75 114V263Q75 298 68 314T44 331Q31 331 16 323H15Q11 323 9 328T10 335L136 394L141 395Q145 395 150 391T155 384V157Q155 101 175 74T238 46Q270 46 302 64T356 113L362
101Q280 -11 189 -11Q135 -11 105 22ZM417 79T424 65T448 50Q460 50 493 62L495 63Q498 63 500 58T499 51L368 -12L364 -13Q353 -13 345 12T337 79V263Q337 298 330 314T306 331Q294 331 278 323H277Q273 323 271 328T273 335L399 394L403 395Q407 395 412 391T417
384V113Q417 79 424 65ZM248 472T244 472Q241 472 239 473T237 476L277 716Q278 720 305 725T351 731Q363 731 362 727L248 474Q248 472 244 472Z" />
<glyph unicode="&#xfb;" glyph-name="ucircumflex" horiz-adv-x="501" d="M135 -11T105 22T75 114V263Q75 298 68 314T44 331Q31 331 16 323H15Q11 323 9 328T10 335L136 394L141 395Q145 395 150 391T155 384V157Q155 101 175 74T238 46Q270 46 302 64T356 113L362
101Q280 -11 189 -11Q135 -11 105 22ZM417 79T424 65T448 50Q460 50 493 62L495 63Q498 63 500 58T499 51L368 -12L364 -13Q353 -13 345 12T337 79V263Q337 298 330 314T306 331Q294 331 278 323H277Q273 323 271 328T273 335L399 394L403 395Q407 395 412 391T417
384V113Q417 79 424 65ZM329 475Q329 473 325 472T319 474L251 602L182 474Q182 472 178 472Q175 472 173 473T171 476L239 725Q240 730 250 730Q261 730 262 725L329 476V475Z" />
<glyph unicode="&#xfc;" glyph-name="udieresis" horiz-adv-x="501" d="M135 -11T105 22T75 114V263Q75 298 68 314T44 331Q31 331 16 323H15Q11 323 9 328T10 335L136 394L141 395Q145 395 150 391T155 384V157Q155 101 175 74T238 46Q270 46 302 64T356 113L362
101Q280 -11 189 -11Q135 -11 105 22ZM417 79T424 65T448 50Q460 50 493 62L495 63Q498 63 500 58T499 51L368 -12L364 -13Q353 -13 345 12T337 79V263Q337 298 330 314T306 331Q294 331 278 323H277Q273 323 271 328T273 335L399 394L403 395Q407 395 412 391T417
384V113Q417 79 424 65ZM140 469T127 482T113 519Q113 541 127 554T164 567Q187 567 199 555T212 519Q212 495 200 482T164 469Q140 469 127 482ZM315 469T302 482T288 519Q288 541 301 553T338 566Q361 566 374 554T387 519Q387 495 374 482T338 469Q315 469 302
482Z" />
<glyph unicode="&#xfd;" glyph-name="yacute" horiz-adv-x="430" d="M440 386T440 380T438 374Q408 374 387 350T347 277L232 -28Q196 -124 163 -179T96 -257T21 -281Q-7 -281 -22 -270T-38 -235Q-38 -216 -26 -205T5 -194Q17 -194 24 -197T43 -207Q60 -220 78
-220Q103 -220 123 -199T167 -128T225 13L222 -33L57 303Q34 347 22 360T-9 374Q-11 374 -11 380T-9 386Q17 386 31 385L70 384L138 385Q153 386 179 386Q182 386 182 380T179 374Q152 374 139 370T126 354Q126 346 132 335L262 68L231 15L322 277Q330 303 330
320Q330 374 263 374Q261 374 261 380T263 386Q290 386 304 385L364 384L403 385Q414 386 438 386Q440 386 440 380ZM221 472T217 472Q214 472 212 473T210 476L249 716Q251 720 278 725T323 731Q336 731 335 727L221 474Q221 472 217 472Z" />
<glyph unicode="&#xfe;" glyph-name="thorn" horiz-adv-x="494" d="M8 -275T8 -269T10 -263Q35 -263 47 -258T64 -238T69 -194V592Q69 627 62 642T39 658Q23 658 -1 646H-2Q-6 646 -8 651T-8 658L131 724Q133 725 136 725Q140 725 144 721T149 714V-194Q149 -224
156 -238T182 -257T242 -263Q245 -263 245 -269T242 -275Q205 -275 185 -274L109 -273L50 -274Q35 -275 10 -275Q8 -275 8 -269ZM205 -13T177 -6T110 18L138 79Q165 45 193 28T264 11Q315 11 344 54T373 184Q373 262 337 305T247 349Q210 349 182 331T121 277L111
287Q162 345 209 372T304 399Q346 399 382 377T439 313T461 215Q461 136 428 85T345 11T242 -13Q205 -13 177 -6Z" />
<glyph unicode="&#xff;" glyph-name="ydieresis" horiz-adv-x="430" d="M440 386T440 380T438 374Q408 374 387 350T347 277L232 -28Q196 -124 163 -179T96 -257T21 -281Q-7 -281 -22 -270T-38 -235Q-38 -216 -26 -205T5 -194Q17 -194 24 -197T43 -207Q60 -220
78 -220Q103 -220 123 -199T167 -128T225 13L222 -33L57 303Q34 347 22 360T-9 374Q-11 374 -11 380T-9 386Q17 386 31 385L70 384L138 385Q153 386 179 386Q182 386 182 380T179 374Q152 374 139 370T126 354Q126 346 132 335L262 68L231 15L322 277Q330 303 330
320Q330 374 263 374Q261 374 261 380T263 386Q290 386 304 385L364 384L403 385Q414 386 438 386Q440 386 440 380ZM113 469T100 482T86 519Q86 542 99 554T137 567Q160 567 172 555T185 519Q185 495 173 482T137 469Q113 469 100 482ZM288 469T275 482T261 519Q261
541 274 553T311 566Q334 566 346 554T359 519Q359 495 347 482T311 469Q288 469 275 482Z" />
<glyph unicode="&#x2013;" glyph-name="endash" horiz-adv-x="515" d="M32 167T31 174T29 191Q29 199 30 205T33 212H481Q483 212 484 205T486 190Q486 181 485 174T481 167H34Q32 167 31 174Z" />
<glyph unicode="&#x2014;" glyph-name="emdash" horiz-adv-x="830" d="M32 167T31 174T29 191Q29 199 30 205T33 212H796Q798 212 799 205T801 190Q801 181 800 174T796 167H34Q32 167 31 174Z" />
<glyph unicode="&#x2018;" glyph-name="quoteleft" horiz-adv-x="190" d="M67 355T49 378T30 449Q30 500 53 545T121 635Q122 636 124 636Q127 636 128 634T129 628Q104 596 95 565T85 496Q85 468 90 454T108 429L71 422Q70 439 80 448T109 457Q133 457 146 444T159
407Q159 382 143 369T100 355Q67 355 49 378Z" />
<glyph unicode="&#x2019;" glyph-name="quoteright" horiz-adv-x="188" d="M122 628T140 605T158 534Q158 483 135 438T67 348Q66 347 64 347Q61 347 60 349T59 355Q84 387 93 418T103 487Q103 515 98 529T80 554L117 561Q118 544 108 535T79 526Q55 526 42 539T29
576Q29 601 45 614T88 628Q122 628 140 605Z" />
<glyph unicode="&#x201a;" glyph-name="quotesinglbase" horiz-adv-x="188" d="M122 94T140 71T158 0Q158 -51 135 -96T67 -186Q66 -187 64 -187Q61 -187 60 -185T59 -179Q84 -147 93 -116T103 -47Q103 -19 98 -5T80 20L117 27Q118 10 108 1T79 -8Q55 -8 42 5T29
42Q29 67 45 80T88 94Q122 94 140 71Z" />
<glyph unicode="&#x201c;" glyph-name="quotedblleft" horiz-adv-x="352" d="M67 355T49 378T30 449Q30 499 53 544T122 635Q123 636 125 636Q128 636 129 634T130 628Q105 596 95 565T85 496Q85 468 91 454T108 429L71 422Q70 439 80 448T109 457Q133 457 146
444T159 407Q159 382 144 369T101 355Q67 355 49 378ZM231 355T213 378T194 449Q194 499 217 544T285 635Q286 636 288 636Q291 636 292 634T293 628Q268 596 259 565T249 496Q249 468 255 454T272 429L235 422Q234 439 244 448T273 457Q297 457 310 444T323 407Q323
382 308 369T265 355Q231 355 213 378Z" />
<glyph unicode="&#x201d;" glyph-name="quotedblright" horiz-adv-x="352" d="M285 628T303 605T322 534Q322 483 299 438T231 348Q230 347 228 347Q225 347 224 349T223 355Q248 387 257 418T267 487Q267 515 262 529T244 554L281 561Q282 544 272 535T243 526Q219
526 206 539T193 576Q193 601 209 614T252 628Q285 628 303 605ZM122 628T140 605T158 534Q158 483 135 438T67 348Q66 347 64 347Q61 347 60 349T59 355Q84 387 93 418T103 487Q103 515 98 529T80 554L117 561Q118 544 108 535T79 526Q55 526 42 539T29 576Q29
601 45 614T88 628Q122 628 140 605Z" />
<glyph unicode="&#x201e;" glyph-name="quotedblbase" horiz-adv-x="361" d="M285 94T303 71T322 0Q322 -51 299 -96T231 -186Q230 -187 228 -187Q225 -187 224 -185T223 -179Q248 -147 257 -116T267 -47Q267 -19 262 -5T244 20L281 27Q282 10 272 1T243 -8Q219
-8 206 5T193 42Q193 67 209 80T252 94Q285 94 303 71ZM122 94T140 71T158 0Q158 -51 135 -96T67 -186Q66 -187 64 -187Q61 -187 60 -185T59 -179Q84 -147 93 -116T103 -47Q103 -19 98 -5T80 20L117 27Q118 10 108 1T79 -8Q55 -8 42 5T29 42Q29 67 45 80T88 94Q122
94 140 71Z" />
<glyph unicode="&#x2022;" glyph-name="bullet" horiz-adv-x="318" d="M113 138T81 170T48 248Q48 293 81 325T160 358Q205 358 237 325T270 248Q270 202 238 170T160 138Q113 138 81 170Z" />
<glyph unicode="&#x2039;" glyph-name="guilsinglleft" horiz-adv-x="304" d="M51 193T51 201Q51 208 55 212L239 361Q239 362 241 362Q243 362 245 360T246 356L144 201L246 46Q247 44 244 41T239 40L55 189Q51 193 51 201Z" />
<glyph unicode="&#x203a;" glyph-name="guilsinglright" horiz-adv-x="304" d="M254 207T254 201Q254 194 249 189L65 40Q65 39 63 39Q61 39 59 41T58 46L161 200L58 356Q57 358 60 361T65 361L249 212Q254 207 254 201Z" />
</font>
</defs>
</svg>
