<?xml version="1.0" standalone="no"?>
<!DOCTYPE svg PUBLIC "-//W3C//DTD SVG 20010904//EN"
 "http://www.w3.org/TR/2001/REC-SVG-20010904/DTD/svg10.dtd">
<svg version="1.0" xmlns="http://www.w3.org/2000/svg"
 width="180.000000pt" height="180.000000pt" viewBox="0 0 180.000000 180.000000"
 preserveAspectRatio="xMidYMid meet">
<metadata>
Created by potrace 1.14, written by Peter Selinger 2001-2017
</metadata>
<g transform="translate(0.000000,180.000000) scale(0.100000,-0.100000)"
fill="#000000" stroke="none">
<path d="M873 1672 c-33 -5 -81 -58 -88 -96 -9 -45 16 -101 57 -126 132 -80
255 120 125 204 -25 17 -62 24 -94 18z"/>
<path d="M1335 1470 c-47 -10 -73 -31 -89 -71 -15 -38 -13 -77 5 -112 9 -16 5
-26 -27 -58 -31 -31 -40 -36 -56 -28 -28 15 -76 1 -95 -27 -11 -17 -14 -36 -9
-62 5 -35 2 -42 -37 -80 l-42 -42 -38 17 -37 17 0 68 c0 52 3 68 14 68 20 0
56 48 56 75 0 27 -36 75 -55 75 -10 0 -15 17 -18 58 l-3 57 -2 -55 c-2 -52 -4
-56 -32 -67 -41 -16 -56 -57 -36 -100 9 -18 26 -35 38 -38 21 -6 23 -11 23
-73 l0 -67 -38 -18 -38 -17 -45 44 c-38 37 -44 49 -38 68 24 70 -43 132 -105
98 -14 -7 -26 -1 -56 30 -33 34 -36 41 -25 55 8 9 14 39 14 66 1 46 -2 54 -36
85 -49 44 -110 48 -157 8 -111 -93 5 -265 133 -199 29 15 30 15 63 -21 28 -32
32 -42 27 -78 -5 -35 -2 -45 19 -64 26 -25 49 -30 83 -18 17 5 31 -3 67 -40
41 -43 44 -49 34 -73 -19 -44 -24 -47 -88 -46 -51 0 -64 3 -73 20 -18 32 -39
44 -74 45 -31 0 -65 -23 -74 -51 -2 -7 -26 -16 -54 -19 l-49 -7 50 -2 c46 -1
52 -4 62 -31 20 -53 101 -53 131 0 16 28 20 30 83 30 l66 0 15 -39 16 -39 -48
-47 c-29 -29 -50 -43 -54 -36 -13 20 -66 12 -91 -14 -26 -25 -34 -78 -14 -91
7 -4 -5 -23 -31 -49 -40 -41 -44 -43 -65 -29 -75 49 -180 -14 -178 -107 2 -75
62 -126 136 -116 80 11 127 97 92 170 l-16 34 37 37 c28 28 41 35 58 29 32
-11 39 -10 68 4 32 15 51 67 35 97 -7 15 -1 27 36 63 44 45 45 45 81 32 20 -7
36 -15 37 -19 1 -3 2 -33 3 -67 1 -59 0 -63 -25 -73 -61 -26 -57 -116 6 -140
16 -6 22 -18 24 -51 3 -60 11 -63 11 -5 0 40 3 49 20 53 12 3 28 19 36 35 21
41 10 84 -27 103 -28 15 -29 18 -29 84 l0 69 33 7 c17 5 35 9 39 9 4 1 25 -16
47 -36 36 -35 39 -41 34 -78 -5 -34 -2 -45 18 -66 21 -23 30 -25 70 -21 44 5
48 4 75 -29 16 -19 33 -34 39 -34 5 0 -10 20 -34 44 -26 27 -39 46 -32 50 6 4
11 23 11 42 0 53 -58 92 -107 71 -18 -8 -28 -3 -63 31 l-41 40 13 41 13 41 52
0 c29 0 53 4 53 8 0 5 -20 8 -45 7 -53 -2 -57 1 -75 43 -13 33 -12 34 29 76
41 42 44 43 77 33 29 -9 39 -7 62 10 23 18 27 28 27 73 0 46 4 56 33 85 31 32
34 33 60 19 53 -28 118 -13 153 36 64 88 -13 213 -116 190z"/>
<path d="M203 1003 c-94 -46 -78 -194 25 -222 81 -23 158 44 149 128 -9 86
-95 132 -174 94z"/>
<path d="M1504 1004 c-31 -15 -64 -60 -64 -87 0 -11 -15 -15 -59 -16 -56 -1
-61 1 -73 26 -29 61 -113 62 -140 3 -7 -16 -16 -26 -20 -24 -12 8 -10 -5 5
-22 61 -76 92 -83 142 -30 25 26 41 35 71 36 66 3 74 1 74 -19 0 -27 44 -77
78 -89 86 -29 173 44 159 134 -7 44 -31 72 -74 90 -41 18 -60 17 -99 -2z"/>
<path d="M1337 562 c-15 -2 -43 -19 -62 -38 -30 -29 -35 -42 -35 -80 0 -111
122 -164 201 -88 84 80 13 221 -104 206z"/>
<path d="M871 365 c-72 -24 -107 -103 -76 -170 47 -98 195 -84 224 22 25 88
-63 177 -148 148z"/>
</g>
</svg>
